<svg xmlns="http://www.w3.org/2000/svg" viewBox="0 0 935.05 660.51" width="903.05" height="628.51" fill="transparent"><defs><style>@import url('https://fonts.googleapis.com/css2?family=Caveat+Brush&amp;family=Source+Code+Pro&amp;family=Source+Sans+Pro&amp;family=Source+Serif+Pro&amp;display=swap');</style></defs><g id="dc2cbc40-3d4d-4c94-1db7-f59eca9fe9fb_svg" class="tl-centered-g" transform="translate(16, 16) rotate(0, 106.28, 40.5)"><path d="M 1.25,24.98 Q 1.25,24.98 1.32,21.19 1.38,17.39 1.46,12.63 1.54,7.87 3.05,5.17 4.57,2.46 11.24,1.78 17.91,1.10 25.89,0.93 33.88,0.76 42.20,0.72 50.52,0.68 58.93,0.68 67.33,0.68 75.76,0.68 84.19,0.69 92.62,0.69 101.06,0.70 109.49,0.71 117.93,0.72 126.36,0.72 134.80,0.73 143.23,0.74 151.67,0.75 160.11,0.75 168.54,0.76 176.98,0.77 185.41,0.78 193.85,0.79 202.29,0.79 205.93,2.29 209.57,3.78 210.48,7.98 211.39,12.18 211.61,17.08 211.83,21.97 211.87,27.05 211.91,32.12 211.91,37.23 211.90,42.35 211.88,47.48 211.87,52.61 211.85,57.74 211.83,62.87 211.81,68.00 211.79,73.13 210.29,75.93 208.80,78.73 202.10,79.42 195.41,80.11 187.39,80.26 179.37,80.42 171.01,80.43 162.65,80.45 154.20,80.43 145.76,80.41 137.29,80.38 128.82,80.35 120.35,80.32 111.88,80.29 103.40,80.26 94.93,80.23 86.45,80.20 77.98,80.17 69.50,80.14 61.03,80.11 52.55,80.08 44.08,80.05 35.60,80.02 27.13,79.98 18.66,79.95 10.18,79.92 6.53,78.42 2.88,76.93 2.01,72.75 1.15,68.58 0.99,63.72 0.83,58.86 0.86,53.83 0.88,48.79 0.96,43.72 1.03,38.64 1.11,33.55 1.19,28.46 1.31,21.63" fill="#fefefe" pointer-events="none"/><path d="M -0.02,24.96 Q -0.02,24.96 -0.05,21.16 -0.07,17.37 -0.07,12.56 -0.07,7.75 1.79,4.53 3.67,1.30 10.71,0.43 17.75,-0.43 25.80,-0.55 33.85,-0.66 42.18,-0.65 50.51,-0.63 58.92,-0.58 67.33,-0.53 75.76,-0.47 84.19,-0.41 92.62,-0.35 101.06,-0.29 109.49,-0.34 117.93,-0.38 126.36,-0.43 134.80,-0.48 143.24,-0.52 151.67,-0.57 160.11,-0.61 168.54,-0.66 176.98,-0.71 185.41,-0.75 193.87,-0.80 202.33,-0.84 206.48,0.96 210.62,2.76 211.72,7.32 212.83,11.88 212.97,16.90 213.11,21.92 213.06,27.01 213.00,32.11 213.00,37.23 212.99,42.35 213.07,47.48 213.15,52.61 213.22,57.74 213.29,62.87 213.35,68.05 213.42,73.23 211.55,76.56 209.69,79.89 202.63,80.76 195.57,81.64 187.48,81.75 179.39,81.85 171.02,81.81 162.65,81.77 154.20,81.70 145.75,81.63 137.29,81.54 128.82,81.46 120.35,81.38 111.87,81.29 103.40,81.32 94.92,81.34 86.45,81.36 77.97,81.39 69.50,81.41 61.02,81.43 52.55,81.46 44.07,81.48 35.60,81.50 27.12,81.53 18.63,81.54 10.13,81.56 5.97,79.75 1.82,77.93 0.76,73.40 -0.28,68.87 -0.36,63.88 -0.43,58.90 -0.32,53.84 -0.20,48.79 -0.13,43.71 -0.06,38.62 -0.06,33.53 -0.07,28.44 -0.05,21.61 -0.03,14.77 0.00,14.54 0.05,14.31 0.16,14.10 0.27,13.89 0.45,13.73 0.62,13.57 0.84,13.47 1.06,13.38 1.29,13.36 1.53,13.34 1.76,13.39 1.99,13.45 2.19,13.57 2.39,13.70 2.54,13.88 2.69,14.06 2.78,14.28 2.86,14.51 2.87,14.74 2.88,14.98 2.81,15.21 2.74,15.43 2.61,15.63 2.47,15.82 2.28,15.96 2.09,16.10 1.86,16.17 1.64,16.24 1.40,16.24 1.16,16.24 0.94,16.16 0.72,16.08 0.53,15.93 0.35,15.78 0.22,15.59 0.09,15.39 0.03,15.16 -0.02,14.93 -0.01,14.69 0.00,14.46 0.09,14.24 0.18,14.02 0.34,13.84 0.50,13.66 0.70,13.55 0.91,13.43 1.14,13.38 1.37,13.33 1.61,13.36 1.84,13.39 2.05,13.50 2.27,13.60 2.44,13.76 2.61,13.93 2.71,14.14 2.82,14.35 2.86,14.59 2.89,14.82 2.89,14.82 2.89,14.82 2.68,21.65 2.47,28.48 2.30,33.57 2.12,38.66 2.05,43.73 1.98,48.80 2.04,53.81 2.11,58.82 2.35,63.55 2.58,68.28 3.26,72.10 3.94,75.92 7.09,77.10 10.23,78.28 18.68,78.36 27.14,78.44 35.61,78.53 44.09,78.61 52.56,78.70 61.03,78.78 69.51,78.87 77.98,78.95 86.46,79.04 94.93,79.12 103.41,79.21 111.88,79.29 120.35,79.27 128.83,79.25 137.29,79.22 145.76,79.19 154.20,79.16 162.65,79.12 170.99,79.05 179.34,78.98 187.30,78.78 195.25,78.58 201.58,78.07 207.91,77.57 209.04,75.30 210.16,73.04 210.26,67.95 210.36,62.86 210.48,57.73 210.59,52.60 210.70,47.48 210.81,42.35 210.81,37.24 210.82,32.13 210.68,27.08 210.55,22.03 210.26,17.26 209.96,12.49 209.24,8.64 208.51,4.79 205.38,3.61 202.24,2.43 193.82,2.38 185.41,2.32 176.98,2.26 168.54,2.20 160.10,2.13 151.67,2.07 143.23,2.01 134.80,1.95 126.36,1.89 117.93,1.82 109.49,1.76 101.06,1.70 92.62,1.75 84.19,1.79 75.76,1.84 67.33,1.89 58.93,1.95 50.52,2.01 42.22,2.10 33.91,2.19 25.98,2.41 18.06,2.63 11.76,3.13 5.46,3.62 4.32,5.81 3.17,7.99 3.01,12.70 2.84,17.42 2.69,21.21 2.53,25.00 2.51,25.15 2.49,25.31 2.43,25.45 2.37,25.59 2.28,25.72 2.19,25.84 2.08,25.94 1.96,26.04 1.82,26.11 1.68,26.18 1.53,26.22 1.38,26.25 1.23,26.25 1.07,26.25 0.93,26.21 0.78,26.17 0.64,26.09 0.51,26.02 0.39,25.92 0.28,25.81 0.19,25.68 0.11,25.55 0.06,25.41 0.00,25.26 -0.00,25.11 Z" fill="#1d1d1d" stroke="#1d1d1d" stroke-width="2" pointer-events="none" opacity="1"/></g><g fill="#1d1d1d" transform="translate(32.25999999999999, 37.87) rotate(0, 89.5, 19)"><text font-family="&quot;Caveat Brush&quot;" font-size="28px" text-anchor="start" alignment-baseline="central" text-align="left" y="18.2">VariableDeclaration</text></g><g id="eaf6397e-b948-43f4-0d7a-86fcd94f7c3c_svg" class="tl-centered-g" transform="translate(211.94000000000005, 239.95) rotate(0, 106.28, 40.5)"><path d="M 1.15,25.31 Q 1.15,25.31 1.15,21.54 1.15,17.76 1.16,13.02 1.16,8.28 2.65,5.58 4.14,2.88 10.81,2.17 17.49,1.46 25.49,1.25 33.48,1.05 41.82,0.97 50.15,0.90 58.58,0.85 67.00,0.81 75.44,0.78 83.88,0.74 92.33,0.71 100.78,0.68 109.23,0.65 117.68,0.62 126.13,0.59 134.58,0.56 143.03,0.53 151.48,0.49 159.93,0.46 168.38,0.43 176.83,0.40 185.28,0.37 193.73,0.34 202.18,0.31 205.83,1.79 209.47,3.27 210.36,7.46 211.25,11.65 211.43,16.52 211.61,21.40 211.62,26.46 211.62,31.51 211.58,36.61 211.54,41.71 211.49,46.81 211.44,51.92 211.38,57.04 211.32,62.15 211.27,67.26 211.21,72.38 209.71,75.17 208.20,77.96 201.55,78.68 194.89,79.40 186.92,79.58 178.96,79.77 170.65,79.82 162.35,79.88 153.96,79.89 145.57,79.91 137.16,79.92 128.75,79.93 120.33,79.94 111.92,79.94 103.50,79.95 95.08,79.96 86.66,79.96 78.24,79.97 69.83,79.98 61.41,79.98 52.99,79.99 44.57,79.99 36.15,80.00 27.74,80.01 19.32,80.01 10.90,80.02 7.26,78.53 3.63,77.04 2.70,72.88 1.77,68.73 1.54,63.89 1.30,59.05 1.25,54.04 1.19,49.03 1.17,43.97 1.16,38.92 1.16,33.85 1.15,28.78 1.15,21.98" fill="#fefefe" pointer-events="none"/><path d="M -0.12,25.31 Q -0.12,25.31 -0.21,21.54 -0.30,17.76 -0.38,12.97 -0.46,8.18 1.38,4.95 3.24,1.72 10.28,0.82 17.33,-0.07 25.39,-0.22 33.45,-0.38 41.80,-0.40 50.14,-0.42 58.57,-0.41 66.99,-0.40 75.43,-0.37 83.88,-0.35 92.33,-0.33 100.78,-0.31 109.23,-0.39 117.68,-0.48 126.13,-0.57 134.58,-0.65 143.03,-0.74 151.48,-0.82 159.93,-0.91 168.38,-0.99 176.83,-1.08 185.28,-1.16 193.75,-1.24 202.22,-1.32 206.38,0.47 210.53,2.27 211.61,6.81 212.68,11.35 212.79,16.35 212.89,21.35 212.80,26.43 212.72,31.51 212.68,36.61 212.63,41.71 212.67,46.83 212.71,51.94 212.75,57.05 212.79,62.17 212.81,67.32 212.84,72.48 210.97,75.80 209.10,79.12 202.08,80.02 195.06,80.93 187.02,81.07 178.99,81.21 170.67,81.20 162.36,81.20 153.96,81.17 145.57,81.13 137.16,81.08 128.75,81.04 120.33,80.99 111.92,80.94 103.50,81.01 95.08,81.07 86.66,81.13 78.25,81.19 69.83,81.25 61.41,81.31 52.99,81.37 44.57,81.43 36.16,81.49 27.74,81.55 19.30,81.60 10.85,81.66 6.72,79.86 2.58,78.07 1.46,73.55 0.34,69.04 0.19,64.08 0.03,59.11 0.06,54.08 0.09,49.04 0.08,43.98 0.07,38.92 -0.02,33.85 -0.11,28.78 -0.21,21.98 -0.30,15.17 -0.26,14.94 -0.22,14.70 -0.11,14.50 -0.00,14.29 0.16,14.12 0.33,13.96 0.55,13.86 0.76,13.76 1.00,13.74 1.23,13.71 1.47,13.76 1.70,13.81 1.90,13.93 2.10,14.06 2.26,14.24 2.41,14.42 2.50,14.64 2.59,14.86 2.60,15.09 2.61,15.33 2.55,15.56 2.48,15.79 2.35,15.98 2.22,16.18 2.03,16.32 1.84,16.47 1.62,16.54 1.39,16.62 1.16,16.62 0.92,16.62 0.69,16.54 0.47,16.47 0.28,16.32 0.09,16.18 -0.03,15.98 -0.16,15.79 -0.23,15.56 -0.29,15.33 -0.28,15.09 -0.26,14.86 -0.18,14.64 -0.09,14.42 0.05,14.24 0.21,14.06 0.41,13.93 0.61,13.81 0.85,13.76 1.08,13.71 1.31,13.74 1.55,13.76 1.76,13.86 1.98,13.96 2.15,14.12 2.32,14.29 2.43,14.50 2.54,14.71 2.58,14.94 2.62,15.17 2.62,15.17 2.62,15.17 2.53,21.98 2.43,28.78 2.34,33.85 2.25,38.91 2.27,43.96 2.28,49.02 2.43,54.00 2.58,58.99 2.89,63.70 3.20,68.41 3.94,72.21 4.67,76.02 7.81,77.20 10.95,78.38 19.34,78.42 27.74,78.46 36.15,78.51 44.57,78.56 52.99,78.61 61.41,78.66 69.83,78.70 78.24,78.75 86.66,78.80 95.08,78.85 103.50,78.90 111.92,78.94 120.33,78.88 128.75,78.82 137.16,78.76 145.57,78.70 153.95,78.62 162.34,78.55 170.63,78.45 178.92,78.34 186.82,78.10 194.73,77.86 201.02,77.34 207.30,76.81 208.44,74.54 209.58,72.27 209.72,67.20 209.86,62.13 210.01,57.02 210.16,51.91 210.30,46.80 210.45,41.70 210.49,36.60 210.53,31.51 210.43,26.48 210.34,21.45 210.08,16.70 209.81,11.95 209.11,8.11 208.41,4.28 205.28,3.11 202.14,1.95 193.71,1.93 185.29,1.91 176.84,1.89 168.39,1.87 159.94,1.84 151.49,1.82 143.03,1.80 134.58,1.77 126.13,1.75 117.68,1.73 109.23,1.70 100.78,1.68 92.34,1.77 83.89,1.85 75.45,1.94 67.00,2.03 58.58,2.12 50.17,2.22 41.84,2.35 33.52,2.48 25.59,2.73 17.65,2.99 11.35,3.51 5.04,4.04 3.91,6.21 2.78,8.38 2.70,13.07 2.62,17.76 2.52,21.54 2.43,25.31 2.41,25.47 2.39,25.62 2.34,25.76 2.28,25.91 2.20,26.04 2.11,26.16 1.99,26.26 1.88,26.37 1.74,26.44 1.61,26.51 1.46,26.55 1.31,26.58 1.15,26.58 1.00,26.58 0.85,26.55 0.70,26.51 0.56,26.44 0.43,26.37 0.31,26.26 0.20,26.16 0.11,26.03 0.02,25.91 -0.02,25.76 -0.08,25.62 -0.10,25.47 Z" fill="#1d1d1d" stroke="#1d1d1d" stroke-width="2" pointer-events="none" opacity="1"/></g><g fill="#1d1d1d" transform="translate(233.5300000000002, 260.94) rotate(0, 85.5, 19)"><text font-family="&quot;Caveat Brush&quot;" font-size="28px" text-anchor="start" alignment-baseline="central" text-align="left" y="18.2">VariableDeclarator</text></g><g id="a888970c-2270-4b79-2796-973d2a771984_svg" class="tl-centered-g" transform="translate(286.6100000000001, 356.39) rotate(0, 46.28, 40.5)"><path d="M 0.88,24.89 Q 0.88,24.89 0.86,21.10 0.85,17.32 0.82,12.57 0.80,7.81 2.29,5.11 3.77,2.41 8.58,1.75 13.39,1.08 19.04,0.93 24.69,0.79 30.56,0.78 36.43,0.76 42.36,0.78 48.28,0.80 54.22,0.83 60.16,0.86 66.11,0.89 72.05,0.92 77.99,0.95 83.94,0.99 86.94,2.48 89.95,3.98 90.72,8.17 91.49,12.35 91.69,17.22 91.90,22.09 91.95,27.14 92.01,32.19 92.03,37.28 92.05,42.37 92.06,47.47 92.07,52.57 92.08,57.67 92.09,62.78 92.10,67.88 92.11,72.99 90.62,75.78 89.13,78.57 84.33,79.24 79.54,79.91 73.90,80.04 68.26,80.17 62.40,80.17 56.55,80.16 50.64,80.11 44.73,80.07 38.80,80.02 32.88,79.97 26.95,79.91 21.02,79.86 15.10,79.80 9.17,79.75 6.17,78.24 3.16,76.74 2.38,72.57 1.60,68.40 1.38,63.55 1.17,58.70 1.09,53.68 1.02,48.66 0.99,43.59 0.95,38.52 0.92,33.44 0.90,28.37 0.87,21.55" fill="#fefefe" pointer-events="none"/><path d="M -0.39,24.90 Q -0.39,24.90 -0.50,21.11 -0.61,17.32 -0.71,12.52 -0.81,7.72 1.00,4.50 2.82,1.28 8.00,0.45 13.19,-0.36 18.92,-0.42 24.66,-0.48 30.55,-0.40 36.43,-0.32 42.36,-0.30 48.29,-0.28 54.23,-0.34 60.17,-0.41 66.11,-0.47 72.06,-0.53 78.04,-0.58 84.02,-0.64 87.53,1.16 91.04,2.97 91.98,7.53 92.93,12.09 93.05,17.06 93.17,22.04 93.14,27.11 93.10,32.17 93.12,37.27 93.14,42.36 93.25,47.46 93.35,52.57 93.45,57.67 93.55,62.78 93.64,67.93 93.73,73.08 91.91,76.39 90.08,79.70 84.91,80.53 79.74,81.36 74.01,81.41 68.29,81.45 62.42,81.35 56.55,81.25 50.63,81.21 44.72,81.16 38.79,81.21 32.87,81.25 26.94,81.28 21.01,81.32 15.04,81.35 9.08,81.38 5.58,79.57 2.08,77.75 1.12,73.21 0.16,68.67 0.02,63.71 -0.10,58.76 -0.08,53.72 -0.06,48.67 -0.10,43.60 -0.13,38.53 -0.25,33.45 -0.37,28.37 -0.50,21.55 -0.62,14.73 -0.58,14.50 -0.55,14.26 -0.44,14.06 -0.33,13.85 -0.15,13.68 0.01,13.52 0.22,13.42 0.44,13.32 0.67,13.29 0.91,13.26 1.14,13.31 1.37,13.36 1.57,13.48 1.78,13.61 1.93,13.79 2.09,13.97 2.17,14.19 2.26,14.40 2.28,14.64 2.29,14.88 2.23,15.11 2.17,15.33 2.03,15.53 1.90,15.73 1.71,15.87 1.53,16.02 1.30,16.09 1.08,16.17 0.84,16.17 0.60,16.17 0.38,16.10 0.15,16.02 -0.03,15.88 -0.21,15.74 -0.35,15.54 -0.48,15.35 -0.55,15.12 -0.61,14.89 -0.60,14.65 -0.59,14.42 -0.50,14.20 -0.41,13.98 -0.26,13.80 -0.11,13.61 0.08,13.49 0.29,13.37 0.52,13.32 0.75,13.26 0.98,13.29 1.22,13.31 1.43,13.41 1.65,13.51 1.82,13.67 2.00,13.83 2.11,14.04 2.22,14.25 2.26,14.49 2.30,14.72 2.30,14.72 2.30,14.72 2.24,21.54 2.18,28.36 2.11,33.44 2.04,38.52 2.08,43.58 2.11,48.64 2.28,53.64 2.44,58.65 2.74,63.39 3.04,68.13 3.65,71.93 4.25,75.73 6.75,76.92 9.26,78.12 15.15,78.26 21.04,78.39 26.96,78.54 32.89,78.69 38.81,78.83 44.74,78.98 50.64,79.02 56.55,79.06 62.39,78.98 68.23,78.90 73.78,78.68 79.34,78.46 83.76,77.95 88.18,77.44 89.33,75.17 90.48,72.90 90.55,67.84 90.63,62.78 90.71,57.68 90.79,52.57 90.88,47.47 90.96,42.37 90.94,37.28 90.92,32.20 90.77,27.17 90.62,22.15 90.33,17.38 90.05,12.62 89.45,8.80 88.86,4.99 86.35,3.80 83.85,2.62 77.95,2.50 72.04,2.39 66.10,2.26 60.16,2.14 54.22,2.02 48.28,1.90 42.36,1.87 36.44,1.85 30.58,1.96 24.73,2.07 19.16,2.30 13.59,2.53 9.16,3.04 4.73,3.54 3.58,5.73 2.43,7.91 2.37,12.61 2.31,17.31 2.23,21.10 2.16,24.88 2.14,25.04 2.12,25.19 2.07,25.33 2.01,25.48 1.93,25.61 1.84,25.73 1.73,25.84 1.61,25.94 1.47,26.01 1.34,26.08 1.19,26.12 1.04,26.16 0.89,26.16 0.73,26.16 0.58,26.12 0.43,26.09 0.30,26.02 0.16,25.95 0.04,25.84 -0.06,25.74 -0.15,25.62 -0.24,25.49 -0.29,25.35 -0.35,25.20 -0.37,25.05 Z" fill="#1d1d1d" stroke="#1d1d1d" stroke-width="2" pointer-events="none" opacity="1"/></g><g fill="#1d1d1d" transform="translate(308.1999999999998, 377.38) rotate(0, 24, 19)"><text font-family="&quot;Caveat Brush&quot;" font-size="28px" text-anchor="start" alignment-baseline="central" text-align="left" y="18.2">type</text></g><g id="2861ee30-15cd-443b-3e6d-222e943777f1_svg" class="tl-centered-g" transform="translate(290.15999999999985, 461.27) rotate(0, 43.61, 40.5)"><path d="M 26.58,79.55 Q 26.58,79.55 22.49,79.55 18.40,79.54 13.26,79.54 8.13,79.53 5.33,78.04 2.53,76.55 1.87,72.41 1.21,68.27 1.10,63.45 0.99,58.63 1.01,53.64 1.04,48.65 1.10,43.62 1.16,38.59 1.23,33.54 1.30,28.49 1.38,23.45 1.45,18.40 1.52,13.35 1.60,8.30 3.10,5.52 4.61,2.75 9.06,2.02 13.51,1.29 18.70,1.08 23.90,0.88 29.28,0.80 34.67,0.73 40.11,0.69 45.54,0.65 50.99,0.62 56.44,0.59 61.89,0.56 67.34,0.54 72.79,0.51 78.24,0.48 81.12,1.96 84.00,3.45 84.71,7.61 85.42,11.78 85.58,16.62 85.74,21.47 85.75,26.49 85.77,31.51 85.75,36.58 85.73,41.65 85.70,46.72 85.67,51.80 85.63,56.88 85.60,61.96 85.57,67.04 85.54,72.12 84.04,74.91 82.54,77.69 78.06,78.40 73.59,79.11 68.36,79.28 63.12,79.46 57.70,79.50 52.27,79.54 46.80,79.55 41.32,79.56 35.83,79.55 30.34,79.55 22.97,79.55" fill="#fefefe" pointer-events="none"/><path d="M 26.58,80.83 Q 26.58,80.83 22.49,80.92 18.40,81.01 13.22,81.09 8.04,81.16 4.73,79.35 1.42,77.53 0.59,73.02 -0.22,68.50 -0.25,63.58 -0.28,58.66 -0.16,53.66 -0.04,48.65 0.01,43.61 0.07,38.57 0.05,33.52 0.02,28.48 0.00,23.43 -0.01,18.38 -0.01,13.28 -0.02,8.19 1.79,4.91 3.62,1.63 8.45,0.74 13.27,-0.15 18.56,-0.27 23.85,-0.39 29.25,-0.37 34.66,-0.35 40.09,-0.39 45.53,-0.43 50.98,-0.55 56.43,-0.68 61.88,-0.80 67.33,-0.92 72.83,-1.03 78.32,-1.14 81.71,0.65 85.11,2.46 85.99,6.99 86.87,11.53 86.94,16.48 87.01,21.43 86.94,26.47 86.86,31.51 86.84,36.58 86.82,41.65 86.88,46.73 86.94,51.81 87.00,56.89 87.07,61.97 87.11,67.10 87.16,72.22 85.34,75.52 83.52,78.81 78.67,79.68 73.82,80.55 68.49,80.65 63.17,80.74 57.72,80.69 52.28,80.64 46.80,80.64 41.32,80.65 35.83,80.74 30.34,80.83 22.97,80.92 15.60,81.01 15.36,80.97 15.13,80.93 14.92,80.82 14.71,80.71 14.55,80.53 14.39,80.36 14.29,80.15 14.19,79.93 14.16,79.70 14.14,79.46 14.19,79.23 14.24,79.00 14.36,78.80 14.48,78.59 14.66,78.44 14.85,78.29 15.07,78.20 15.29,78.11 15.52,78.10 15.76,78.09 15.99,78.15 16.22,78.21 16.41,78.35 16.61,78.48 16.75,78.67 16.89,78.86 16.97,79.08 17.04,79.31 17.04,79.54 17.04,79.78 16.97,80.00 16.89,80.23 16.75,80.42 16.61,80.61 16.41,80.74 16.21,80.87 15.98,80.93 15.76,81.00 15.52,80.98 15.28,80.97 15.06,80.88 14.84,80.80 14.66,80.64 14.48,80.49 14.36,80.29 14.24,80.08 14.19,79.85 14.14,79.62 14.16,79.38 14.19,79.15 14.29,78.93 14.39,78.72 14.55,78.55 14.71,78.37 14.92,78.26 15.13,78.15 15.37,78.12 15.60,78.08 15.60,78.08 15.60,78.08 22.97,78.18 30.34,78.27 35.83,78.37 41.32,78.46 46.79,78.46 52.26,78.45 57.67,78.32 63.08,78.18 68.22,77.92 73.36,77.66 77.46,77.12 81.56,76.58 82.73,74.30 83.91,72.02 84.02,66.99 84.14,61.95 84.26,56.87 84.39,51.79 84.51,46.72 84.63,41.64 84.65,36.58 84.67,31.52 84.57,26.51 84.46,21.51 84.22,16.77 83.98,12.02 83.44,8.23 82.90,4.44 80.53,3.28 78.16,2.11 72.76,2.06 67.35,2.00 61.90,1.94 56.44,1.87 51.00,1.81 45.55,1.75 40.12,1.78 34.69,1.82 29.32,1.99 23.95,2.15 18.84,2.44 13.74,2.73 9.67,3.30 5.60,3.86 4.41,6.14 3.22,8.41 3.07,13.42 2.91,18.42 2.75,23.47 2.58,28.51 2.42,33.56 2.25,38.60 2.19,43.63 2.13,48.66 2.20,53.63 2.26,58.60 2.46,63.32 2.66,68.04 3.15,71.81 3.64,75.57 5.93,76.74 8.22,77.91 13.31,77.99 18.40,78.08 22.49,78.18 26.59,78.27 26.74,78.29 26.89,78.31 27.04,78.36 27.18,78.42 27.31,78.51 27.43,78.60 27.54,78.71 27.64,78.83 27.71,78.96 27.78,79.10 27.82,79.25 27.85,79.40 27.85,79.55 27.85,79.71 27.82,79.86 27.78,80.01 27.71,80.14 27.64,80.28 27.53,80.39 27.43,80.51 27.30,80.60 27.18,80.68 27.03,80.74 26.89,80.79 26.74,80.81 Z" fill="#1d1d1d" stroke="#1d1d1d" stroke-width="2" pointer-events="none" opacity="1"/></g><g fill="#1d1d1d" transform="translate(320.6399999999999, 484.93) rotate(0, 12.5, 19)"><text font-family="&quot;Caveat Brush&quot;" font-size="28px" text-anchor="start" alignment-baseline="central" text-align="left" y="18.2">id</text></g><g id="a70a209e-2231-4890-3a6d-6ad5338147dd_svg" class="tl-centered-g" transform="translate(291.94000000000005, 563.51) rotate(0, 44.50, 40.5)"><path d="M 88.16,55.61 Q 88.16,55.61 88.21,59.38 88.26,63.14 88.32,67.86 88.38,72.58 86.90,75.27 85.43,77.97 80.86,78.63 76.29,79.28 70.93,79.42 65.57,79.56 60.02,79.57 54.46,79.58 48.85,79.55 43.24,79.52 37.62,79.49 31.99,79.45 26.37,79.42 20.74,79.38 15.12,79.34 9.49,79.30 6.56,77.80 3.64,76.30 2.87,72.16 2.11,68.01 1.89,63.19 1.68,58.37 1.60,53.38 1.53,48.39 1.49,43.36 1.45,38.32 1.42,33.27 1.39,28.23 1.37,23.18 1.34,18.13 1.31,13.08 1.29,8.03 2.77,5.25 4.25,2.47 8.80,1.79 13.34,1.11 18.66,0.97 23.99,0.82 29.51,0.82 35.03,0.81 40.60,0.84 46.18,0.86 51.76,0.90 57.35,0.94 62.94,0.98 68.53,1.01 74.12,1.05 79.71,1.09 82.62,2.59 85.54,4.09 86.33,8.24 87.12,12.38 87.37,17.20 87.62,22.02 87.73,27.01 87.84,32.00 87.91,37.03 87.99,42.07 88.05,47.11 88.12,52.16 88.20,58.94" fill="#fefefe" pointer-events="none"/><path d="M 89.44,55.60 Q 89.44,55.60 89.58,59.36 89.72,63.12 89.86,67.89 90.00,72.66 88.19,75.88 86.39,79.09 81.44,79.91 76.50,80.73 71.05,80.79 65.61,80.84 60.03,80.76 54.46,80.67 48.85,80.64 43.23,80.62 37.61,80.68 31.99,80.73 26.36,80.79 20.73,80.84 15.07,80.89 9.40,80.93 5.97,79.13 2.55,77.32 1.61,72.80 0.67,68.28 0.54,63.36 0.40,58.43 0.42,53.42 0.44,48.41 0.40,43.37 0.36,38.33 0.24,33.28 0.12,28.23 0.00,23.18 -0.11,18.13 -0.22,13.04 -0.33,7.94 1.47,4.64 3.29,1.35 8.21,0.51 13.12,-0.33 18.54,-0.39 23.95,-0.44 29.49,-0.36 35.03,-0.27 40.61,-0.25 46.18,-0.22 51.77,-0.27 57.36,-0.33 62.95,-0.39 68.54,-0.44 74.17,-0.48 79.80,-0.53 83.21,1.27 86.63,3.07 87.59,7.59 88.56,12.11 88.72,17.03 88.89,21.95 88.91,26.96 88.93,31.98 89.00,37.01 89.08,42.05 89.24,47.10 89.40,52.14 89.58,58.92 89.75,65.69 89.72,65.93 89.68,66.16 89.57,66.37 89.47,66.58 89.30,66.75 89.13,66.91 88.91,67.02 88.70,67.12 88.46,67.15 88.23,67.17 88.00,67.13 87.76,67.08 87.56,66.96 87.36,66.84 87.20,66.66 87.04,66.48 86.95,66.26 86.86,66.04 86.85,65.81 86.83,65.57 86.89,65.34 86.95,65.11 87.08,64.92 87.21,64.72 87.40,64.57 87.59,64.43 87.81,64.35 88.03,64.27 88.27,64.27 88.51,64.26 88.73,64.34 88.96,64.41 89.15,64.55 89.34,64.69 89.48,64.89 89.61,65.08 89.68,65.31 89.74,65.54 89.73,65.77 89.72,66.01 89.64,66.23 89.55,66.45 89.40,66.63 89.25,66.82 89.05,66.94 88.85,67.07 88.62,67.12 88.39,67.17 88.15,67.15 87.92,67.13 87.70,67.03 87.48,66.93 87.31,66.77 87.14,66.61 87.02,66.40 86.91,66.20 86.87,65.96 86.83,65.73 86.83,65.73 86.83,65.73 86.83,58.95 86.84,52.18 86.87,47.13 86.89,42.08 86.82,37.05 86.74,32.02 86.54,27.05 86.34,22.08 86.01,17.37 85.68,12.65 85.07,8.89 84.45,5.12 82.03,3.92 79.62,2.72 74.07,2.60 68.52,2.48 62.93,2.35 57.34,2.22 51.76,2.09 46.17,1.96 40.60,1.93 35.03,1.90 29.53,2.00 24.02,2.10 18.79,2.33 13.56,2.56 9.39,3.08 5.22,3.59 4.07,5.85 2.91,8.11 2.86,13.11 2.80,18.12 2.74,23.17 2.67,28.22 2.61,33.26 2.55,38.31 2.58,43.34 2.62,48.37 2.79,53.35 2.96,58.32 3.25,63.03 3.55,67.75 4.14,71.52 4.73,75.29 7.16,76.48 9.58,77.67 15.17,77.79 20.75,77.92 26.38,78.05 32.00,78.18 37.62,78.30 43.24,78.43 48.85,78.46 54.46,78.48 60.00,78.38 65.54,78.28 70.81,78.06 76.08,77.83 80.27,77.34 84.46,76.84 85.61,74.67 86.75,72.49 86.77,67.82 86.79,63.16 86.84,59.39 86.89,55.63 86.90,55.48 86.92,55.32 86.97,55.18 87.02,55.03 87.11,54.91 87.20,54.78 87.31,54.67 87.42,54.57 87.56,54.50 87.70,54.42 87.84,54.38 87.99,54.35 88.15,54.34 88.30,54.34 88.45,54.38 88.60,54.41 88.74,54.48 88.88,54.55 88.99,54.65 89.11,54.75 89.20,54.88 89.29,55.01 89.34,55.15 89.40,55.29 89.42,55.44 Z" fill="#1d1d1d" stroke="#1d1d1d" stroke-width="2" pointer-events="none" opacity="1"/></g><g fill="#1d1d1d" transform="translate(313.5300000000002, 584.5) rotate(0, 19.5, 19)"><text font-family="&quot;Caveat Brush&quot;" font-size="28px" text-anchor="start" alignment-baseline="central" text-align="left" y="18.2">init</text></g><g id="c280365c-eeb5-4104-3a8f-fe68e546f0a1_svg" class="tl-centered-g" transform="translate(103.03999999999996, 131.51) rotate(0, 80.06, 40.5)"><path d="M 0.81,25.74 Q 0.81,25.74 0.77,21.99 0.73,18.25 0.68,13.56 0.63,8.86 2.10,6.17 3.58,3.48 10.18,2.78 16.79,2.07 24.70,1.86 32.61,1.66 40.85,1.58 49.10,1.50 57.43,1.46 65.76,1.42 74.11,1.38 82.46,1.35 90.81,1.31 99.17,1.28 107.53,1.25 115.89,1.22 124.24,1.18 132.60,1.15 140.96,1.12 149.32,1.09 152.94,2.57 156.56,4.05 157.52,8.21 158.47,12.36 158.75,17.20 159.03,22.04 159.13,27.05 159.23,32.06 159.29,37.11 159.35,42.17 159.40,47.24 159.44,52.30 159.49,57.37 159.53,62.44 159.58,67.51 159.62,72.58 158.14,75.36 156.66,78.15 150.06,78.85 143.47,79.56 135.56,79.74 127.66,79.91 119.43,79.95 111.19,79.99 102.87,80.00 94.55,80.01 86.21,80.01 77.86,80.00 69.52,80.00 61.17,80.00 52.82,79.99 44.47,79.99 36.12,79.98 27.77,79.98 19.42,79.97 11.07,79.97 7.45,78.48 3.84,76.98 2.87,72.86 1.91,68.74 1.62,63.95 1.33,59.15 1.22,54.19 1.11,49.23 1.04,44.22 0.97,39.21 0.91,34.19 0.85,29.17 0.78,22.43" fill="#fefefe" pointer-events="none"/><path d="M -0.46,25.75 Q -0.46,25.75 -0.59,22.01 -0.73,18.27 -0.86,13.52 -0.99,8.77 0.84,5.55 2.68,2.33 9.65,1.45 16.63,0.57 24.60,0.43 32.57,0.30 40.83,0.29 49.09,0.29 57.42,0.32 65.75,0.34 74.10,0.31 82.45,0.27 90.81,0.17 99.17,0.06 107.52,-0.03 115.88,-0.13 124.24,-0.24 132.60,-0.34 140.98,-0.44 149.36,-0.54 153.48,1.23 157.60,3.01 158.75,7.53 159.90,12.04 160.10,17.00 160.30,21.96 160.31,27.00 160.32,32.04 160.38,37.10 160.44,42.16 160.58,47.22 160.72,52.29 160.86,57.36 161.00,62.43 161.12,67.55 161.25,72.66 159.40,75.98 157.56,79.30 150.59,80.18 143.63,81.06 135.66,81.16 127.69,81.27 119.44,81.24 111.20,81.21 102.87,81.15 94.55,81.08 86.21,81.08 77.86,81.08 69.52,81.14 61.17,81.21 52.82,81.28 44.47,81.35 36.12,81.41 27.77,81.48 19.40,81.54 11.03,81.61 6.91,79.82 2.80,78.03 1.64,73.55 0.48,69.07 0.27,64.15 0.06,59.23 0.04,54.24 0.01,49.25 -0.05,44.24 -0.12,39.22 -0.27,34.21 -0.42,29.19 -0.59,22.45 -0.75,15.71 -0.72,15.47 -0.68,15.24 -0.57,15.03 -0.47,14.82 -0.30,14.65 -0.12,14.49 0.08,14.39 0.29,14.28 0.53,14.26 0.76,14.23 1.00,14.28 1.23,14.32 1.43,14.44 1.64,14.56 1.79,14.74 1.95,14.92 2.04,15.14 2.13,15.36 2.14,15.60 2.16,15.83 2.10,16.06 2.04,16.29 1.91,16.49 1.77,16.69 1.59,16.83 1.40,16.98 1.18,17.05 0.95,17.13 0.72,17.14 0.48,17.14 0.25,17.06 0.03,16.99 -0.15,16.85 -0.34,16.71 -0.48,16.51 -0.61,16.32 -0.68,16.09 -0.74,15.86 -0.73,15.63 -0.72,15.39 -0.64,15.17 -0.55,14.95 -0.40,14.77 -0.25,14.58 -0.05,14.46 0.14,14.34 0.37,14.28 0.61,14.23 0.84,14.25 1.08,14.28 1.29,14.37 1.51,14.47 1.68,14.63 1.86,14.79 1.97,15.00 2.08,15.21 2.12,15.44 2.16,15.67 2.16,15.67 2.16,15.67 2.15,22.42 2.13,29.16 2.09,34.18 2.06,39.19 2.13,44.20 2.20,49.20 2.41,54.14 2.61,59.08 2.97,63.74 3.33,68.41 4.10,72.18 4.87,75.94 8.00,77.13 11.12,78.33 19.45,78.40 27.77,78.47 36.12,78.55 44.47,78.63 52.82,78.70 61.17,78.78 69.52,78.86 77.87,78.93 86.21,78.93 94.55,78.94 102.87,78.86 111.18,78.78 119.41,78.66 127.63,78.55 135.47,78.31 143.31,78.06 149.54,77.53 155.77,76.99 156.88,74.75 157.99,72.50 158.03,67.48 158.07,62.45 158.12,57.38 158.16,52.31 158.21,47.25 158.26,42.18 158.20,37.13 158.14,32.08 157.94,27.09 157.75,22.11 157.40,17.40 157.05,12.69 156.28,8.89 155.52,5.09 152.40,3.91 149.28,2.73 140.94,2.69 132.61,2.66 124.25,2.62 115.89,2.58 107.53,2.54 99.17,2.50 90.82,2.46 82.46,2.42 74.11,2.45 65.76,2.49 57.43,2.60 49.11,2.72 40.88,2.87 32.64,3.02 24.80,3.29 16.95,3.56 10.71,4.10 4.48,4.64 3.37,6.79 2.25,8.95 2.22,13.59 2.19,18.24 2.14,21.98 2.09,25.72 2.07,25.88 2.05,26.03 2.00,26.17 1.95,26.32 1.86,26.45 1.78,26.57 1.66,26.68 1.55,26.78 1.41,26.85 1.28,26.93 1.13,26.96 0.98,27.00 0.82,27.01 0.67,27.01 0.52,26.97 0.37,26.94 0.23,26.87 0.09,26.80 -0.01,26.69 -0.13,26.59 -0.22,26.47 -0.31,26.34 -0.36,26.20 -0.42,26.06 -0.44,25.90 Z" fill="#1d1d1d" stroke="#1d1d1d" stroke-width="2" pointer-events="none" opacity="1"/></g><g fill="#1d1d1d" transform="translate(124.62999999999988, 152.5) rotate(0, 57, 19)"><text font-family="&quot;Caveat Brush&quot;" font-size="28px" text-anchor="start" alignment-baseline="central" text-align="left" y="18.2">declarations</text></g><g fill="#788492" transform="translate(398.32000000000016, 376.53) rotate(0, 27.5, 19)"><text font-family="&quot;Caveat Brush&quot;" font-size="28px" text-anchor="start" alignment-baseline="central" text-align="left" y="18.2">const</text></g><g fill="#788492" transform="translate(397.3800000000001, 481.88) rotate(0, 24.5, 19)"><text font-family="&quot;Caveat Brush&quot;" font-size="28px" text-anchor="start" alignment-baseline="central" text-align="left" y="18.2">hello</text></g><g fill="#788492" transform="translate(400.92999999999984, 585) rotate(0, 36.5, 19)"><text font-family="&quot;Caveat Brush&quot;" font-size="28px" text-anchor="start" alignment-baseline="central" text-align="left" y="18.2">"world"</text></g><g id="bf1c87f6-3222-4f1f-0c01-541887d66e69_svg" class="tl-centered-g" transform="translate(52.41000000000008, 116.21) rotate(0, 15.50, 24.21)"><g pointer-events="none" opacity="1"><path d="M 6.26,-2.47 Q 6.26,-2.47 5.27,0.19 4.28,2.86 3.47,5.88 2.66,8.90 2.50,12.92 2.34,16.94 3.38,21.39 4.42,25.84 6.78,29.96 9.13,34.09 12.42,37.23 15.72,40.37 19.22,42.26 22.72,44.15 25.69,44.99 28.66,45.83 31.22,46.09 33.77,46.34 34.13,46.41 34.48,46.49 34.80,46.67 35.11,46.85 35.35,47.13 35.59,47.40 35.73,47.74 35.87,48.08 35.89,48.44 35.91,48.80 35.82,49.16 35.73,49.51 35.53,49.81 35.33,50.11 35.04,50.34 34.75,50.56 34.41,50.68 34.06,50.80 33.70,50.81 33.34,50.81 32.99,50.70 32.64,50.59 32.35,50.37 32.06,50.15 31.85,49.85 31.64,49.55 31.54,49.21 31.44,48.86 31.46,48.49 31.47,48.13 31.60,47.79 31.73,47.45 31.97,47.17 32.20,46.89 32.51,46.70 32.82,46.51 33.17,46.42 33.53,46.34 33.89,46.38 34.25,46.41 34.58,46.56 34.92,46.71 35.18,46.96 35.45,47.20 35.62,47.52 35.80,47.84 35.86,48.20 35.92,48.56 35.87,48.92 35.81,49.28 35.65,49.60 35.48,49.93 35.22,50.18 34.96,50.43 34.63,50.59 34.30,50.75 33.94,50.79 33.58,50.83 33.58,50.83 33.58,50.83 30.49,50.49 27.41,50.16 23.99,49.13 20.57,48.10 16.59,45.86 12.61,43.62 8.93,39.97 5.24,36.32 2.64,31.60 0.05,26.87 -1.04,21.82 -2.14,16.77 -1.91,12.25 -1.68,7.73 -0.73,4.33 0.21,0.93 1.66,-1.51 3.11,-3.96 3.23,-4.14 3.34,-4.32 3.49,-4.46 3.64,-4.61 3.82,-4.71 4.01,-4.82 4.21,-4.87 4.41,-4.93 4.62,-4.94 4.83,-4.95 5.03,-4.91 5.24,-4.86 5.43,-4.77 5.62,-4.68 5.78,-4.55 5.94,-4.42 6.07,-4.25 6.19,-4.08 6.28,-3.89 6.36,-3.70 6.39,-3.49 6.42,-3.28 6.41,-3.07 6.39,-2.86 6.32,-2.67 Z" fill="#1d1d1d" stroke="#1d1d1d" stroke-width="0" stroke-dasharray="none" stroke-dashoffset="none" stroke-linecap="round" stroke-linejoin="round" pointer-events="none"/><path d="M 22.01,38.757700778864084 L 34.63,48.6 19.79,54.60344921644717" fill="none" stroke="#1d1d1d" stroke-width="4.23" stroke-linecap="round" stroke-linejoin="round" pointer-events="none"/></g></g><g id="e2ec1b6c-78cc-406a-07d2-90abb6c2468a_svg" class="tl-centered-g" transform="translate(143.69000000000005, 230.45) rotate(0, 23.94, 25.13)"><g pointer-events="none" opacity="1"><path d="M 2.78,-4.04 Q 2.78,-4.04 2.60,-1.12 2.42,1.79 2.35,5.08 2.27,8.37 2.95,12.61 3.63,16.85 5.48,21.48 7.33,26.11 10.46,30.44 13.58,34.76 17.70,38.16 21.81,41.55 26.29,43.68 30.77,45.82 34.92,46.76 39.06,47.71 42.32,47.86 45.57,48.01 48.25,47.75 50.94,47.49 51.30,47.50 51.66,47.50 52.01,47.63 52.35,47.75 52.63,47.98 52.92,48.20 53.12,48.51 53.31,48.81 53.40,49.17 53.49,49.52 53.47,49.88 53.44,50.24 53.30,50.58 53.16,50.92 52.92,51.19 52.67,51.46 52.36,51.64 52.04,51.82 51.69,51.89 51.33,51.96 50.97,51.92 50.61,51.87 50.28,51.71 49.95,51.55 49.69,51.30 49.43,51.04 49.27,50.71 49.11,50.39 49.06,50.03 49.00,49.67 49.07,49.31 49.14,48.95 49.31,48.63 49.49,48.32 49.76,48.07 50.03,47.83 50.36,47.68 50.70,47.54 51.06,47.50 51.42,47.47 51.78,47.56 52.13,47.64 52.44,47.84 52.75,48.03 52.98,48.31 53.20,48.60 53.33,48.94 53.46,49.28 53.47,49.64 53.48,50.01 53.38,50.35 53.27,50.70 53.06,51.00 52.85,51.30 52.56,51.51 52.27,51.72 51.92,51.83 51.57,51.94 51.57,51.94 51.57,51.94 48.46,52.22 45.34,52.50 41.69,52.30 38.05,52.10 33.44,50.99 28.84,49.87 23.90,47.45 18.96,45.02 14.45,41.21 9.95,37.41 6.55,32.59 3.16,27.78 1.18,22.67 -0.79,17.56 -1.50,12.91 -2.21,8.26 -2.11,4.65 -2.00,1.04 -1.20,-1.77 -0.40,-4.59 -0.34,-4.77 -0.29,-4.96 -0.19,-5.13 -0.09,-5.30 0.04,-5.44 0.17,-5.58 0.34,-5.68 0.50,-5.78 0.69,-5.84 0.87,-5.90 1.07,-5.92 1.26,-5.93 1.46,-5.90 1.65,-5.86 1.83,-5.79 2.00,-5.71 2.16,-5.59 2.31,-5.47 2.44,-5.32 2.56,-5.17 2.64,-4.99 2.72,-4.81 2.76,-4.62 2.80,-4.43 2.79,-4.24 Z" fill="#1d1d1d" stroke="#1d1d1d" stroke-width="0" stroke-dasharray="none" stroke-dashoffset="none" stroke-linecap="round" stroke-linejoin="round" pointer-events="none"/><path d="M 37.87,42.53265408687184 L 52.25,49.55 38.98,58.4939429233074" fill="none" stroke="#1d1d1d" stroke-width="4.23" stroke-linecap="round" stroke-linejoin="round" pointer-events="none"/></g></g><g id="edc31f0d-15d9-40bd-0161-460aca54b283_svg" class="tl-centered-g" transform="translate(247.2800000000002, 331.19) rotate(0, 11.66, 28.39)"><g pointer-events="none" opacity="1"><path d="M 0.82,-0.34 Q 0.82,-0.34 3.61,6.54 6.39,13.42 9.19,20.30 11.98,27.18 14.78,34.05 17.59,40.93 20.39,47.80 23.20,54.67 23.22,54.78 23.25,54.89 23.24,55.00 23.23,55.11 23.18,55.21 23.14,55.31 23.06,55.40 22.99,55.48 22.89,55.53 22.79,55.58 22.68,55.60 22.57,55.62 22.46,55.60 22.35,55.59 22.25,55.54 22.16,55.49 22.08,55.41 22.00,55.33 21.95,55.23 21.91,55.13 21.89,55.02 21.88,54.91 21.90,54.80 21.92,54.69 21.98,54.59 22.04,54.50 22.12,54.42 22.21,54.35 22.31,54.31 22.41,54.27 22.52,54.26 22.63,54.25 22.74,54.28 22.85,54.31 22.94,54.37 23.03,54.43 23.10,54.52 23.17,54.61 23.20,54.71 23.24,54.82 23.24,54.93 23.24,55.04 23.21,55.14 23.17,55.25 23.11,55.34 23.04,55.43 22.95,55.49 22.86,55.55 22.75,55.59 22.65,55.62 22.54,55.61 22.42,55.61 22.32,55.57 22.22,55.53 22.13,55.46 22.05,55.38 21.99,55.29 21.93,55.20 21.93,55.20 21.93,55.20 19.09,48.33 16.26,41.47 13.42,34.61 10.58,27.75 7.73,20.90 4.88,14.04 2.02,7.19 -0.82,0.34 -0.85,0.23 -0.88,0.13 -0.88,0.02 -0.89,-0.08 -0.86,-0.18 -0.84,-0.29 -0.79,-0.39 -0.75,-0.48 -0.68,-0.57 -0.61,-0.65 -0.52,-0.71 -0.43,-0.78 -0.33,-0.82 -0.23,-0.86 -0.13,-0.87 -0.02,-0.89 0.08,-0.88 0.19,-0.87 0.29,-0.83 0.39,-0.80 0.48,-0.74 0.57,-0.68 0.64,-0.60 0.72,-0.52 0.77,-0.43 Z" fill="#1d1d1d" stroke="#1d1d1d" stroke-width="2.11" stroke-dasharray="none" stroke-dashoffset="none" stroke-linecap="round" stroke-linejoin="round" pointer-events="stroke"/><path d="M 25.46,40.93302049664599 L 23.33,56.79 10.66,47.0129565507913" fill="none" stroke="#1d1d1d" stroke-width="4.23" stroke-linecap="round" stroke-linejoin="round" pointer-events="none"/></g></g><g id="7db94f7d-5c26-4dc7-05d2-0106e98d1b26_svg" class="tl-centered-g" transform="translate(220.79999999999973, 339.33) rotate(0, 23.08, 77.55)"><g pointer-events="none" opacity="1"><path d="M 14.76,-7.93 Q 14.76,-7.93 14.14,-5.96 13.51,-3.99 12.46,-1.41 11.41,1.15 9.90,5.47 8.40,9.79 6.70,16.40 5.00,23.00 3.73,32.44 2.46,41.87 2.80,54.52 3.13,67.17 6.60,82.04 10.06,96.92 15.33,108.38 20.59,119.84 25.86,127.70 31.13,135.57 35.55,140.73 39.97,145.88 43.19,149.08 46.42,152.28 48.48,154.11 50.53,155.95 52.06,157.22 53.58,158.49 53.83,158.76 54.07,159.03 54.22,159.36 54.37,159.69 54.40,160.05 54.43,160.42 54.35,160.77 54.26,161.12 54.07,161.43 53.87,161.74 53.59,161.97 53.31,162.20 52.97,162.33 52.63,162.46 52.27,162.47 51.90,162.48 51.55,162.38 51.20,162.28 50.91,162.07 50.61,161.86 50.39,161.56 50.18,161.27 50.07,160.92 49.96,160.57 49.97,160.21 49.97,159.85 50.10,159.50 50.22,159.16 50.45,158.87 50.67,158.59 50.98,158.39 51.28,158.19 51.63,158.10 51.99,158.01 52.35,158.04 52.71,158.06 53.05,158.21 53.38,158.35 53.66,158.59 53.93,158.83 54.11,159.14 54.29,159.46 54.37,159.82 54.44,160.17 54.39,160.53 54.34,160.90 54.18,161.22 54.03,161.55 53.77,161.81 53.51,162.07 53.19,162.23 52.87,162.40 52.50,162.45 52.14,162.50 51.79,162.44 51.43,162.37 51.11,162.19 50.79,162.02 50.79,162.02 50.79,162.02 49.16,160.66 47.54,159.30 45.39,157.39 43.25,155.47 39.90,152.14 36.54,148.81 31.97,143.44 27.40,138.08 21.95,129.90 16.50,121.71 11.09,109.83 5.69,97.95 2.16,82.63 -1.35,67.30 -1.67,54.29 -1.98,41.28 -0.66,31.58 0.65,21.89 2.40,15.10 4.15,8.32 5.70,3.88 7.24,-0.55 8.32,-3.19 9.40,-5.82 10.45,-7.60 11.51,-9.38 11.62,-9.57 11.73,-9.75 11.88,-9.90 12.03,-10.06 12.22,-10.17 12.40,-10.28 12.61,-10.34 12.81,-10.41 13.03,-10.42 13.24,-10.43 13.45,-10.40 13.66,-10.36 13.86,-10.27 14.05,-10.18 14.22,-10.05 14.39,-9.92 14.53,-9.75 14.66,-9.58 14.75,-9.38 14.84,-9.19 14.88,-8.98 14.91,-8.77 14.90,-8.55 14.89,-8.34 14.83,-8.13 Z" fill="#1d1d1d" stroke="#1d1d1d" stroke-width="0" stroke-dasharray="none" stroke-dashoffset="none" stroke-linecap="round" stroke-linejoin="round" pointer-events="none"/><path d="M 47.97,146.12229282601245 L 53.36,161.19 37.62,158.31695647019833" fill="none" stroke="#1d1d1d" stroke-width="4.23" stroke-linecap="round" stroke-linejoin="round" pointer-events="none"/></g></g><g id="ee625917-2e15-4dd2-2777-0d822fccd50e_svg" class="tl-centered-g" transform="translate(198.17000000000007, 342.13) rotate(0, 33.76, 124.75)"><g pointer-events="none" opacity="1"><path d="M 16.55,-13.60 Q 16.55,-13.60 15.86,-10.68 15.18,-7.75 14.09,-4.26 13.00,-0.78 11.67,4.04 10.34,8.87 8.94,14.98 7.54,21.08 6.26,28.35 4.99,35.62 4.05,43.93 3.10,52.24 2.68,61.39 2.26,70.55 2.52,80.33 2.78,90.11 3.83,100.25 4.88,110.39 6.77,120.64 8.65,130.88 11.34,140.93 14.04,150.98 17.45,160.60 20.86,170.21 24.82,179.15 28.78,188.08 33.09,196.16 37.40,204.25 41.81,211.34 46.23,218.43 50.50,224.44 54.77,230.46 58.65,235.37 62.52,240.27 65.79,244.05 69.06,247.83 71.53,250.51 74.00,253.19 76.05,255.30 78.11,257.42 78.32,257.71 78.53,258.01 78.64,258.36 78.74,258.71 78.73,259.07 78.72,259.43 78.59,259.78 78.46,260.12 78.23,260.40 78.01,260.68 77.70,260.88 77.39,261.07 77.04,261.16 76.68,261.24 76.32,261.21 75.96,261.18 75.62,261.04 75.29,260.89 75.02,260.65 74.75,260.40 74.57,260.08 74.40,259.77 74.33,259.41 74.26,259.05 74.31,258.69 74.36,258.33 74.53,258.00 74.69,257.68 74.95,257.42 75.21,257.17 75.53,257.01 75.86,256.85 76.22,256.80 76.58,256.75 76.94,256.82 77.30,256.89 77.61,257.07 77.93,257.25 78.17,257.53 78.41,257.80 78.55,258.13 78.70,258.47 78.72,258.83 78.75,259.19 78.66,259.55 78.57,259.90 78.38,260.21 78.18,260.51 77.89,260.74 77.61,260.96 77.27,261.09 76.92,261.21 76.56,261.22 76.20,261.23 75.85,261.12 75.50,261.01 75.21,260.80 74.91,260.58 74.91,260.58 74.91,260.58 72.80,258.41 70.69,256.24 68.17,253.51 65.65,250.78 62.32,246.92 58.99,243.06 55.04,238.06 51.10,233.07 46.75,226.94 42.40,220.80 37.92,213.58 33.43,206.36 29.05,198.14 24.67,189.91 20.64,180.81 16.61,171.72 13.15,161.93 9.69,152.15 6.96,141.92 4.22,131.69 2.31,121.27 0.41,110.86 -0.64,100.54 -1.70,90.22 -1.96,80.28 -2.22,70.34 -1.79,61.04 -1.36,51.73 -0.40,43.29 0.56,34.85 1.86,27.46 3.15,20.07 4.58,13.87 6.01,7.68 7.36,2.78 8.71,-2.11 9.81,-5.66 10.91,-9.20 12.15,-11.93 13.38,-14.67 13.47,-14.85 13.56,-15.03 13.69,-15.19 13.81,-15.34 13.98,-15.46 14.14,-15.58 14.32,-15.66 14.51,-15.74 14.71,-15.77 14.91,-15.80 15.11,-15.79 15.31,-15.77 15.50,-15.70 15.69,-15.64 15.86,-15.53 16.03,-15.42 16.17,-15.28 16.30,-15.13 16.40,-14.96 16.50,-14.78 16.56,-14.59 16.61,-14.39 16.62,-14.19 16.63,-13.99 16.59,-13.80 Z" fill="#1d1d1d" stroke="#1d1d1d" stroke-width="0" stroke-dasharray="none" stroke-dashoffset="none" stroke-linecap="round" stroke-linejoin="round" pointer-events="none"/><path d="M 73.86,244.74303892200578 L 77.77,260.26 62.38,255.88056358294185" fill="none" stroke="#1d1d1d" stroke-width="4.23" stroke-linecap="round" stroke-linejoin="round" pointer-events="none"/></g></g><g id="544b10e7-627a-4cae-0748-4d491bf471ca_svg" class="tl-centered-g" transform="translate(485.53999999999996, 276.33) rotate(0, 40.67, 0.66)"><g pointer-events="none" opacity="1"><path d="M -0.01,0.36 Q -0.01,0.36 9.90,0.23 19.82,0.10 29.73,-0.02 39.65,-0.16 49.57,-0.30 59.49,-0.45 69.40,-0.60 79.32,-0.74 79.45,-0.73 79.57,-0.71 79.69,-0.65 79.80,-0.59 79.89,-0.50 79.98,-0.41 80.03,-0.30 80.09,-0.18 80.10,-0.06 80.12,0.06 80.09,0.18 80.07,0.31 80.00,0.42 79.94,0.52 79.84,0.61 79.75,0.69 79.63,0.74 79.52,0.79 79.39,0.80 79.26,0.81 79.14,0.78 79.02,0.74 78.91,0.67 78.81,0.60 78.73,0.50 78.65,0.41 78.61,0.29 78.57,0.17 78.56,0.04 78.56,-0.08 78.60,-0.20 78.64,-0.32 78.71,-0.42 78.79,-0.52 78.89,-0.59 79.00,-0.67 79.12,-0.70 79.24,-0.74 79.36,-0.73 79.49,-0.73 79.61,-0.68 79.73,-0.64 79.83,-0.56 79.92,-0.48 79.99,-0.37 80.06,-0.26 80.09,-0.14 80.12,-0.02 80.10,0.10 80.09,0.22 80.04,0.34 79.99,0.46 79.90,0.55 79.82,0.64 79.71,0.70 79.60,0.77 79.47,0.79 79.35,0.81 79.35,0.81 79.35,0.81 69.43,0.99 59.51,1.16 49.60,1.34 39.68,1.52 29.76,1.71 19.84,1.90 9.93,2.09 0.01,2.29 -0.09,2.28 -0.21,2.27 -0.32,2.23 -0.43,2.19 -0.53,2.12 -0.62,2.06 -0.70,1.97 -0.78,1.89 -0.84,1.78 -0.89,1.68 -0.92,1.57 -0.95,1.46 -0.95,1.34 -0.95,1.22 -0.93,1.11 -0.90,1.00 -0.85,0.89 -0.80,0.79 -0.72,0.70 -0.65,0.61 -0.55,0.55 -0.46,0.48 -0.35,0.44 -0.24,0.39 -0.13,0.38 Z" fill="#1d1d1d" stroke="#1d1d1d" stroke-width="2.11" stroke-dasharray="none" stroke-dashoffset="none" stroke-linecap="round" stroke-linejoin="round" pointer-events="stroke"/><path d="M 67.35,-7.77239331182311 L 81.34,0 67.61,8.225468244288804" fill="none" stroke="#1d1d1d" stroke-width="4.23" stroke-linecap="round" stroke-linejoin="round" pointer-events="none"/></g></g><g fill="#1d1d1d" transform="translate(596.0500000000002, 240.66) rotate(0, 161.5, 29)"><text font-family="&quot;Caveat Brush&quot;" font-size="48px" text-anchor="start" alignment-baseline="central" text-align="left" y="31.20">const hello = "world"</text></g></svg>