<svg width="194" height="129" viewBox="0 0 194 129" fill="none" xmlns="http://www.w3.org/2000/svg">
<rect x="34.5" y="58.5" width="158" height="69" rx="14.5" fill="#281D1A" stroke="#281D1A" stroke-width="3"/>
<path d="M66.716 91.356C66.032 91.356 65.432 91.176 64.916 90.816C64.4 90.456 63.998 89.982 63.71 89.394C63.434 88.806 63.296 88.164 63.296 87.468C63.296 86.292 63.692 85.17 64.484 84.102C65.276 83.034 66.308 82.176 67.58 81.528L70.532 83.184C69.74 83.556 69.044 84 68.444 84.516C67.844 85.032 67.424 85.632 67.184 86.316C67.868 86.412 68.444 86.67 68.912 87.09C69.392 87.498 69.632 88.044 69.632 88.728C69.632 89.448 69.356 90.066 68.804 90.582C68.264 91.098 67.568 91.356 66.716 91.356ZM87.1094 105V94.776C87.1094 93.48 86.7974 92.502 86.1734 91.842C85.5494 91.182 84.7334 90.852 83.7254 90.852C82.8734 90.852 82.1174 91.086 81.4574 91.554C80.8094 92.022 80.2994 92.73 79.9274 93.678C79.5554 94.614 79.3694 95.784 79.3694 97.188H77.9654C77.9654 94.92 78.2474 93.036 78.8114 91.536C79.3754 90.024 80.1734 88.896 81.2054 88.152C82.2374 87.408 83.4494 87.036 84.8414 87.036C86.2814 87.036 87.4814 87.36 88.4414 88.008C89.4134 88.644 90.1394 89.544 90.6194 90.708C91.1114 91.872 91.3574 93.228 91.3574 94.776V105H87.1094ZM75.1214 105V80.304H79.3694V105H75.1214ZM104.067 105.504C102.579 105.504 101.217 105.12 99.9811 104.352C98.7451 103.584 97.7551 102.51 97.0111 101.13C96.2671 99.738 95.8951 98.112 95.8951 96.252C95.8951 94.332 96.2611 92.682 96.9931 91.302C97.7371 89.922 98.7271 88.866 99.9631 88.134C101.199 87.402 102.567 87.036 104.067 87.036C105.459 87.036 106.659 87.318 107.667 87.882C108.687 88.434 109.503 89.19 110.115 90.15C110.739 91.098 111.159 92.172 111.375 93.372C111.591 94.572 111.603 95.808 111.411 97.08H99.2791V94.776H108.405L107.577 95.316C107.613 94.752 107.583 94.182 107.487 93.606C107.403 93.03 107.235 92.502 106.983 92.022C106.731 91.542 106.371 91.158 105.903 90.87C105.447 90.57 104.859 90.42 104.139 90.42C103.275 90.42 102.543 90.636 101.943 91.068C101.343 91.5 100.887 92.088 100.575 92.832C100.263 93.576 100.107 94.416 100.107 95.352V97.044C100.107 98.028 100.251 98.898 100.539 99.654C100.839 100.41 101.277 101.004 101.853 101.436C102.441 101.868 103.179 102.084 104.067 102.084C104.895 102.084 105.591 101.892 106.155 101.508C106.719 101.124 107.079 100.548 107.235 99.78H111.519C111.339 100.908 110.913 101.904 110.241 102.768C109.581 103.62 108.723 104.292 107.667 104.784C106.611 105.264 105.411 105.504 104.067 105.504ZM116.641 105V80.304H120.889V105H116.641ZM127.61 105V80.304H131.858V105H127.61ZM145.454 105.504C143.858 105.504 142.412 105.162 141.116 104.478C139.832 103.794 138.812 102.774 138.056 101.418C137.3 100.05 136.922 98.34 136.922 96.288C136.922 94.2 137.3 92.472 138.056 91.104C138.812 89.736 139.832 88.716 141.116 88.044C142.412 87.372 143.858 87.036 145.454 87.036C147.026 87.036 148.448 87.372 149.72 88.044C151.004 88.716 152.024 89.736 152.78 91.104C153.536 92.472 153.914 94.2 153.914 96.288C153.914 98.34 153.536 100.05 152.78 101.418C152.024 102.774 151.004 103.794 149.72 104.478C148.448 105.162 147.026 105.504 145.454 105.504ZM145.31 101.796C146.15 101.796 146.894 101.592 147.542 101.184C148.202 100.764 148.718 100.146 149.09 99.33C149.474 98.514 149.666 97.5 149.666 96.288C149.666 94.44 149.3 93.048 148.568 92.112C147.848 91.176 146.858 90.708 145.598 90.708C144.746 90.708 143.99 90.918 143.33 91.338C142.67 91.746 142.148 92.364 141.764 93.192C141.392 94.02 141.206 95.052 141.206 96.288C141.206 98.112 141.572 99.486 142.304 100.41C143.048 101.334 144.05 101.796 145.31 101.796ZM159.617 91.356L156.665 89.7C157.457 89.316 158.159 88.866 158.771 88.35C159.383 87.834 159.797 87.24 160.013 86.568C159.305 86.46 158.717 86.196 158.249 85.776C157.793 85.344 157.565 84.792 157.565 84.12C157.565 83.364 157.847 82.746 158.411 82.266C158.987 81.774 159.689 81.528 160.517 81.528C161.225 81.528 161.825 81.708 162.317 82.068C162.821 82.428 163.205 82.902 163.469 83.49C163.733 84.078 163.865 84.72 163.865 85.416C163.865 86.604 163.469 87.726 162.677 88.782C161.897 89.826 160.877 90.684 159.617 91.356Z" fill="#F0F2F4"/>
<rect x="2" y="2" width="157" height="68" rx="14" fill="#F0F2F4" stroke="#281D1A" stroke-width="4"/>
<path d="M42.972 48.504C41.508 48.504 40.146 48.126 38.886 47.37C37.638 46.602 36.624 45.528 35.844 44.148C35.076 42.756 34.692 41.124 34.692 39.252C34.692 37.272 35.076 35.598 35.844 34.23C36.624 32.85 37.638 31.806 38.886 31.098C40.146 30.39 41.508 30.036 42.972 30.036C44.112 30.036 45.114 30.222 45.978 30.594C46.854 30.954 47.598 31.446 48.21 32.07C48.822 32.682 49.302 33.366 49.65 34.122C49.998 34.878 50.22 35.64 50.316 36.408L46.032 36.516C45.84 35.748 45.48 35.112 44.952 34.608C44.436 34.104 43.764 33.852 42.936 33.852C42.252 33.852 41.61 34.044 41.01 34.428C40.41 34.8 39.918 35.382 39.534 36.174C39.162 36.966 38.976 37.992 38.976 39.252C38.976 40.452 39.15 41.454 39.498 42.258C39.858 43.05 40.338 43.65 40.938 44.058C41.538 44.454 42.204 44.652 42.936 44.652C44.016 44.652 44.802 44.394 45.294 43.878C45.786 43.35 46.032 42.648 46.032 41.772H50.316C50.316 43.008 50.034 44.136 49.47 45.156C48.906 46.176 48.078 46.992 46.986 47.604C45.894 48.204 44.556 48.504 42.972 48.504ZM62.2787 48.504C60.6827 48.504 59.2367 48.162 57.9407 47.478C56.6567 46.794 55.6367 45.774 54.8807 44.418C54.1247 43.05 53.7467 41.34 53.7467 39.288C53.7467 37.2 54.1247 35.472 54.8807 34.104C55.6367 32.736 56.6567 31.716 57.9407 31.044C59.2367 30.372 60.6827 30.036 62.2787 30.036C63.8507 30.036 65.2727 30.372 66.5447 31.044C67.8287 31.716 68.8487 32.736 69.6047 34.104C70.3607 35.472 70.7387 37.2 70.7387 39.288C70.7387 41.34 70.3607 43.05 69.6047 44.418C68.8487 45.774 67.8287 46.794 66.5447 47.478C65.2727 48.162 63.8507 48.504 62.2787 48.504ZM62.1347 44.796C62.9747 44.796 63.7187 44.592 64.3667 44.184C65.0267 43.764 65.5427 43.146 65.9147 42.33C66.2987 41.514 66.4907 40.5 66.4907 39.288C66.4907 37.44 66.1247 36.048 65.3927 35.112C64.6727 34.176 63.6827 33.708 62.4227 33.708C61.5707 33.708 60.8147 33.918 60.1547 34.338C59.4947 34.746 58.9727 35.364 58.5887 36.192C58.2167 37.02 58.0307 38.052 58.0307 39.288C58.0307 41.112 58.3967 42.486 59.1287 43.41C59.8727 44.334 60.8747 44.796 62.1347 44.796ZM87.7813 48V37.776C87.7813 36.48 87.4693 35.502 86.8453 34.842C86.2213 34.182 85.4053 33.852 84.3973 33.852C83.5453 33.852 82.7893 34.086 82.1293 34.554C81.4813 35.022 80.9713 35.73 80.5993 36.678C80.2273 37.614 80.0413 38.784 80.0413 40.188H78.6373C78.6373 37.92 78.9193 36.036 79.4833 34.536C80.0473 33.024 80.8453 31.896 81.8773 31.152C82.9093 30.408 84.1213 30.036 85.5133 30.036C86.9533 30.036 88.1533 30.36 89.1133 31.008C90.0853 31.644 90.8113 32.544 91.2913 33.708C91.7833 34.872 92.0293 36.228 92.0293 37.776V48H87.7813ZM75.7933 48V30.54H79.5013L80.0413 33.996V48H75.7933ZM104.739 48.504C103.059 48.504 101.613 48.276 100.401 47.82C99.201 47.352 98.277 46.686 97.629 45.822C96.981 44.946 96.651 43.896 96.639 42.672H100.563C100.599 43.536 100.941 44.166 101.589 44.562C102.237 44.958 103.119 45.156 104.235 45.156C104.847 45.156 105.387 45.066 105.855 44.886C106.335 44.706 106.707 44.46 106.971 44.148C107.235 43.836 107.367 43.488 107.367 43.104C107.367 42.612 107.187 42.228 106.827 41.952C106.479 41.664 105.915 41.4 105.135 41.16L101.319 39.792C99.951 39.3 98.901 38.652 98.169 37.848C97.437 37.044 97.071 36.084 97.071 34.968C97.071 33.492 97.737 32.304 99.069 31.404C100.413 30.492 102.207 30.036 104.451 30.036C106.683 30.036 108.405 30.528 109.617 31.512C110.841 32.484 111.471 33.72 111.507 35.22H107.511C107.451 34.644 107.175 34.188 106.683 33.852C106.191 33.516 105.447 33.348 104.451 33.348C103.551 33.348 102.843 33.534 102.327 33.906C101.823 34.266 101.571 34.692 101.571 35.184C101.571 36.012 102.279 36.636 103.695 37.056L107.835 38.604C109.179 39.06 110.223 39.648 110.967 40.368C111.711 41.088 112.083 42 112.083 43.104C112.083 44.028 111.771 44.904 111.147 45.732C110.535 46.548 109.677 47.214 108.573 47.73C107.469 48.246 106.191 48.504 104.739 48.504ZM123.111 48.504C122.079 48.504 121.131 48.312 120.267 47.928C119.415 47.544 118.731 46.956 118.215 46.164C117.711 45.372 117.459 44.364 117.459 43.14V25.896H121.707V42.996C121.707 44.436 122.391 45.156 123.759 45.156C124.179 45.156 124.599 45.108 125.019 45.012C125.439 44.916 125.919 44.772 126.459 44.58L127.071 47.568C126.399 47.832 125.745 48.054 125.109 48.234C124.473 48.414 123.807 48.504 123.111 48.504ZM115.011 33.348V30.54H126.459V33.348H115.011Z" fill="black"/>
</svg>
