<svg xmlns="http://www.w3.org/2000/svg" viewBox="0 0 1287.99 179.65" width="1255.99" height="147.65" fill="transparent"><defs><style>@import url('https://fonts.googleapis.com/css2?family=Caveat+Brush&amp;family=Source+Code+Pro&amp;family=Source+Sans+Pro&amp;family=Source+Serif+Pro&amp;display=swap');</style></defs><g id="daeb7ad9-bd35-4b4d-2e83-15ff6a74a1f2_svg" class="tl-centered-g" transform="translate(107.33999999999992, 35.98) rotate(0, 102.16, 55.5)"><path d="M 203.52,77.14 Q 203.52,77.14 203.51,82.49 203.50,87.85 203.48,94.56 203.47,101.28 201.98,104.49 200.48,107.69 193.52,108.53 186.56,109.37 178.20,109.61 169.84,109.84 161.12,109.93 152.41,110.01 143.61,110.05 134.80,110.10 125.97,110.13 117.15,110.17 108.31,110.20 99.48,110.23 90.64,110.26 81.81,110.29 72.97,110.32 64.14,110.35 55.30,110.38 46.46,110.41 37.63,110.44 28.79,110.47 19.96,110.50 11.12,110.54 7.38,109.05 3.63,107.57 2.70,101.79 1.77,96.01 1.55,89.14 1.34,82.26 1.31,75.10 1.27,67.95 1.29,60.72 1.30,53.50 1.33,46.25 1.35,39.01 1.38,31.76 1.41,24.51 1.44,17.26 1.47,10.01 2.97,6.67 4.46,3.33 11.42,2.49 18.38,1.64 26.73,1.44 35.08,1.23 43.79,1.18 52.49,1.14 61.29,1.13 70.08,1.13 78.90,1.13 87.72,1.14 96.55,1.15 105.37,1.16 114.20,1.17 123.02,1.18 131.85,1.19 140.68,1.20 149.50,1.21 158.33,1.22 167.16,1.23 175.98,1.24 184.81,1.25 193.64,1.26 197.38,2.75 201.12,4.24 202.06,9.98 203.00,15.71 203.23,22.53 203.46,29.35 203.51,36.44 203.55,43.53 203.55,50.70 203.55,57.86 203.54,65.04 203.53,72.22 203.51,81.87" fill="#d9dff7" pointer-events="none"/><path d="M 204.80,77.14 Q 204.80,77.14 204.88,82.49 204.96,87.85 205.03,94.60 205.11,101.35 203.24,105.09 201.37,108.83 194.05,109.86 186.74,110.89 178.31,111.07 169.88,111.26 161.15,111.28 152.42,111.31 143.61,111.29 134.81,111.28 125.98,111.25 117.15,111.23 108.32,111.26 99.48,111.29 90.65,111.38 81.81,111.47 72.98,111.56 64.14,111.65 55.30,111.74 46.47,111.83 37.63,111.92 28.80,112.01 19.94,112.09 11.08,112.18 6.81,110.33 2.53,108.48 1.43,102.36 0.32,96.24 0.19,89.27 0.06,82.30 0.12,75.13 0.18,67.95 0.19,60.72 0.21,53.49 0.14,46.25 0.07,39.00 0.01,31.75 -0.04,24.50 -0.10,17.22 -0.16,9.94 1.71,6.07 3.59,2.19 10.89,1.16 18.20,0.12 26.62,-0.02 35.05,-0.18 43.77,-0.16 52.48,-0.15 61.28,-0.09 70.08,-0.04 78.90,0.02 87.72,0.08 96.55,0.09 105.37,0.10 114.20,0.05 123.02,0.00 131.85,-0.04 140.68,-0.09 149.51,-0.14 158.33,-0.19 167.16,-0.23 175.99,-0.28 184.83,-0.33 193.68,-0.37 197.95,1.47 202.22,3.32 203.34,9.40 204.45,15.48 204.59,22.39 204.74,29.30 204.69,36.41 204.65,43.53 204.65,50.69 204.65,57.86 204.73,65.04 204.81,72.22 204.88,81.87 204.96,91.51 204.92,91.75 204.88,91.98 204.77,92.19 204.66,92.40 204.48,92.56 204.31,92.72 204.10,92.82 203.88,92.92 203.64,92.95 203.41,92.97 203.18,92.92 202.95,92.87 202.74,92.75 202.54,92.62 202.39,92.44 202.24,92.26 202.15,92.04 202.06,91.82 202.05,91.59 202.04,91.35 202.10,91.12 202.16,90.89 202.30,90.70 202.43,90.50 202.62,90.36 202.81,90.22 203.03,90.14 203.26,90.07 203.49,90.07 203.73,90.07 203.96,90.14 204.18,90.22 204.37,90.36 204.56,90.51 204.69,90.70 204.82,90.90 204.88,91.13 204.95,91.36 204.93,91.59 204.92,91.83 204.83,92.05 204.74,92.27 204.59,92.45 204.44,92.63 204.23,92.75 204.03,92.87 203.80,92.92 203.57,92.97 203.33,92.95 203.10,92.92 202.88,92.82 202.67,92.72 202.50,92.56 202.32,92.39 202.21,92.18 202.10,91.97 202.07,91.74 202.03,91.51 202.03,91.51 202.03,91.51 202.14,81.86 202.25,72.22 202.36,65.04 202.46,57.86 202.46,50.70 202.46,43.54 202.32,36.46 202.18,29.39 201.87,22.67 201.56,15.95 200.79,10.56 200.02,5.16 196.80,4.03 193.59,2.90 184.79,2.83 175.98,2.77 167.16,2.70 158.33,2.63 149.50,2.56 140.68,2.49 131.85,2.42 123.02,2.36 114.20,2.29 105.37,2.22 96.55,2.21 87.72,2.20 78.90,2.25 70.08,2.31 61.29,2.37 52.50,2.43 43.81,2.54 35.12,2.64 26.84,2.90 18.56,3.16 11.95,3.82 5.34,4.47 4.22,7.27 3.11,10.07 2.99,17.29 2.87,24.52 2.75,31.76 2.63,39.01 2.51,46.26 2.39,53.50 2.38,60.72 2.37,67.94 2.49,75.08 2.62,82.22 2.92,89.00 3.22,95.78 3.98,101.22 4.74,106.66 7.95,107.78 11.16,108.89 19.97,108.92 28.79,108.94 37.62,108.97 46.46,109.00 55.30,109.03 64.13,109.06 72.97,109.09 81.80,109.11 90.64,109.14 99.47,109.17 108.31,109.14 117.14,109.11 125.97,109.01 134.80,108.92 143.60,108.82 152.40,108.72 161.10,108.57 169.80,108.43 178.09,108.14 186.37,107.85 192.99,107.20 199.60,106.55 200.72,103.88 201.83,101.22 201.93,94.53 202.04,87.84 202.14,82.49 202.24,77.13 202.26,76.98 202.28,76.83 202.34,76.68 202.39,76.54 202.48,76.41 202.57,76.29 202.68,76.18 202.80,76.08 202.94,76.01 203.07,75.94 203.22,75.90 203.37,75.87 203.53,75.87 203.68,75.87 203.83,75.90 203.98,75.94 204.12,76.01 204.25,76.09 204.37,76.19 204.48,76.29 204.57,76.42 204.66,76.54 204.71,76.69 204.77,76.83 204.78,76.99 Z" fill="#4263eb" stroke="#4263eb" stroke-width="2" pointer-events="none" opacity="1"/></g><g fill="#4263eb" transform="translate(125.83999999999992, 63.64) rotate(0, 79.5, 29)"><text font-family="&quot;Caveat Brush&quot;" font-size="48px" text-anchor="middle" alignment-baseline="central" text-align="center" y="31.20" x="79.5">Tokenizer</text></g><g id="5370457f-42da-4245-2f0c-5b335308ff7c_svg" class="tl-centered-g" transform="translate(394.51999999999975, 34.15) rotate(0, 102.16, 55.5)"><path d="M 111.41,110.36 Q 111.41,110.36 104.82,110.34 98.23,110.32 89.97,110.29 81.70,110.27 73.01,110.24 64.31,110.21 55.51,110.18 46.70,110.15 37.87,110.12 29.04,110.10 20.20,110.07 11.36,110.04 7.62,108.54 3.88,107.04 2.91,101.27 1.94,95.50 1.68,88.64 1.42,81.79 1.34,74.65 1.26,67.51 1.23,60.30 1.19,53.09 1.17,45.87 1.15,38.64 1.13,31.41 1.11,24.18 1.09,16.95 1.07,9.72 2.56,6.38 4.05,3.05 11.02,2.22 17.99,1.39 26.36,1.20 34.72,1.02 43.45,0.99 52.18,0.96 60.99,0.98 69.81,1.00 78.65,1.02 87.49,1.05 96.34,1.08 105.18,1.11 114.03,1.14 122.88,1.17 131.72,1.20 140.57,1.23 149.42,1.26 158.27,1.29 167.12,1.32 175.96,1.35 184.81,1.38 193.66,1.41 197.41,2.90 201.15,4.40 202.11,10.17 203.07,15.94 203.32,22.80 203.57,29.65 203.64,36.79 203.71,43.93 203.74,51.13 203.76,58.34 203.77,65.56 203.78,72.79 203.79,80.01 203.80,87.24 203.81,94.47 203.82,101.70 202.33,105.04 200.84,108.37 193.87,109.20 186.91,110.03 178.54,110.22 170.18,110.41 161.46,110.43 152.74,110.46 143.93,110.45 135.12,110.43 126.29,110.41 117.45,110.38 108.62,110.35 99.78,110.33 90.94,110.30 82.09,110.27 70.23,110.23" fill="#d7eddb" pointer-events="none"/><path d="M 111.40,111.42 Q 111.40,111.42 104.82,111.40 98.23,111.38 89.96,111.41 81.70,111.45 73.00,111.48 64.31,111.51 55.50,111.54 46.70,111.57 37.87,111.60 29.04,111.63 20.18,111.65 11.32,111.68 7.05,109.83 2.78,107.97 1.64,101.86 0.50,95.74 0.32,88.79 0.14,81.83 0.15,74.68 0.17,67.52 0.13,60.31 0.10,53.10 -0.00,45.87 -0.12,38.65 -0.23,31.42 -0.34,24.18 -0.45,16.92 -0.55,9.66 1.31,5.78 3.18,1.90 10.49,0.89 17.81,-0.12 26.25,-0.25 34.69,-0.39 43.43,-0.35 52.17,-0.32 60.99,-0.25 69.81,-0.17 78.65,-0.09 87.49,-0.00 96.34,0.02 105.19,0.05 114.03,0.02 122.88,-0.00 131.73,-0.03 140.58,-0.06 149.42,-0.09 158.27,-0.12 167.12,-0.15 175.97,-0.18 184.84,-0.20 193.71,-0.22 197.98,1.62 202.25,3.48 203.39,9.59 204.52,15.70 204.68,22.65 204.85,29.61 204.83,36.76 204.81,43.91 204.83,51.12 204.85,58.33 204.96,65.56 205.06,72.78 205.16,80.01 205.26,87.24 205.36,94.50 205.45,101.76 203.58,105.64 201.71,109.51 194.40,110.53 187.09,111.55 178.65,111.68 170.21,111.82 161.48,111.79 152.75,111.76 143.93,111.68 135.12,111.61 126.29,111.53 117.45,111.44 108.61,111.41 99.77,111.39 90.93,111.42 82.09,111.45 70.22,111.47 58.36,111.49 58.15,111.45 57.94,111.42 57.76,111.32 57.57,111.22 57.43,111.07 57.29,110.92 57.20,110.72 57.11,110.53 57.09,110.33 57.07,110.12 57.11,109.91 57.16,109.71 57.27,109.53 57.38,109.35 57.54,109.21 57.70,109.08 57.89,109.00 58.09,108.93 58.30,108.92 58.50,108.90 58.71,108.96 58.91,109.02 59.08,109.14 59.25,109.25 59.38,109.42 59.51,109.59 59.57,109.79 59.64,109.99 59.64,110.20 59.64,110.41 59.57,110.60 59.50,110.80 59.38,110.97 59.25,111.14 59.07,111.25 58.90,111.37 58.70,111.42 58.50,111.48 58.29,111.47 58.08,111.46 57.88,111.38 57.69,111.30 57.53,111.16 57.37,111.03 57.26,110.85 57.16,110.67 57.11,110.46 57.07,110.26 57.09,110.05 57.11,109.84 57.20,109.65 57.29,109.46 57.44,109.31 57.58,109.16 57.77,109.06 57.95,108.96 58.16,108.93 58.36,108.90 58.36,108.90 58.36,108.90 70.23,108.99 82.10,109.09 90.94,109.18 99.78,109.27 108.62,109.29 117.46,109.32 126.29,109.29 135.12,109.26 143.93,109.21 152.74,109.17 161.44,109.08 170.15,108.99 178.44,108.75 186.73,108.51 193.35,107.87 199.97,107.23 201.07,104.44 202.18,101.65 202.26,94.45 202.34,87.25 202.42,80.02 202.50,72.79 202.59,65.56 202.67,58.34 202.64,51.14 202.62,43.94 202.46,36.82 202.30,29.70 201.96,22.94 201.63,16.18 200.84,10.75 200.05,5.33 196.83,4.19 193.61,3.05 184.78,2.96 175.96,2.88 167.11,2.79 158.26,2.70 149.42,2.61 140.57,2.52 131.72,2.43 122.87,2.34 114.03,2.25 105.18,2.17 96.33,2.14 87.49,2.11 78.65,2.14 69.81,2.17 60.99,2.22 52.18,2.26 43.47,2.34 34.76,2.43 26.46,2.67 18.17,2.91 11.54,3.55 4.91,4.19 3.81,6.98 2.71,9.77 2.64,16.97 2.58,24.18 2.50,31.41 2.43,38.64 2.36,45.86 2.29,53.09 2.32,60.29 2.35,67.50 2.52,74.62 2.70,81.74 3.04,88.50 3.38,95.26 4.18,100.69 4.98,106.12 8.19,107.26 11.41,108.40 20.23,108.48 29.05,108.56 37.88,108.65 46.71,108.74 55.51,108.83 64.32,108.92 73.01,109.00 81.71,109.09 89.97,109.18 98.24,109.26 104.82,109.28 111.41,109.31 111.54,109.32 111.66,109.34 111.78,109.38 111.90,109.43 112.01,109.50 112.11,109.57 112.20,109.67 112.28,109.77 112.34,109.88 112.40,109.99 112.43,110.12 112.46,110.24 112.46,110.37 112.46,110.50 112.43,110.62 112.40,110.74 112.34,110.86 112.28,110.97 112.19,111.06 112.11,111.16 112.00,111.23 111.90,111.30 111.78,111.35 111.66,111.39 111.53,111.41 Z" fill="#36b24d" stroke="#36b24d" stroke-width="2" pointer-events="none" opacity="1"/></g><g fill="#36b24d" transform="translate(437.01999999999975, 61.81) rotate(0, 55.5, 29)"><text font-family="&quot;Caveat Brush&quot;" font-size="48px" text-anchor="middle" alignment-baseline="central" text-align="center" y="31.20" x="55.5">Parser</text></g><g id="abea43d9-1906-474d-3b5a-7d2f14ef0e0e_svg" class="tl-centered-g" transform="translate(683.8499999999999, 34.81) rotate(0, 102.16, 55.5)"><path d="M 202.95,76.74 Q 202.95,76.74 202.94,82.06 202.92,87.39 202.91,94.07 202.89,100.75 201.39,103.95 199.90,107.14 192.97,107.98 186.04,108.82 177.73,109.06 169.41,109.30 160.74,109.39 152.07,109.48 143.32,109.53 134.56,109.57 125.78,109.61 117.00,109.65 108.21,109.69 99.42,109.72 90.63,109.76 81.84,109.79 73.05,109.83 64.27,109.86 55.48,109.89 46.69,109.93 37.90,109.96 29.11,110.00 20.32,110.03 11.53,110.07 7.80,108.59 4.07,107.11 3.06,101.32 2.05,95.53 1.74,88.65 1.43,81.77 1.29,74.60 1.16,67.44 1.07,60.21 0.98,52.97 0.90,45.72 0.82,38.47 0.75,31.21 0.67,23.95 0.60,16.69 0.52,9.43 1.99,6.09 3.47,2.75 10.43,1.93 17.40,1.10 25.77,0.92 34.14,0.73 42.86,0.71 51.59,0.69 60.41,0.71 69.22,0.74 78.06,0.77 86.91,0.80 95.75,0.84 104.60,0.87 113.45,0.91 122.29,0.94 131.14,0.98 139.99,1.01 148.84,1.05 157.69,1.08 166.54,1.12 175.38,1.16 184.23,1.19 193.08,1.23 196.83,2.73 200.57,4.23 201.52,9.93 202.46,15.64 202.68,22.42 202.91,29.20 202.95,36.26 203.00,43.31 202.99,50.44 202.99,57.56 202.98,64.70 202.96,71.85 202.94,81.44" fill="#d2e4f4" pointer-events="none"/><path d="M 204.23,76.74 Q 204.23,76.74 204.31,82.07 204.39,87.39 204.46,94.11 204.52,100.82 202.65,104.55 200.78,108.28 193.50,109.31 186.23,110.34 177.84,110.53 169.45,110.72 160.77,110.75 152.09,110.77 143.33,110.76 134.56,110.75 125.78,110.73 117.00,110.71 108.21,110.74 99.43,110.78 90.64,110.87 81.85,110.97 73.06,111.06 64.27,111.16 55.48,111.25 46.69,111.34 37.90,111.44 29.11,111.53 20.30,111.62 11.49,111.71 7.23,109.88 2.97,108.04 1.79,101.91 0.61,95.78 0.38,88.80 0.15,81.83 0.11,74.64 0.07,67.46 -0.01,60.22 -0.10,52.99 -0.27,45.73 -0.44,38.48 -0.61,31.22 -0.78,23.97 -0.94,16.68 -1.10,9.39 0.75,5.50 2.60,1.61 9.91,0.59 17.22,-0.41 25.66,-0.54 34.11,-0.67 42.85,-0.63 51.59,-0.59 60.41,-0.51 69.23,-0.43 78.07,-0.34 86.91,-0.25 95.76,-0.21 104.60,-0.18 113.45,-0.20 122.30,-0.23 131.15,-0.25 140.00,-0.27 148.84,-0.30 157.69,-0.32 166.54,-0.34 175.39,-0.37 184.26,-0.39 193.13,-0.40 197.40,1.44 201.68,3.30 202.79,9.35 203.90,15.40 204.04,22.28 204.19,29.16 204.14,36.23 204.09,43.31 204.09,50.43 204.08,57.56 204.16,64.71 204.24,71.85 204.31,81.44 204.38,91.04 204.34,91.27 204.30,91.50 204.19,91.71 204.08,91.92 203.90,92.08 203.73,92.25 203.52,92.35 203.30,92.45 203.07,92.47 202.83,92.50 202.60,92.44 202.37,92.39 202.17,92.27 201.96,92.15 201.81,91.97 201.66,91.78 201.57,91.56 201.48,91.34 201.47,91.11 201.46,90.87 201.52,90.64 201.59,90.41 201.72,90.22 201.85,90.02 202.04,89.88 202.23,89.74 202.46,89.66 202.68,89.59 202.92,89.59 203.15,89.59 203.38,89.67 203.60,89.74 203.79,89.89 203.98,90.03 204.11,90.23 204.24,90.42 204.31,90.65 204.37,90.88 204.36,91.12 204.34,91.35 204.25,91.57 204.17,91.79 204.01,91.97 203.86,92.15 203.66,92.27 203.45,92.39 203.22,92.45 202.99,92.50 202.75,92.47 202.52,92.44 202.30,92.34 202.09,92.24 201.92,92.08 201.75,91.92 201.64,91.71 201.52,91.50 201.49,91.26 201.45,91.03 201.45,91.03 201.45,91.03 201.57,81.44 201.68,71.84 201.79,64.70 201.90,57.56 201.90,50.44 201.90,43.32 201.77,36.28 201.63,29.25 201.32,22.56 201.01,15.88 200.24,10.51 199.47,5.15 196.25,4.01 193.03,2.87 184.20,2.78 175.38,2.69 166.53,2.59 157.68,2.50 148.83,2.40 139.99,2.31 131.14,2.21 122.29,2.12 113.44,2.02 104.59,1.93 95.75,1.89 86.90,1.86 78.06,1.89 69.22,1.91 60.41,1.95 51.59,1.99 42.88,2.07 34.17,2.15 25.87,2.39 17.58,2.62 10.95,3.26 4.33,3.90 3.24,6.69 2.16,9.48 2.15,16.71 2.14,23.94 2.12,31.19 2.10,38.45 2.09,45.71 2.07,52.96 2.16,60.19 2.25,67.42 2.48,74.57 2.71,81.71 3.10,88.50 3.50,95.28 4.33,100.73 5.16,106.17 8.36,107.30 11.57,108.43 20.34,108.45 29.10,108.47 37.89,108.49 46.68,108.52 55.47,108.54 64.26,108.56 73.05,108.59 81.84,108.61 90.63,108.64 99.42,108.66 108.20,108.63 116.99,108.59 125.77,108.49 134.55,108.40 143.31,108.29 152.06,108.18 160.72,108.04 169.37,107.89 177.61,107.60 185.86,107.30 192.44,106.65 199.01,106.00 200.13,103.34 201.25,100.69 201.36,94.03 201.46,87.38 201.57,82.06 201.67,76.73 201.69,76.58 201.71,76.43 201.77,76.28 201.82,76.14 201.91,76.01 202.00,75.89 202.11,75.78 202.23,75.68 202.36,75.61 202.50,75.54 202.65,75.50 202.80,75.47 202.95,75.47 203.11,75.47 203.26,75.50 203.41,75.54 203.54,75.61 203.68,75.69 203.80,75.79 203.91,75.89 204.00,76.02 204.08,76.15 204.14,76.29 204.19,76.43 204.21,76.59 Z" fill="#1c7ed6" stroke="#1c7ed6" stroke-width="2" pointer-events="none" opacity="1"/></g><g fill="#1c7ed6" transform="translate(700.6799999999998, 59.80) rotate(0, 84.5, 29)"><text font-family="&quot;Caveat Brush&quot;" font-size="48px" text-anchor="middle" alignment-baseline="central" text-align="center" y="31.20" x="84.5">Transform</text></g><g id="83523ca9-0551-4acc-22af-79fa76c0618b_svg" class="tl-centered-g" transform="translate(969.8499999999999, 34.14) rotate(0, 102.16, 55.5)"><path d="M 111.16,110.12 Q 111.16,110.12 104.61,110.13 98.07,110.13 89.85,110.15 81.64,110.16 73.00,110.17 64.36,110.18 55.61,110.19 46.86,110.20 38.08,110.22 29.30,110.23 20.52,110.24 11.74,110.25 8.01,108.77 4.28,107.28 3.31,101.50 2.34,95.71 2.07,88.84 1.80,81.96 1.71,74.80 1.63,67.64 1.59,60.41 1.54,53.18 1.51,45.94 1.48,38.69 1.46,31.44 1.43,24.19 1.40,16.93 1.38,9.68 2.86,6.34 4.34,3.00 11.30,2.18 18.25,1.37 26.60,1.19 34.95,1.01 43.66,1.00 52.37,0.99 61.16,1.02 69.96,1.05 78.78,1.09 87.60,1.13 96.43,1.17 105.25,1.22 114.08,1.26 122.91,1.30 131.74,1.35 140.57,1.39 149.39,1.43 158.22,1.48 167.05,1.52 175.88,1.57 184.71,1.61 193.53,1.65 197.28,3.16 201.02,4.66 201.94,10.38 202.87,16.10 203.07,22.89 203.28,29.69 203.30,36.76 203.32,43.83 203.30,50.98 203.27,58.12 203.24,65.28 203.20,72.43 203.16,79.60 203.12,86.76 203.08,93.93 203.04,101.09 201.54,104.41 200.04,107.72 193.12,108.58 186.19,109.43 177.88,109.66 169.56,109.89 160.90,109.96 152.23,110.02 143.48,110.05 134.72,110.07 125.94,110.09 117.17,110.11 108.38,110.12 99.60,110.13 90.81,110.14 82.03,110.16 70.23,110.17" fill="#fbe8d6" pointer-events="none"/><path d="M 111.16,111.18 Q 111.16,111.18 104.61,111.18 98.07,111.19 89.85,111.26 81.64,111.33 73.00,111.41 64.36,111.48 55.61,111.55 46.86,111.62 38.08,111.69 29.31,111.76 20.50,111.83 11.70,111.89 7.44,110.05 3.18,108.21 2.03,102.08 0.89,95.95 0.71,88.98 0.52,82.01 0.53,74.83 0.53,67.66 0.49,60.42 0.45,53.19 0.33,45.94 0.20,38.70 0.08,31.44 -0.03,24.19 -0.14,16.91 -0.25,9.63 1.61,5.74 3.48,1.86 10.78,0.85 18.07,-0.15 26.50,-0.27 34.92,-0.39 43.64,-0.34 52.36,-0.30 61.16,-0.21 69.96,-0.12 78.79,-0.02 87.61,0.07 96.43,0.11 105.26,0.16 114.09,0.14 122.91,0.13 131.74,0.11 140.57,0.09 149.40,0.08 158.23,0.06 167.06,0.05 175.89,0.03 184.74,0.02 193.59,0.01 197.85,1.88 202.12,3.74 203.22,9.80 204.31,15.87 204.43,22.76 204.55,29.65 204.49,36.74 204.42,43.83 204.39,50.98 204.37,58.12 204.42,65.28 204.48,72.44 204.53,79.60 204.59,86.77 204.64,93.96 204.68,101.16 202.80,105.01 200.92,108.86 193.65,109.91 186.38,110.95 177.99,111.13 169.60,111.30 160.92,111.31 152.24,111.32 143.48,111.28 134.73,111.25 125.95,111.21 117.17,111.16 108.38,111.18 99.60,111.19 90.81,111.26 82.03,111.33 70.24,111.41 58.44,111.48 58.24,111.45 58.03,111.42 57.84,111.32 57.66,111.22 57.51,111.07 57.37,110.92 57.28,110.73 57.19,110.54 57.17,110.33 57.15,110.12 57.19,109.92 57.24,109.71 57.34,109.53 57.45,109.35 57.61,109.22 57.77,109.08 57.97,109.00 58.16,108.92 58.37,108.91 58.58,108.90 58.78,108.96 58.98,109.01 59.16,109.13 59.33,109.25 59.46,109.41 59.58,109.58 59.65,109.78 59.72,109.98 59.72,110.19 59.72,110.40 59.65,110.60 59.59,110.79 59.46,110.96 59.33,111.13 59.16,111.25 58.99,111.36 58.78,111.42 58.58,111.48 58.37,111.47 58.16,111.45 57.97,111.38 57.77,111.30 57.61,111.16 57.45,111.03 57.35,110.85 57.24,110.67 57.19,110.46 57.15,110.26 57.17,110.05 57.19,109.84 57.28,109.65 57.37,109.46 57.51,109.31 57.66,109.16 57.84,109.06 58.03,108.96 58.23,108.93 58.44,108.89 58.44,108.89 58.44,108.89 70.23,108.94 82.03,108.98 90.81,109.03 99.60,109.07 108.38,109.06 117.16,109.05 125.94,108.97 134.72,108.90 143.47,108.81 152.22,108.73 160.87,108.60 169.53,108.48 177.76,108.19 186.00,107.91 192.58,107.25 199.17,106.59 200.29,103.80 201.41,101.02 201.53,93.89 201.66,86.75 201.79,79.59 201.92,72.43 202.05,65.27 202.18,58.11 202.21,50.98 202.23,43.84 202.11,36.78 202.00,29.73 201.71,23.03 201.42,16.33 200.67,10.95 199.91,5.57 196.70,4.43 193.48,3.30 184.68,3.20 175.87,3.10 167.04,2.99 158.21,2.89 149.39,2.79 140.56,2.69 131.73,2.58 122.90,2.48 114.08,2.38 105.25,2.27 96.42,2.23 87.60,2.19 78.78,2.21 69.96,2.23 61.16,2.25 52.37,2.28 43.68,2.36 34.98,2.43 26.71,2.66 18.43,2.89 11.82,3.52 5.21,4.15 4.11,6.94 3.01,9.73 2.95,16.96 2.89,24.18 2.83,31.43 2.76,38.69 2.70,45.93 2.64,53.18 2.68,60.40 2.72,67.63 2.90,74.77 3.08,81.91 3.43,88.69 3.78,95.47 4.58,100.91 5.38,106.35 8.58,107.48 11.78,108.61 20.54,108.65 29.30,108.70 38.08,108.74 46.86,108.79 55.60,108.84 64.35,108.89 72.99,108.93 81.63,108.98 89.85,109.03 98.06,109.08 104.61,109.07 111.16,109.06 111.28,109.07 111.41,109.09 111.53,109.13 111.65,109.18 111.75,109.25 111.86,109.32 111.94,109.42 112.03,109.51 112.09,109.63 112.15,109.74 112.18,109.86 112.21,109.99 112.21,110.11 112.21,110.24 112.18,110.37 112.15,110.49 112.09,110.60 112.03,110.72 111.94,110.81 111.86,110.91 111.76,110.98 111.65,111.05 111.53,111.10 111.41,111.14 111.29,111.16 Z" fill="#ff9433" stroke="#ff9433" stroke-width="2" pointer-events="none" opacity="1"/></g><g fill="#ff9433" transform="translate(995.3499999999999, 60.47) rotate(0, 76.5, 29)"><text font-family="&quot;Caveat Brush&quot;" font-size="48px" text-anchor="middle" alignment-baseline="central" text-align="center" y="31.20" x="76.5">Generate</text></g><g id="53cfb7af-13ec-4c0e-310a-7f91cae86667_svg" class="tl-centered-g" transform="translate(15.999999999999773, 15.99) rotate(0, 15.33, 15.32)"><path d="M 12.28,-0.48 Q 12.28,-0.48 14.41,-0.59 16.54,-0.70 19.07,-0.17 21.59,0.35 24.52,2.13 27.45,3.90 29.65,7.32 31.84,10.73 31.85,15.29 31.87,19.85 28.84,23.97 25.81,28.08 20.47,29.74 15.12,31.39 9.75,29.56 4.37,27.73 1.43,23.25 -1.50,18.78 -0.97,13.81 -0.44,8.85 2.71,5.36 5.88,1.88 9.91,0.59 13.95,-0.68 17.42,-0.28 20.88,0.11 23.18,1.23" stroke="none" fill="#fefefe" pointer-events="none"/><path d="M 12.28,-0.49 Q 12.28,-0.49 14.38,-1.38 16.47,-2.27 19.23,-1.83 22.00,-1.39 25.17,0.58 28.35,2.56 30.74,6.30 33.14,10.05 33.17,15.03 33.21,20.01 29.98,24.49 26.75,28.96 21.05,30.79 15.35,32.61 9.59,30.71 3.83,28.80 0.63,24.03 -2.56,19.26 -2.07,13.93 -1.57,8.59 1.74,4.82 5.07,1.04 9.35,-0.38 13.64,-1.81 17.32,-1.29 21.00,-0.77 23.25,0.78 25.49,2.33 25.48,2.34 25.48,2.34 25.48,2.35 25.48,2.35 23.12,1.68 20.76,1.00 17.51,0.71 14.26,0.43 10.47,1.57 6.68,2.72 3.68,5.91 0.68,9.10 0.11,13.70 -0.44,18.29 2.23,22.47 4.90,26.66 9.90,28.42 14.90,30.18 19.88,28.69 24.87,27.20 27.70,23.45 30.52,19.69 30.53,15.55 30.55,11.41 28.55,8.33 26.56,5.24 23.87,3.68 21.19,2.11 18.90,1.49 16.60,0.87 14.44,0.19 Z" fill="#1d1d1d" stroke="#1d1d1d" stroke-width="2" pointer-events="none" stroke-linecap="round" stroke-linejoin="round" opacity="1"/></g><g id="37747d15-fbf6-4bae-08b9-139f940f3b6f_svg" class="tl-centered-g" transform="translate(38.159999999999854, 57.45) rotate(0, 24.75, 18.44)"><g pointer-events="none" opacity="1"><path d="M 0.75,-4.02 Q 0.75,-4.02 1.79,-1.27 2.82,1.47 4.36,5.00 5.90,8.53 9.57,13.72 13.25,18.90 20.10,24.09 26.95,29.28 32.85,31.39 38.76,33.50 42.50,34.02 46.25,34.55 48.99,34.56 51.73,34.58 52.09,34.63 52.45,34.68 52.77,34.85 53.10,35.01 53.36,35.27 53.61,35.53 53.77,35.85 53.93,36.18 53.98,36.54 54.03,36.90 53.96,37.26 53.89,37.62 53.71,37.93 53.53,38.25 53.25,38.49 52.98,38.73 52.65,38.87 52.31,39.02 51.95,39.04 51.59,39.07 51.23,38.98 50.88,38.89 50.57,38.70 50.27,38.50 50.04,38.21 49.82,37.93 49.69,37.59 49.57,37.24 49.56,36.88 49.55,36.52 49.66,36.17 49.77,35.82 49.98,35.53 50.20,35.23 50.49,35.02 50.79,34.81 51.14,34.70 51.49,34.60 51.85,34.61 52.21,34.62 52.55,34.75 52.90,34.88 53.18,35.11 53.46,35.34 53.66,35.64 53.85,35.95 53.94,36.30 54.02,36.66 53.99,37.02 53.96,37.38 53.81,37.72 53.67,38.05 53.42,38.32 53.18,38.59 52.86,38.77 52.54,38.95 52.19,39.01 51.83,39.08 51.83,39.08 51.83,39.08 48.72,39.04 45.60,39.00 41.42,38.37 37.23,37.73 30.75,35.31 24.26,32.89 16.94,27.21 9.62,21.53 5.70,15.93 1.77,10.34 0.13,6.51 -1.50,2.68 -2.04,-0.20 -2.57,-3.09 -2.60,-3.30 -2.63,-3.50 -2.61,-3.71 -2.59,-3.92 -2.53,-4.12 -2.46,-4.31 -2.34,-4.49 -2.23,-4.66 -2.08,-4.80 -1.93,-4.95 -1.75,-5.05 -1.57,-5.15 -1.36,-5.21 -1.16,-5.26 -0.96,-5.27 -0.75,-5.28 -0.54,-5.23 -0.34,-5.19 -0.15,-5.10 0.02,-5.01 0.18,-4.87 0.34,-4.74 0.47,-4.57 0.59,-4.40 0.67,-4.21 Z" fill="#1d1d1d" stroke="#1d1d1d" stroke-width="0" stroke-dasharray="none" stroke-dashoffset="none" stroke-linecap="round" stroke-linejoin="round" pointer-events="none"/><path d="M 39.50,28.45096333081074 L 53.18,36.75 39.15,44.44718976396966" fill="none" stroke="#1d1d1d" stroke-width="4.23" stroke-linecap="round" stroke-linejoin="round" pointer-events="none"/></g></g><g id="ebcc492c-be2a-4583-36cf-fe2a8ab4c7e5_svg" class="tl-centered-g" transform="translate(322.66999999999985, 88.99) rotate(0, 27.92, 2.83)"><g pointer-events="none" opacity="1"><path d="M -0.09,4.70 Q -0.09,4.70 6.63,4.06 13.37,3.41 20.11,2.75 26.84,2.09 33.58,1.43 40.31,0.77 47.04,0.10 53.78,-0.56 53.90,-0.55 54.03,-0.55 54.14,-0.50 54.26,-0.45 54.35,-0.37 54.45,-0.29 54.51,-0.18 54.57,-0.07 54.60,0.04 54.63,0.16 54.61,0.28 54.60,0.41 54.54,0.52 54.49,0.63 54.40,0.72 54.32,0.81 54.21,0.87 54.10,0.93 53.97,0.95 53.85,0.97 53.73,0.95 53.60,0.93 53.49,0.87 53.38,0.81 53.30,0.72 53.21,0.62 53.16,0.51 53.11,0.40 53.10,0.27 53.09,0.15 53.11,0.03 53.14,-0.08 53.21,-0.19 53.27,-0.30 53.37,-0.38 53.46,-0.46 53.58,-0.50 53.70,-0.55 53.82,-0.55 53.94,-0.56 54.06,-0.53 54.18,-0.49 54.29,-0.42 54.39,-0.35 54.46,-0.25 54.54,-0.15 54.58,-0.03 54.62,0.08 54.62,0.20 54.62,0.33 54.57,0.45 54.53,0.56 54.46,0.66 54.38,0.76 54.28,0.83 54.17,0.90 54.05,0.93 53.93,0.96 53.93,0.96 53.93,0.96 47.20,1.66 40.47,2.36 33.74,3.06 27.01,3.76 20.28,4.47 13.55,5.17 6.82,5.89 0.09,6.61 -0.01,6.60 -0.13,6.60 -0.24,6.57 -0.35,6.54 -0.45,6.49 -0.55,6.43 -0.64,6.35 -0.72,6.28 -0.79,6.18 -0.85,6.08 -0.89,5.97 -0.93,5.87 -0.94,5.75 -0.95,5.64 -0.94,5.52 -0.92,5.41 -0.88,5.30 -0.83,5.19 -0.77,5.10 -0.70,5.01 -0.61,4.93 -0.52,4.86 -0.42,4.81 -0.32,4.75 -0.20,4.73 Z" fill="#1d1d1d" stroke="#1d1d1d" stroke-width="2.11" stroke-dasharray="none" stroke-dashoffset="none" stroke-linecap="round" stroke-linejoin="round" pointer-events="stroke"/><path d="M 41.25,-6.562140070373248 L 55.85,0 42.87,9.356324406414114" fill="none" stroke="#1d1d1d" stroke-width="4.23" stroke-linecap="round" stroke-linejoin="round" pointer-events="none"/></g></g><g id="ebeb1710-0804-41ee-2984-919ec563400c_svg" class="tl-centered-g" transform="translate(610.6699999999998, 85.31) rotate(0, 28.59, 2.61)"><g pointer-events="none" opacity="1"><path d="M 0.08,-0.91 Q 0.08,-0.91 6.97,-0.25 13.87,0.41 20.77,1.07 27.66,1.72 34.56,2.37 41.45,3.02 48.35,3.67 55.25,4.31 55.36,4.34 55.48,4.37 55.57,4.44 55.67,4.50 55.74,4.59 55.82,4.68 55.86,4.79 55.89,4.90 55.90,5.02 55.90,5.14 55.86,5.25 55.83,5.36 55.76,5.46 55.69,5.55 55.59,5.62 55.50,5.68 55.39,5.72 55.27,5.75 55.16,5.75 55.04,5.74 54.93,5.70 54.82,5.66 54.73,5.58 54.64,5.51 54.58,5.41 54.52,5.31 54.49,5.20 54.46,5.08 54.47,4.97 54.48,4.85 54.53,4.74 54.58,4.64 54.66,4.55 54.74,4.47 54.84,4.41 54.94,4.35 55.06,4.33 55.17,4.31 55.29,4.33 55.40,4.34 55.51,4.40 55.61,4.45 55.69,4.53 55.77,4.62 55.83,4.72 55.88,4.83 55.89,4.94 55.91,5.06 55.88,5.17 55.86,5.29 55.80,5.39 55.74,5.49 55.65,5.57 55.57,5.65 55.46,5.69 55.35,5.74 55.23,5.74 55.12,5.75 55.12,5.75 55.12,5.75 48.22,5.14 41.32,4.52 34.42,3.91 27.52,3.30 20.62,2.70 13.71,2.10 6.81,1.51 -0.08,0.91 -0.19,0.89 -0.30,0.87 -0.40,0.82 -0.50,0.77 -0.58,0.70 -0.67,0.63 -0.73,0.54 -0.80,0.45 -0.84,0.34 -0.88,0.24 -0.90,0.13 -0.92,0.02 -0.91,-0.08 -0.90,-0.19 -0.86,-0.29 -0.82,-0.40 -0.76,-0.49 -0.70,-0.59 -0.62,-0.66 -0.54,-0.74 -0.44,-0.79 -0.35,-0.85 -0.24,-0.88 -0.13,-0.91 -0.02,-0.91 Z" fill="#1d1d1d" stroke="#1d1d1d" stroke-width="2.11" stroke-dasharray="none" stroke-dashoffset="none" stroke-linecap="round" stroke-linejoin="round" pointer-events="stroke"/><path d="M 44.10,-4.00659313478931 L 57.18,5.22 42.65,11.927148845388096" fill="none" stroke="#1d1d1d" stroke-width="4.23" stroke-linecap="round" stroke-linejoin="round" pointer-events="none"/></g></g><g id="cf60381c-a099-47e2-3404-4fa02dfd3287_svg" class="tl-centered-g" transform="translate(900.6699999999998, 88.92) rotate(0, 26.59, 3.86)"><g pointer-events="none" opacity="1"><path d="M -0.14,6.71 Q -0.14,6.71 6.25,5.81 12.66,4.91 19.06,4.00 25.46,3.09 31.87,2.18 38.27,1.26 44.67,0.35 51.07,-0.56 51.21,-0.56 51.35,-0.56 51.48,-0.51 51.61,-0.46 51.72,-0.38 51.83,-0.29 51.91,-0.17 51.99,-0.06 52.02,0.07 52.06,0.20 52.05,0.34 52.04,0.48 51.98,0.61 51.93,0.74 51.84,0.85 51.74,0.95 51.62,1.02 51.50,1.09 51.36,1.12 51.23,1.15 51.09,1.13 50.95,1.11 50.82,1.05 50.70,0.99 50.60,0.89 50.50,0.79 50.44,0.67 50.37,0.54 50.35,0.41 50.33,0.27 50.36,0.13 50.38,-0.00 50.45,-0.12 50.52,-0.24 50.62,-0.34 50.72,-0.43 50.85,-0.49 50.98,-0.54 51.12,-0.56 51.26,-0.57 51.39,-0.54 51.53,-0.50 51.65,-0.43 51.77,-0.36 51.86,-0.25 51.94,-0.14 51.99,-0.01 52.04,0.11 52.05,0.25 52.05,0.39 52.01,0.53 51.97,0.66 51.89,0.77 51.81,0.89 51.70,0.97 51.59,1.05 51.45,1.10 51.32,1.14 51.32,1.14 51.32,1.14 44.92,2.08 38.52,3.02 32.13,3.97 25.73,4.91 19.33,5.87 12.93,6.82 6.54,7.78 0.14,8.74 0.02,8.74 -0.09,8.74 -0.21,8.72 -0.34,8.69 -0.45,8.64 -0.56,8.58 -0.65,8.50 -0.75,8.42 -0.82,8.32 -0.89,8.22 -0.94,8.11 -0.98,7.99 -1.00,7.87 -1.02,7.75 -1.01,7.63 -0.99,7.50 -0.95,7.39 -0.91,7.27 -0.84,7.17 -0.78,7.06 -0.69,6.98 -0.60,6.90 -0.49,6.84 -0.38,6.78 -0.26,6.74 Z" fill="#1d1d1d" stroke="#1d1d1d" stroke-width="2.11" stroke-dasharray="none" stroke-dashoffset="none" stroke-linecap="round" stroke-linejoin="round" pointer-events="stroke"/><path d="M 38.31,-5.923645674832271 L 53.18,0 40.61,9.909960894424636" fill="none" stroke="#1d1d1d" stroke-width="4.23" stroke-linecap="round" stroke-linejoin="round" pointer-events="none"/></g></g><g id="958e9cb2-e48d-48e8-20e9-80b2af8573b5_svg" class="tl-centered-g" transform="translate(1241.3399999999997, 132.99) rotate(0, 15.33, 15.32)"><path d="M 18.00,0.10 Q 18.00,0.10 21.37,1.91 24.74,3.71 26.44,6.14 28.13,8.57 28.84,12.22 29.54,15.87 28.33,19.94 27.11,24.01 23.74,26.91 20.37,29.82 15.85,30.01 11.33,30.20 7.58,27.32 3.82,24.44 2.46,19.74 1.10,15.04 2.47,10.61 3.84,6.17 6.95,3.55 10.05,0.93 13.45,0.42 16.84,-0.07 19.51,0.83 22.19,1.75 23.84,3.12" stroke="none" fill="#fefefe" pointer-events="none"/><path d="M 18.01,0.10 Q 18.01,0.10 21.79,1.20 25.58,2.31 27.49,5.03 29.40,7.75 30.17,11.71 30.93,15.68 29.63,20.09 28.33,24.49 24.69,27.68 21.04,30.86 16.12,31.12 11.20,31.39 7.09,28.34 2.99,25.28 1.47,20.27 -0.04,15.26 1.36,10.50 2.77,5.73 6.08,2.86 9.38,-0.00 13.06,-0.61 16.73,-1.22 19.62,-0.15 22.50,0.90 24.00,2.69 25.50,4.48 25.50,4.49 25.50,4.49 25.49,4.49 25.49,4.50 23.68,3.55 21.87,2.60 19.41,1.83 16.95,1.06 13.84,1.46 10.72,1.87 7.82,4.24 4.92,6.61 3.59,10.72 2.25,14.82 3.45,19.21 4.64,23.59 8.06,26.30 11.47,29.01 15.58,28.89 19.70,28.77 22.79,26.15 25.89,23.52 27.02,19.79 28.15,16.07 27.51,12.73 26.86,9.39 25.38,7.25 23.90,5.11 20.95,2.61 Z" fill="#1d1d1d" stroke="#1d1d1d" stroke-width="2" pointer-events="none" stroke-linecap="round" stroke-linejoin="round" opacity="1"/></g><g id="7977c2c6-df9c-4aba-2126-a36a8a1b2727_svg" class="tl-centered-g" transform="translate(1188.92, 83.42) rotate(0, 30.72, 18.80)"><g pointer-events="none" opacity="1"><path d="M -4.51,-0.44 Q -4.51,-0.44 -1.75,-1.16 1.00,-1.89 4.49,-2.06 7.98,-2.24 12.50,-1.86 17.03,-1.49 22.17,-0.18 27.30,1.11 32.47,3.49 37.63,5.88 42.25,9.21 46.87,12.54 50.54,16.38 54.21,20.22 56.78,24.01 59.34,27.80 60.91,30.95 62.47,34.10 63.51,36.92 64.54,39.75 64.59,40.11 64.65,40.47 64.58,40.83 64.52,41.19 64.34,41.51 64.17,41.82 63.90,42.07 63.63,42.32 63.30,42.47 62.97,42.61 62.61,42.65 62.24,42.68 61.89,42.60 61.54,42.52 61.23,42.33 60.92,42.13 60.69,41.85 60.45,41.57 60.32,41.23 60.19,40.89 60.18,40.53 60.16,40.16 60.27,39.82 60.37,39.47 60.58,39.17 60.79,38.87 61.08,38.65 61.37,38.44 61.72,38.32 62.06,38.21 62.43,38.22 62.79,38.22 63.13,38.34 63.48,38.47 63.77,38.69 64.05,38.91 64.25,39.22 64.45,39.52 64.54,39.87 64.64,40.23 64.61,40.59 64.59,40.95 64.45,41.29 64.31,41.63 64.07,41.90 63.83,42.17 63.52,42.36 63.20,42.54 62.84,42.61 62.49,42.69 62.13,42.64 61.77,42.60 61.44,42.44 61.11,42.28 60.85,42.03 60.59,41.78 60.42,41.45 60.26,41.13 60.26,41.13 60.26,41.13 59.35,38.61 58.44,36.09 57.02,33.20 55.61,30.31 53.27,26.81 50.94,23.31 47.58,19.74 44.22,16.17 39.97,13.06 35.72,9.95 30.94,7.71 26.17,5.46 21.40,4.22 16.64,2.99 12.42,2.61 8.19,2.24 4.95,2.39 1.71,2.55 -1.13,2.72 -3.98,2.90 -4.18,2.91 -4.38,2.92 -4.59,2.87 -4.79,2.83 -4.97,2.75 -5.15,2.66 -5.31,2.53 -5.47,2.40 -5.59,2.23 -5.72,2.07 -5.80,1.88 -5.88,1.69 -5.91,1.49 -5.94,1.29 -5.92,1.09 -5.91,0.88 -5.84,0.69 -5.78,0.49 -5.67,0.32 -5.56,0.15 -5.41,0.01 -5.26,-0.12 -5.08,-0.23 -4.91,-0.33 -4.71,-0.38 Z" fill="#1d1d1d" stroke="#1d1d1d" stroke-width="0" stroke-dasharray="none" stroke-dashoffset="none" stroke-linecap="round" stroke-linejoin="round" pointer-events="none"/><path d="M 65.34,25.927263689766892 L 62.78,41.72 50.38,31.600546179286283" fill="none" stroke="#1d1d1d" stroke-width="4.23" stroke-linecap="round" stroke-linejoin="round" pointer-events="none"/></g></g></svg>