<svg xmlns="http://www.w3.org/2000/svg" viewBox="0 0 766.17 367.34" width="734.17" height="335.34" fill="transparent"><defs><style>@import url('https://fonts.googleapis.com/css2?family=Caveat+Brush&amp;family=Source+Code+Pro&amp;family=Source+Sans+Pro&amp;family=Crimson+Pro&amp;display=block');</style></defs><g transform="translate(83.90000000000009, 86.42) rotate(0, 65.38, 38.72)"><g id="258e4822-4e05-458d-172b-d538d3f4e879_svg" class="tl-centered-g"><path d="M 91.37,0.30 Q 91.37,0.30 97.84,0.30 104.31,0.30 112.43,0.29 120.55,0.29 124.11,1.77 127.68,3.26 128.60,7.28 129.52,11.30 129.76,15.96 130.01,20.62 130.08,25.44 130.16,30.27 130.19,35.13 130.22,40.00 130.24,44.88 130.26,49.75 130.27,54.64 130.29,59.52 130.30,64.40 130.32,69.28 128.83,72.01 127.35,74.75 120.48,75.47 113.61,76.19 105.37,76.40 97.13,76.60 88.54,76.68 79.95,76.76 71.26,76.80 62.58,76.84 53.88,76.88 45.18,76.91 36.47,76.94 27.76,76.98 19.05,77.01 10.34,77.04 6.63,75.56 2.91,74.08 1.97,70.04 1.04,66.01 0.80,61.32 0.57,56.64 0.52,51.79 0.47,46.94 0.46,42.05 0.46,37.15 0.46,32.25 0.47,27.35 0.48,22.44 0.48,17.53 0.49,12.63 0.50,7.72 2.00,4.98 3.49,2.24 10.34,1.53 17.19,0.83 25.41,0.65 33.63,0.46 42.19,0.41 50.76,0.36 59.42,0.34 68.07,0.33 76.75,0.32 85.43,0.31 97.09,0.30" fill="#f1f2f3" pointer-events="none"/><path d="M 91.37,-0.96 Q 91.37,-0.96 97.84,-1.06 104.31,-1.16 112.46,-1.25 120.60,-1.34 124.66,0.43 128.72,2.22 129.83,6.60 130.94,10.97 131.11,15.76 131.28,20.55 131.27,25.40 131.25,30.25 131.28,35.12 131.31,39.99 131.42,44.87 131.53,49.75 131.64,54.63 131.75,59.51 131.85,64.44 131.95,69.37 130.10,72.64 128.24,75.90 121.00,76.77 113.76,77.64 105.46,77.76 97.16,77.88 88.56,77.87 79.95,77.85 71.27,77.89 62.59,77.94 53.89,78.06 45.18,78.19 36.47,78.32 27.76,78.44 19.03,78.56 10.30,78.68 6.09,76.90 1.88,75.11 0.74,70.73 -0.38,66.34 -0.54,61.52 -0.70,56.70 -0.66,51.83 -0.62,46.95 -0.62,42.05 -0.63,37.15 -0.71,32.25 -0.80,27.34 -0.89,22.44 -0.97,17.53 -1.04,12.58 -1.11,7.62 0.74,4.35 2.60,1.08 9.82,0.22 17.04,-0.62 25.32,-0.71 33.60,-0.81 42.18,-0.76 50.76,-0.72 59.41,-0.74 68.07,-0.76 76.75,-0.86 85.43,-0.96 97.08,-1.06 108.74,-1.16 108.97,-1.12 109.21,-1.08 109.42,-0.97 109.63,-0.86 109.79,-0.69 109.95,-0.52 110.05,-0.30 110.15,-0.09 110.18,0.14 110.20,0.37 110.15,0.60 110.10,0.83 109.98,1.04 109.86,1.24 109.68,1.39 109.50,1.55 109.28,1.64 109.06,1.72 108.82,1.74 108.58,1.75 108.36,1.69 108.13,1.62 107.93,1.49 107.74,1.36 107.59,1.17 107.45,0.98 107.37,0.76 107.30,0.53 107.30,0.29 107.30,0.06 107.37,-0.16 107.45,-0.38 107.59,-0.57 107.73,-0.76 107.93,-0.89 108.13,-1.03 108.35,-1.09 108.58,-1.15 108.82,-1.14 109.06,-1.13 109.28,-1.04 109.50,-0.95 109.68,-0.80 109.86,-0.65 109.98,-0.44 110.10,-0.24 110.15,-0.01 110.20,0.21 110.18,0.45 110.15,0.68 110.05,0.90 109.95,1.11 109.79,1.29 109.63,1.46 109.42,1.57 109.21,1.68 108.98,1.72 108.74,1.76 108.74,1.76 108.74,1.76 97.09,1.67 85.43,1.59 76.75,1.50 68.07,1.42 59.42,1.44 50.77,1.45 42.21,1.60 33.66,1.74 25.50,2.01 17.34,2.29 10.86,2.84 4.38,3.40 3.26,5.61 2.13,7.82 2.04,12.68 1.95,17.54 1.85,22.44 1.75,27.35 1.65,32.25 1.55,37.15 1.55,42.04 1.56,46.93 1.70,51.75 1.85,56.58 2.16,61.13 2.46,65.68 3.21,69.36 3.95,73.04 7.16,74.22 10.38,75.40 19.06,75.46 27.75,75.51 36.46,75.57 45.17,75.63 53.87,75.69 62.58,75.75 71.26,75.71 79.94,75.66 88.52,75.49 97.10,75.33 105.28,75.03 113.46,74.73 119.96,74.16 126.45,73.59 127.57,71.39 128.70,69.19 128.76,64.35 128.82,59.52 128.90,54.64 128.98,49.76 129.05,44.88 129.12,40.01 129.09,35.14 129.06,30.28 128.90,25.48 128.73,20.68 128.41,16.15 128.09,11.62 127.36,7.96 126.63,4.30 123.57,3.11 120.51,1.93 112.41,1.84 104.31,1.76 97.84,1.67 91.37,1.58 91.22,1.56 91.06,1.55 90.92,1.49 90.78,1.44 90.65,1.35 90.52,1.26 90.42,1.15 90.32,1.03 90.25,0.89 90.17,0.76 90.14,0.61 90.10,0.46 90.10,0.30 90.10,0.15 90.14,0.00 90.17,-0.14 90.25,-0.28 90.32,-0.41 90.42,-0.53 90.52,-0.64 90.65,-0.73 90.77,-0.82 90.92,-0.87 91.06,-0.93 91.22,-0.95 Z" fill="#c6cbd1" stroke="#c6cbd1" stroke-width="2" pointer-events="none"/></g><g font-size="28" font-family="Caveat Brush" text-align="left" fill="#c6cbd1" transform-origin="top left" transform="translate(22.385000000000005, 19.72)"><text y="18.2">function</text></g></g><g transform="translate(229.6400000000001, 86.42) rotate(0, 45.83, 38.72)"><g id="f96f6760-a65a-4d00-0e3d-f688bf3af5ce_svg" class="tl-centered-g"><path d="M 91.04,53.25 Q 91.04,53.25 91.08,56.88 91.11,60.51 91.16,65.06 91.21,69.61 89.73,72.27 88.25,74.92 83.50,75.60 78.74,76.28 73.16,76.46 67.57,76.63 61.77,76.68 55.97,76.73 50.11,76.75 44.26,76.77 38.39,76.78 32.52,76.79 26.65,76.79 20.78,76.80 14.91,76.81 9.03,76.81 6.04,75.32 3.06,73.83 2.27,69.85 1.49,65.87 1.26,61.25 1.04,56.63 0.96,51.85 0.88,47.07 0.84,42.25 0.79,37.43 0.76,32.60 0.73,27.77 0.69,22.93 0.66,18.10 0.63,13.26 0.60,8.43 2.08,5.70 3.56,2.98 8.30,2.26 13.04,1.53 18.61,1.31 24.18,1.10 29.97,1.01 35.75,0.92 41.59,0.87 47.42,0.82 53.27,0.77 59.12,0.73 64.98,0.69 70.83,0.64 76.68,0.60 82.54,0.56 85.52,2.04 88.50,3.52 89.30,7.52 90.10,11.53 90.34,16.18 90.58,20.83 90.68,25.65 90.78,30.46 90.84,35.32 90.90,40.18 90.95,45.05 91.00,49.91 91.07,56.45" fill="#f1f2f3" pointer-events="none"/><path d="M 92.32,53.23 Q 92.32,53.23 92.45,56.86 92.58,60.49 92.70,65.10 92.83,69.71 91.02,72.88 89.21,76.05 84.08,76.89 78.95,77.73 73.28,77.82 67.61,77.91 61.79,77.87 55.98,77.83 50.12,77.84 44.26,77.86 38.39,77.96 32.52,78.06 26.65,78.16 20.78,78.26 14.87,78.35 8.96,78.44 5.47,76.65 1.98,74.86 1.01,70.51 0.05,66.15 -0.08,61.42 -0.23,56.70 -0.21,51.89 -0.20,47.09 -0.25,42.27 -0.29,37.44 -0.42,32.61 -0.54,27.78 -0.67,22.94 -0.79,18.11 -0.90,13.22 -1.02,8.34 0.78,5.10 2.59,1.86 7.71,0.97 12.82,0.08 18.48,-0.04 24.14,-0.17 29.93,-0.16 35.73,-0.16 41.57,-0.21 47.41,-0.26 53.26,-0.40 59.11,-0.54 64.97,-0.68 70.82,-0.81 76.71,-0.94 82.61,-1.06 86.09,0.71 89.58,2.49 90.56,6.87 91.54,11.25 91.70,16.01 91.86,20.77 91.86,25.60 91.87,30.44 91.93,35.30 91.99,40.16 92.14,45.03 92.28,49.90 92.44,56.44 92.60,62.97 92.57,63.21 92.53,63.44 92.42,63.65 92.31,63.86 92.14,64.03 91.97,64.19 91.76,64.29 91.54,64.40 91.31,64.42 91.07,64.45 90.84,64.40 90.61,64.36 90.41,64.24 90.20,64.12 90.05,63.94 89.89,63.76 89.80,63.54 89.71,63.32 89.70,63.08 89.68,62.85 89.74,62.62 89.80,62.39 89.93,62.19 90.07,61.99 90.25,61.85 90.44,61.70 90.66,61.63 90.89,61.55 91.12,61.54 91.36,61.54 91.59,61.62 91.81,61.69 92.00,61.83 92.19,61.97 92.33,62.17 92.46,62.36 92.53,62.59 92.59,62.82 92.58,63.05 92.57,63.29 92.49,63.51 92.40,63.73 92.25,63.91 92.10,64.10 91.90,64.22 91.69,64.34 91.46,64.40 91.23,64.45 91.00,64.43 90.76,64.40 90.54,64.31 90.33,64.21 90.16,64.05 89.98,63.89 89.87,63.68 89.76,63.47 89.71,63.24 89.67,63.00 89.67,63.00 89.67,63.00 89.70,56.47 89.73,49.93 89.77,45.06 89.81,40.19 89.74,35.34 89.68,30.49 89.49,25.69 89.30,20.90 88.98,16.36 88.66,11.81 88.04,8.18 87.43,4.55 84.95,3.37 82.47,2.19 76.66,2.15 70.84,2.11 64.99,2.06 59.13,2.01 53.28,1.96 47.43,1.91 41.60,1.96 35.77,2.02 30.00,2.20 24.23,2.38 18.75,2.68 13.26,2.98 8.90,3.54 4.54,4.10 3.38,6.31 2.22,8.52 2.18,13.30 2.13,18.09 2.07,22.92 2.00,27.76 1.95,32.59 1.89,37.42 1.93,42.24 1.97,47.06 2.15,51.81 2.32,56.57 2.62,61.08 2.92,65.59 3.53,69.20 4.14,72.81 6.62,73.99 9.11,75.18 14.94,75.26 20.78,75.34 26.65,75.42 32.52,75.51 38.39,75.59 44.26,75.68 50.11,75.66 55.96,75.64 61.74,75.50 67.53,75.36 73.03,75.09 78.54,74.83 82.91,74.31 87.28,73.79 88.43,71.66 89.58,69.52 89.62,65.02 89.65,60.52 89.71,56.89 89.76,53.26 89.78,53.11 89.80,52.95 89.85,52.81 89.90,52.66 89.99,52.54 90.07,52.41 90.19,52.30 90.30,52.20 90.44,52.13 90.57,52.06 90.72,52.02 90.87,51.98 91.03,51.98 91.18,51.98 91.33,52.01 91.48,52.05 91.62,52.12 91.76,52.19 91.87,52.29 91.99,52.39 92.08,52.51 92.17,52.64 92.22,52.78 92.28,52.93 92.30,53.08 Z" fill="#c6cbd1" stroke="#c6cbd1" stroke-width="2" pointer-events="none"/></g><g font-size="28" font-family="Caveat Brush" text-align="left" fill="#c6cbd1" transform-origin="top left" transform="translate(19.83, 19.72)"><text y="18.2">hello</text></g></g><g transform="translate(338.08000000000015, 86.42) rotate(0, 25.82, 38.72)"><g id="2aab9f42-7476-4a26-1a29-3c8009b318ad_svg" class="tl-centered-g"><path d="M 16.73,76.07 Q 16.73,76.07 14.52,76.05 12.32,76.03 9.55,76.01 6.78,75.98 4.58,74.48 2.39,72.99 1.81,69.03 1.23,65.07 1.06,60.48 0.89,55.89 0.83,51.14 0.76,46.38 0.73,41.59 0.69,36.80 0.66,32.00 0.63,27.20 0.60,22.39 0.58,17.59 0.55,12.79 0.52,7.98 2.00,5.27 3.49,2.55 6.09,1.89 8.69,1.22 11.58,1.08 14.47,0.94 17.43,0.94 20.39,0.93 23.37,0.96 26.35,0.98 29.34,1.02 32.32,1.06 35.31,1.09 38.29,1.13 41.28,1.17 44.26,1.21 46.52,2.71 48.77,4.21 49.34,8.16 49.92,12.12 50.07,16.69 50.22,21.27 50.26,26.01 50.30,30.75 50.31,35.53 50.32,40.31 50.33,45.10 50.33,49.89 50.34,54.68 50.34,59.47 50.35,64.26 50.35,69.06 48.86,71.77 47.37,74.48 44.78,75.15 42.20,75.82 39.33,75.97 36.46,76.13 33.53,76.15 30.59,76.16 27.63,76.15 24.68,76.13 21.72,76.11 18.76,76.09 14.78,76.05" fill="#e3e5e7" pointer-events="none"/><path d="M 16.72,77.35 Q 16.72,77.35 14.51,77.42 12.30,77.50 9.46,77.54 6.61,77.58 3.92,75.79 1.23,73.99 0.50,69.63 -0.21,65.28 -0.30,60.60 -0.38,55.93 -0.35,51.17 -0.32,46.40 -0.36,41.60 -0.39,36.81 -0.51,32.01 -0.64,27.21 -0.76,22.40 -0.88,17.60 -0.99,12.74 -1.09,7.89 0.63,4.70 2.37,1.50 5.35,0.65 8.34,-0.19 11.37,-0.26 14.41,-0.32 17.40,-0.24 20.39,-0.15 23.38,-0.13 26.36,-0.10 29.35,-0.16 32.34,-0.21 35.32,-0.27 38.31,-0.32 41.37,-0.35 44.43,-0.39 47.17,1.41 49.92,3.21 50.64,7.56 51.37,11.90 51.43,16.57 51.50,21.23 51.44,25.99 51.39,30.74 51.40,35.52 51.42,40.30 51.51,45.09 51.61,49.88 51.71,54.68 51.81,59.47 51.89,64.31 51.97,69.15 50.23,72.34 48.49,75.53 45.53,76.38 42.56,77.24 39.55,77.32 36.53,77.40 33.56,77.33 30.60,77.26 27.63,77.24 24.67,77.23 21.71,77.30 18.75,77.37 14.77,77.42 10.79,77.48 10.56,77.44 10.33,77.40 10.12,77.29 9.91,77.18 9.75,77.00 9.59,76.83 9.49,76.61 9.39,76.40 9.37,76.16 9.35,75.93 9.40,75.69 9.45,75.46 9.58,75.26 9.70,75.06 9.88,74.91 10.06,74.76 10.28,74.67 10.50,74.58 10.74,74.57 10.98,74.56 11.21,74.63 11.43,74.69 11.63,74.83 11.82,74.96 11.97,75.15 12.11,75.34 12.18,75.57 12.25,75.79 12.25,76.03 12.25,76.27 12.17,76.49 12.09,76.71 11.95,76.90 11.80,77.09 11.61,77.22 11.41,77.35 11.18,77.41 10.95,77.47 10.72,77.46 10.48,77.44 10.26,77.35 10.04,77.27 9.86,77.11 9.68,76.96 9.56,76.75 9.44,76.55 9.39,76.32 9.34,76.08 9.37,75.85 9.40,75.61 9.50,75.40 9.60,75.18 9.77,75.01 9.93,74.84 10.14,74.73 10.35,74.63 10.59,74.59 10.82,74.55 10.82,74.55 10.82,74.55 14.79,74.68 18.77,74.81 21.73,74.92 24.68,75.04 27.63,75.06 30.58,75.07 33.49,74.96 36.40,74.85 39.12,74.63 41.84,74.41 44.04,73.92 46.25,73.43 47.49,71.20 48.72,68.96 48.80,64.21 48.88,59.47 48.97,54.68 49.06,49.89 49.14,45.10 49.23,40.31 49.22,35.53 49.21,30.76 49.07,26.04 48.94,21.31 48.71,16.82 48.47,12.33 48.04,8.77 47.61,5.21 45.86,4.01 44.10,2.81 41.19,2.71 38.27,2.60 35.29,2.46 32.30,2.33 29.32,2.21 26.34,2.08 23.37,2.05 20.39,2.02 17.46,2.12 14.53,2.22 11.79,2.43 9.05,2.64 6.83,3.12 4.60,3.60 3.37,5.83 2.15,8.07 2.09,12.83 2.04,17.58 1.97,22.39 1.91,27.19 1.85,31.99 1.78,36.79 1.82,41.58 1.86,46.37 2.01,51.10 2.17,55.84 2.42,60.35 2.67,64.85 3.11,68.42 3.54,71.99 5.25,73.18 6.95,74.38 9.64,74.47 12.33,74.57 14.54,74.68 16.74,74.79 16.90,74.81 17.05,74.83 17.19,74.89 17.34,74.94 17.46,75.03 17.59,75.12 17.69,75.24 17.79,75.35 17.86,75.49 17.93,75.63 17.97,75.78 18.00,75.93 18.00,76.08 18.00,76.24 17.96,76.39 17.92,76.53 17.85,76.67 17.78,76.81 17.67,76.92 17.57,77.04 17.44,77.12 17.31,77.21 17.17,77.26 17.03,77.31 16.87,77.33 Z" fill="#788492" stroke="#788492" stroke-width="2" pointer-events="none"/></g><g font-size="28" font-family="Caveat Brush" text-align="left" fill="#788492" transform-origin="top left" transform="translate(17.325, 19.72)"><text y="18.2">(</text></g></g><g transform="translate(403.4200000000001, 88.21) rotate(0, 25.82, 38.72)"><g id="1731ccc9-c75e-4f89-3c43-6fbbe77a5099_svg" class="tl-centered-g"><path d="M 17.11,76.05 Q 17.11,76.05 14.92,75.99 12.73,75.94 9.99,75.87 7.24,75.80 5.05,74.30 2.86,72.79 2.28,68.82 1.70,64.85 1.53,60.25 1.36,55.66 1.30,50.90 1.23,46.14 1.19,41.34 1.15,36.55 1.12,31.74 1.09,26.93 1.06,22.12 1.03,17.31 1.00,12.50 0.97,7.68 2.46,4.97 3.94,2.25 6.55,1.62 9.15,0.98 12.04,0.88 14.94,0.78 17.90,0.82 20.87,0.85 23.85,0.92 26.84,0.99 29.83,1.07 32.82,1.15 35.81,1.23 38.80,1.31 41.79,1.39 44.78,1.47 47.03,2.98 49.28,4.49 49.84,8.46 50.40,12.42 50.52,17.01 50.64,21.60 50.66,26.35 50.67,31.09 50.66,35.88 50.64,40.67 50.62,45.47 50.60,50.27 50.57,55.07 50.55,59.88 50.52,64.68 50.50,69.48 49.00,72.20 47.51,74.91 44.94,75.55 42.37,76.19 39.52,76.30 36.68,76.40 33.77,76.38 30.85,76.35 27.92,76.29 24.99,76.23 22.06,76.16 19.12,76.09 15.18,76.00" fill="#e3e5e7" pointer-events="none"/><path d="M 17.08,77.32 Q 17.08,77.32 14.89,77.36 12.70,77.40 9.88,77.40 7.06,77.41 4.38,75.60 1.70,73.79 0.98,69.43 0.25,65.06 0.17,60.38 0.08,55.70 0.11,50.93 0.14,46.16 0.10,41.36 0.06,36.55 -0.05,31.75 -0.18,26.94 -0.30,22.13 -0.42,17.32 -0.53,12.45 -0.64,7.59 1.09,4.39 2.84,1.19 5.83,0.38 8.81,-0.43 11.85,-0.46 14.89,-0.48 17.89,-0.36 20.88,-0.23 23.87,-0.16 26.86,-0.09 29.86,-0.10 32.85,-0.12 35.84,-0.13 38.84,-0.14 41.90,-0.13 44.96,-0.12 47.70,1.68 50.44,3.50 51.14,7.86 51.85,12.22 51.88,16.89 51.92,21.56 51.84,26.33 51.76,31.09 51.75,35.88 51.73,40.68 51.80,45.48 51.88,50.28 51.94,55.08 52.01,59.88 52.07,64.73 52.13,69.58 50.37,72.77 48.62,75.96 45.67,76.79 42.72,77.61 39.72,77.65 36.73,77.68 33.79,77.56 30.84,77.45 27.91,77.39 24.97,77.32 22.03,77.35 19.09,77.37 15.15,77.37 11.20,77.37 10.97,77.32 10.73,77.28 10.53,77.16 10.32,77.05 10.16,76.87 10.00,76.69 9.91,76.48 9.82,76.26 9.80,76.02 9.78,75.79 9.83,75.56 9.89,75.33 10.02,75.13 10.14,74.93 10.33,74.78 10.51,74.63 10.73,74.55 10.96,74.46 11.19,74.46 11.43,74.45 11.66,74.52 11.88,74.59 12.08,74.73 12.27,74.86 12.41,75.06 12.55,75.25 12.62,75.47 12.69,75.70 12.68,75.94 12.67,76.17 12.59,76.40 12.51,76.62 12.36,76.80 12.22,76.99 12.02,77.12 11.82,77.25 11.59,77.30 11.36,77.36 11.12,77.34 10.89,77.32 10.67,77.23 10.45,77.14 10.27,76.98 10.10,76.82 9.98,76.62 9.86,76.41 9.82,76.18 9.77,75.95 9.80,75.71 9.84,75.48 9.94,75.26 10.04,75.05 10.21,74.88 10.38,74.72 10.59,74.61 10.80,74.50 11.04,74.47 11.27,74.44 11.27,74.44 11.27,74.44 15.21,74.63 19.15,74.82 22.08,74.98 25.01,75.14 27.94,75.20 30.86,75.26 33.75,75.19 36.63,75.13 39.33,74.95 42.02,74.76 44.21,74.31 46.40,73.86 47.64,71.62 48.88,69.38 48.98,64.62 49.08,59.87 49.20,55.07 49.32,50.27 49.43,45.47 49.55,40.67 49.56,35.88 49.58,31.10 49.47,26.37 49.37,21.63 49.16,17.13 48.95,12.62 48.54,9.05 48.13,5.48 46.36,4.28 44.60,3.08 41.68,2.93 38.76,2.77 35.77,2.60 32.78,2.43 29.80,2.26 26.81,2.09 23.83,2.02 20.86,1.95 17.92,2.00 14.98,2.06 12.24,2.24 9.49,2.41 7.27,2.86 5.04,3.31 3.82,5.54 2.60,7.77 2.55,12.54 2.50,17.30 2.43,22.11 2.37,26.92 2.31,31.73 2.25,36.54 2.29,41.33 2.32,46.13 2.48,50.87 2.64,55.61 2.89,60.12 3.15,64.64 3.58,68.21 4.02,71.79 5.72,73.00 7.43,74.20 10.10,74.34 12.77,74.48 14.96,74.62 17.14,74.77 17.29,74.79 17.45,74.81 17.59,74.87 17.73,74.93 17.86,75.02 17.98,75.11 18.08,75.23 18.18,75.35 18.25,75.48 18.32,75.62 18.35,75.77 18.38,75.92 18.38,76.08 18.38,76.23 18.34,76.38 18.29,76.53 18.22,76.66 18.14,76.80 18.04,76.91 17.93,77.02 17.81,77.11 17.68,77.19 17.53,77.24 17.39,77.30 17.23,77.31 Z" fill="#788492" stroke="#788492" stroke-width="2" pointer-events="none"/></g><g font-size="28" font-family="Caveat Brush" text-align="left" fill="#788492" transform-origin="top left" transform="translate(17.325, 19.72)"><text y="18.2">)</text></g></g><g transform="translate(469.18000000000006, 88.21) rotate(0, 25.82, 38.72)"><g id="b3d8fe4e-65e2-46c4-1034-f6e83530da8c_svg" class="tl-centered-g"><path d="M 34.73,1.09 Q 34.73,1.09 36.90,1.05 39.06,1.01 41.78,0.96 44.50,0.92 46.68,2.39 48.86,3.87 49.43,7.85 50.00,11.83 50.16,16.45 50.31,21.07 50.37,25.85 50.42,30.63 50.44,35.45 50.47,40.28 50.48,45.11 50.50,49.94 50.52,54.78 50.53,59.62 50.55,64.45 50.57,69.29 49.08,72.01 47.59,74.74 45.02,75.43 42.45,76.13 39.60,76.31 36.75,76.49 33.83,76.54 30.91,76.59 27.97,76.61 25.03,76.62 22.09,76.63 19.15,76.64 16.20,76.64 13.26,76.65 10.31,76.65 7.37,76.66 5.13,75.17 2.89,73.68 2.33,69.73 1.78,65.79 1.65,61.21 1.53,56.64 1.51,51.90 1.50,47.17 1.51,42.39 1.53,37.62 1.55,32.83 1.57,28.05 1.59,23.26 1.61,18.47 1.63,13.68 1.66,8.89 3.15,6.18 4.65,3.47 7.19,2.74 9.74,2.01 12.56,1.78 15.37,1.56 18.25,1.46 21.14,1.37 24.04,1.30 26.94,1.24 29.84,1.18 32.75,1.13 36.65,1.06" fill="#e3e5e7" pointer-events="none"/><path d="M 34.71,-0.18 Q 34.71,-0.18 36.87,-0.31 39.04,-0.44 41.84,-0.56 44.64,-0.67 47.33,1.10 50.02,2.88 50.74,7.25 51.45,11.63 51.52,16.33 51.59,21.03 51.55,25.82 51.51,30.62 51.53,35.45 51.56,40.27 51.67,45.11 51.78,49.94 51.89,54.78 52.00,59.61 52.09,64.50 52.19,69.38 50.46,72.58 48.73,75.77 45.78,76.66 42.83,77.55 39.83,77.66 36.83,77.77 33.88,77.73 30.93,77.69 27.98,77.70 25.04,77.72 22.09,77.82 19.15,77.92 16.20,78.02 13.26,78.11 10.24,78.19 7.22,78.26 4.47,76.47 1.73,74.67 1.03,70.33 0.33,65.99 0.29,61.33 0.25,56.67 0.33,51.92 0.41,47.17 0.42,42.39 0.43,37.61 0.36,32.83 0.29,28.04 0.22,23.25 0.15,18.46 0.09,13.62 0.03,8.79 1.76,5.61 3.49,2.44 6.42,1.52 9.34,0.60 12.31,0.44 15.27,0.28 18.18,0.28 21.10,0.27 24.01,0.21 26.91,0.15 29.82,0.00 32.72,-0.14 36.62,-0.30 40.52,-0.47 40.75,-0.43 40.99,-0.40 41.20,-0.29 41.41,-0.19 41.58,-0.02 41.74,0.14 41.85,0.36 41.95,0.57 41.98,0.80 42.01,1.04 41.96,1.27 41.92,1.50 41.80,1.71 41.68,1.91 41.50,2.07 41.32,2.23 41.11,2.32 40.89,2.41 40.65,2.43 40.41,2.44 40.19,2.39 39.96,2.33 39.76,2.20 39.56,2.07 39.41,1.88 39.27,1.70 39.19,1.47 39.11,1.25 39.10,1.01 39.10,0.78 39.17,0.55 39.24,0.32 39.38,0.13 39.52,-0.05 39.71,-0.18 39.91,-0.32 40.14,-0.39 40.36,-0.46 40.60,-0.45 40.84,-0.44 41.06,-0.36 41.28,-0.27 41.46,-0.12 41.65,0.02 41.77,0.22 41.90,0.42 41.95,0.65 42.01,0.88 41.99,1.12 41.96,1.35 41.87,1.57 41.77,1.79 41.61,1.96 41.45,2.14 41.25,2.25 41.04,2.37 40.81,2.41 40.57,2.45 40.57,2.45 40.57,2.45 36.67,2.43 32.77,2.41 29.87,2.37 26.96,2.33 24.07,2.39 21.17,2.46 18.32,2.65 15.47,2.83 12.81,3.12 10.14,3.42 7.97,3.96 5.80,4.50 4.54,6.75 3.28,9.00 3.18,13.74 3.08,18.48 2.96,23.26 2.85,28.05 2.73,32.84 2.62,37.62 2.61,42.39 2.59,47.16 2.70,51.88 2.81,56.60 3.02,61.09 3.23,65.58 3.64,69.14 4.04,72.69 5.78,73.87 7.52,75.05 10.39,75.12 13.26,75.18 16.20,75.27 19.14,75.36 22.08,75.45 25.03,75.53 27.96,75.52 30.89,75.50 33.78,75.36 36.67,75.22 39.37,74.97 42.07,74.72 44.26,74.21 46.46,73.70 47.70,71.45 48.94,69.20 49.01,64.41 49.07,59.62 49.15,54.78 49.22,49.95 49.30,45.12 49.37,40.28 49.35,35.46 49.32,30.64 49.18,25.88 49.04,21.11 48.79,16.57 48.55,12.04 48.13,8.45 47.71,4.87 46.03,3.69 44.36,2.51 41.72,2.50 39.09,2.48 36.92,2.42 34.76,2.37 34.60,2.35 34.45,2.34 34.31,2.29 34.16,2.23 34.03,2.15 33.90,2.06 33.80,1.95 33.70,1.84 33.62,1.70 33.55,1.57 33.51,1.42 33.47,1.27 33.47,1.11 33.46,0.96 33.50,0.81 33.53,0.66 33.60,0.52 33.67,0.38 33.77,0.27 33.87,0.15 33.99,0.06 34.12,-0.02 34.26,-0.08 34.41,-0.13 34.56,-0.16 Z" fill="#788492" stroke="#788492" stroke-width="2" pointer-events="none"/></g><g font-size="28" font-family="Caveat Brush" text-align="left" fill="#788492" transform-origin="top left" transform="translate(17.325, 19.72)"><text y="18.2">{</text></g></g><g transform="translate(152.30000000000018, 180.14) rotate(0, 65.38, 38.72)"><g id="53f0d066-e66e-4c47-2764-ab4a3ebab099_svg" class="tl-centered-g"><path d="M 39.95,75.93 Q 39.95,75.93 33.52,75.89 27.09,75.86 19.03,75.81 10.96,75.76 7.41,74.26 3.87,72.76 2.91,68.79 1.96,64.82 1.67,60.22 1.38,55.61 1.26,50.85 1.14,46.09 1.06,41.29 0.98,36.49 0.92,31.67 0.85,26.86 0.78,22.05 0.72,17.23 0.66,12.42 0.59,7.60 2.07,4.88 3.54,2.16 10.37,1.54 17.19,0.91 25.39,0.82 33.58,0.73 42.12,0.78 50.66,0.82 59.29,0.90 67.92,0.99 76.57,1.07 85.22,1.16 93.88,1.26 102.53,1.35 111.19,1.44 119.85,1.53 123.55,3.04 127.25,4.56 128.21,8.50 129.18,12.44 129.45,17.01 129.72,21.57 129.81,26.29 129.90,31.01 129.95,35.77 130.00,40.53 130.03,45.30 130.07,50.07 130.10,54.84 130.13,59.62 130.16,64.39 130.20,69.17 128.71,71.87 127.23,74.58 120.43,75.23 113.62,75.89 105.46,76.02 97.30,76.15 88.79,76.14 80.28,76.14 71.68,76.10 63.09,76.06 54.47,76.01 45.85,75.96 34.27,75.90" fill="#f1f2f3" pointer-events="none"/><path d="M 39.94,77.21 Q 39.94,77.21 33.51,77.27 27.08,77.32 18.99,77.36 10.90,77.40 6.87,75.61 2.83,73.82 1.68,69.49 0.54,65.15 0.32,60.42 0.11,55.70 0.08,50.91 0.05,46.12 -0.02,41.31 -0.10,36.51 -0.26,31.69 -0.42,26.88 -0.58,22.07 -0.73,17.25 -0.88,12.38 -1.02,7.52 0.82,4.26 2.67,1.00 9.86,0.23 17.06,-0.53 25.31,-0.53 33.56,-0.54 42.11,-0.40 50.66,-0.26 59.30,-0.18 67.93,-0.10 76.58,-0.10 85.23,-0.10 93.89,-0.11 102.55,-0.11 111.23,-0.10 119.91,-0.10 124.09,1.69 128.28,3.50 129.44,7.80 130.60,12.10 130.80,16.80 131.00,21.49 131.00,26.24 131.00,30.99 131.04,35.75 131.09,40.52 131.22,45.29 131.35,50.06 131.47,54.84 131.60,59.61 131.71,64.43 131.82,69.26 129.97,72.50 128.11,75.75 120.94,76.55 113.76,77.34 105.54,77.38 97.32,77.42 88.80,77.33 80.28,77.23 71.68,77.19 63.08,77.15 54.46,77.20 45.84,77.24 34.26,77.27 22.68,77.30 22.45,77.26 22.22,77.22 22.01,77.10 21.80,76.99 21.64,76.82 21.48,76.65 21.38,76.43 21.28,76.21 21.25,75.98 21.23,75.74 21.28,75.51 21.33,75.28 21.46,75.08 21.58,74.88 21.76,74.72 21.94,74.57 22.16,74.49 22.39,74.40 22.62,74.39 22.86,74.38 23.09,74.44 23.31,74.51 23.51,74.64 23.71,74.77 23.85,74.96 23.99,75.15 24.06,75.38 24.14,75.60 24.14,75.84 24.14,76.08 24.06,76.30 23.98,76.52 23.84,76.71 23.69,76.90 23.50,77.03 23.30,77.16 23.07,77.23 22.84,77.29 22.61,77.27 22.37,77.26 22.15,77.17 21.93,77.08 21.75,76.93 21.57,76.77 21.45,76.57 21.33,76.36 21.28,76.13 21.23,75.90 21.26,75.67 21.28,75.43 21.38,75.22 21.48,75.00 21.65,74.83 21.81,74.66 22.02,74.55 22.23,74.44 22.47,74.40 22.70,74.37 22.70,74.37 22.70,74.37 34.28,74.53 45.85,74.69 54.47,74.83 63.09,74.97 71.68,75.00 80.28,75.04 88.78,74.95 97.28,74.87 105.38,74.65 113.48,74.43 119.92,73.92 126.35,73.42 127.46,71.25 128.57,69.08 128.62,64.35 128.67,59.63 128.73,54.85 128.79,50.08 128.85,45.31 128.90,40.54 128.86,35.79 128.81,31.03 128.63,26.34 128.44,21.64 128.10,17.22 127.76,12.79 126.99,9.20 126.22,5.62 123.01,4.39 119.79,3.17 111.16,2.99 102.52,2.81 93.86,2.63 85.21,2.44 76.56,2.26 67.91,2.08 59.28,2.00 50.65,1.92 42.12,1.96 33.59,2.01 25.46,2.19 17.33,2.37 10.87,2.85 4.41,3.33 3.31,5.51 2.22,7.68 2.20,12.45 2.18,17.21 2.16,22.03 2.13,26.84 2.10,31.66 2.08,36.47 2.15,41.27 2.23,46.06 2.45,50.80 2.66,55.53 3.02,60.01 3.39,64.48 4.14,68.09 4.90,71.70 7.96,72.91 11.02,74.12 19.06,74.26 27.10,74.39 33.53,74.52 39.95,74.65 40.11,74.67 40.26,74.69 40.40,74.75 40.55,74.80 40.67,74.89 40.80,74.98 40.90,75.10 41.00,75.21 41.07,75.35 41.14,75.49 41.18,75.64 41.22,75.78 41.22,75.94 41.21,76.09 41.18,76.24 41.14,76.39 41.07,76.53 40.99,76.66 40.89,76.78 40.79,76.89 40.66,76.98 40.53,77.07 40.39,77.12 40.24,77.17 40.09,77.19 Z" fill="#c6cbd1" stroke="#c6cbd1" stroke-width="2" pointer-events="none"/></g><g font-size="28" font-family="Caveat Brush" text-align="left" fill="#c6cbd1" transform-origin="top left" transform="translate(27.885000000000005, 19.72)"><text y="18.2">console</text></g></g><g transform="translate(295.48, 180.14) rotate(0, 25.82, 38.72)"><g id="0d608a58-728f-4570-0c1a-96fc3d488f7b_svg" class="tl-centered-g"><path d="M 35.35,0.94 Q 35.35,0.94 37.57,0.95 39.79,0.95 42.58,0.96 45.36,0.96 47.56,2.45 49.77,3.94 50.33,7.88 50.89,11.81 51.03,16.37 51.17,20.93 51.20,25.64 51.24,30.36 51.25,35.12 51.26,39.87 51.26,44.64 51.26,49.41 51.26,54.18 51.26,58.95 51.26,63.72 51.26,68.49 49.77,71.20 48.28,73.90 45.62,74.66 42.96,75.42 40.01,75.69 37.05,75.95 34.02,76.09 30.99,76.22 27.94,76.33 24.89,76.43 21.84,76.52 18.78,76.62 15.73,76.71 12.67,76.81 9.62,76.90 6.56,76.99 4.29,75.53 2.02,74.06 1.50,70.06 0.98,66.06 0.90,61.41 0.83,56.76 0.87,51.95 0.91,47.14 0.97,42.28 1.04,37.43 1.12,32.56 1.19,27.70 1.27,22.83 1.35,17.96 1.43,13.09 1.50,8.23 3.01,5.49 4.52,2.76 7.13,2.07 9.73,1.38 12.62,1.20 15.50,1.03 18.46,0.99 21.41,0.95 24.38,0.94 27.36,0.94 30.34,0.94 33.31,0.94 37.31,0.95" fill="#e3e5e7" pointer-events="none"/><path d="M 35.35,-0.33 Q 35.35,-0.33 37.57,-0.41 39.79,-0.50 42.66,-0.57 45.53,-0.63 48.22,1.15 50.92,2.95 51.63,7.28 52.34,11.61 52.39,16.25 52.45,20.89 52.39,25.62 52.33,30.35 52.34,35.11 52.35,39.87 52.44,44.64 52.54,49.41 52.63,54.18 52.72,58.95 52.80,63.77 52.88,68.59 51.15,71.76 49.43,74.93 46.39,75.88 43.36,76.83 40.26,77.03 37.17,77.22 34.10,77.27 31.04,77.31 27.99,77.42 24.93,77.52 21.88,77.71 18.82,77.90 15.77,78.08 12.72,78.27 9.58,78.43 6.44,78.60 3.65,76.81 0.86,75.03 0.19,70.64 -0.46,66.25 -0.45,61.52 -0.44,56.78 -0.31,51.96 -0.18,47.13 -0.11,42.27 -0.04,37.41 -0.06,32.55 -0.08,27.68 -0.09,22.81 -0.11,17.94 -0.11,13.02 -0.11,8.11 1.63,4.91 3.39,1.72 6.38,0.84 9.36,-0.03 12.39,-0.13 15.42,-0.24 18.41,-0.18 21.40,-0.13 24.38,-0.14 27.36,-0.15 30.34,-0.24 33.31,-0.33 37.31,-0.41 41.31,-0.50 41.55,-0.46 41.78,-0.42 41.99,-0.31 42.20,-0.20 42.36,-0.03 42.53,0.13 42.62,0.35 42.72,0.56 42.75,0.80 42.77,1.03 42.72,1.27 42.67,1.50 42.55,1.70 42.43,1.90 42.25,2.06 42.07,2.21 41.84,2.30 41.62,2.38 41.39,2.40 41.15,2.41 40.92,2.34 40.70,2.28 40.50,2.15 40.30,2.01 40.16,1.83 40.02,1.64 39.94,1.41 39.87,1.19 39.87,0.95 39.87,0.71 39.94,0.49 40.02,0.26 40.16,0.08 40.31,-0.10 40.50,-0.23 40.70,-0.37 40.93,-0.43 41.16,-0.49 41.39,-0.48 41.63,-0.47 41.85,-0.38 42.07,-0.29 42.25,-0.14 42.43,0.01 42.55,0.21 42.67,0.41 42.72,0.64 42.77,0.88 42.75,1.11 42.72,1.35 42.62,1.56 42.52,1.78 42.36,1.95 42.20,2.12 41.99,2.23 41.78,2.34 41.54,2.38 41.31,2.42 41.31,2.42 41.31,2.42 37.31,2.32 33.31,2.22 30.34,2.13 27.36,2.03 24.39,2.04 21.43,2.04 18.50,2.18 15.58,2.31 12.84,2.55 10.10,2.79 7.88,3.30 5.65,3.81 4.39,6.07 3.13,8.34 2.97,13.16 2.81,17.99 2.64,22.85 2.47,27.72 2.30,32.58 2.14,37.44 2.07,42.30 2.00,47.15 2.05,51.95 2.11,56.74 2.27,61.31 2.43,65.87 2.80,69.48 3.18,73.09 4.93,74.24 6.68,75.39 9.65,75.37 12.63,75.34 15.68,75.34 18.74,75.34 21.80,75.34 24.86,75.34 27.90,75.23 30.94,75.13 33.94,74.90 36.94,74.68 39.75,74.34 42.56,74.01 44.84,73.44 47.12,72.88 48.38,70.63 49.63,68.39 49.71,63.67 49.79,58.95 49.89,54.18 49.98,49.41 50.07,44.64 50.16,39.88 50.16,35.12 50.15,30.37 50.02,25.67 49.89,20.97 49.66,16.49 49.44,12.02 49.02,8.48 48.61,4.94 46.91,3.75 45.20,2.56 42.50,2.49 39.79,2.41 37.57,2.32 35.35,2.22 35.20,2.20 35.04,2.18 34.90,2.13 34.76,2.07 34.63,1.99 34.50,1.90 34.40,1.78 34.30,1.67 34.23,1.53 34.16,1.39 34.12,1.24 34.08,1.09 34.08,0.94 34.08,0.79 34.12,0.64 34.16,0.49 34.23,0.35 34.30,0.21 34.40,0.10 34.51,-0.01 34.63,-0.09 34.76,-0.18 34.90,-0.23 35.05,-0.29 35.20,-0.31 Z" fill="#788492" stroke="#788492" stroke-width="2" pointer-events="none"/></g><g font-size="28" font-family="Caveat Brush" text-align="left" fill="#788492" transform-origin="top left" transform="translate(18.325, 19.72)"><text y="18.2">.</text></g></g><g transform="translate(363.4000000000001, 180.14) rotate(0, 45.83, 38.72)"><g id="95ec8873-db57-4caa-3480-a0adbc0eae68_svg" class="tl-centered-g"><path d="M 27.89,77.00 Q 27.89,77.00 23.51,77.00 19.13,76.99 13.63,76.99 8.13,76.98 5.24,75.49 2.35,74.00 1.62,69.98 0.90,65.96 0.72,61.29 0.55,56.62 0.51,51.79 0.48,46.96 0.48,42.09 0.48,37.22 0.49,32.33 0.50,27.45 0.51,22.57 0.53,17.68 0.54,12.79 0.55,7.91 2.05,5.17 3.54,2.43 8.31,1.78 13.09,1.14 18.70,1.02 24.31,0.90 30.14,0.92 35.96,0.94 41.84,0.99 47.72,1.05 53.61,1.11 59.51,1.17 65.40,1.24 71.30,1.30 77.20,1.37 83.10,1.43 86.09,2.94 89.08,4.45 89.82,8.43 90.56,12.41 90.73,17.02 90.90,21.63 90.91,26.40 90.93,31.17 90.92,35.99 90.90,40.80 90.87,45.62 90.84,50.45 90.81,55.27 90.78,60.10 90.75,64.93 90.72,69.75 89.22,72.47 87.72,75.20 82.96,75.89 78.20,76.57 72.60,76.75 67.01,76.92 61.20,76.96 55.39,77.00 49.53,77.00 43.67,77.01 37.79,77.01 31.91,77.00 24.02,77.00" fill="#f1f2f3" pointer-events="none"/><path d="M 27.89,78.28 Q 27.89,78.28 23.51,78.37 19.13,78.46 13.59,78.53 8.05,78.61 4.65,76.81 1.26,75.01 0.36,70.61 -0.53,66.22 -0.63,61.44 -0.72,56.67 -0.66,51.82 -0.61,46.97 -0.60,42.09 -0.60,37.22 -0.69,32.33 -0.77,27.45 -0.85,22.56 -0.93,17.68 -1.00,12.74 -1.06,7.81 0.76,4.55 2.59,1.30 7.74,0.49 12.89,-0.31 18.59,-0.34 24.29,-0.37 30.13,-0.25 35.97,-0.14 41.85,-0.09 47.73,-0.04 53.63,-0.07 59.52,-0.10 65.42,-0.12 71.32,-0.15 77.25,-0.17 83.19,-0.19 86.68,1.62 90.17,3.43 91.09,7.79 92.00,12.14 92.09,16.86 92.17,21.58 92.10,26.38 92.03,31.17 92.01,35.99 91.99,40.80 92.05,45.63 92.12,50.45 92.18,55.28 92.24,60.11 92.29,64.98 92.34,69.86 90.52,73.09 88.69,76.32 83.55,77.17 78.41,78.02 72.72,78.11 67.04,78.20 61.22,78.14 55.40,78.09 49.53,78.10 43.67,78.10 37.79,78.19 31.91,78.28 24.02,78.37 16.13,78.45 15.90,78.42 15.66,78.38 15.45,78.27 15.24,78.15 15.08,77.98 14.92,77.81 14.82,77.60 14.72,77.38 14.70,77.14 14.67,76.91 14.72,76.68 14.77,76.45 14.89,76.24 15.02,76.04 15.20,75.89 15.38,75.73 15.60,75.65 15.82,75.56 16.05,75.55 16.29,75.53 16.52,75.60 16.75,75.66 16.94,75.79 17.14,75.93 17.28,76.12 17.43,76.31 17.50,76.53 17.58,76.75 17.58,76.99 17.58,77.23 17.50,77.45 17.42,77.68 17.28,77.87 17.14,78.05 16.94,78.19 16.75,78.32 16.52,78.38 16.29,78.45 16.05,78.43 15.82,78.42 15.60,78.33 15.38,78.24 15.20,78.09 15.01,77.94 14.89,77.73 14.77,77.53 14.72,77.30 14.67,77.07 14.70,76.83 14.72,76.60 14.82,76.38 14.92,76.17 15.08,76.00 15.25,75.82 15.46,75.71 15.67,75.60 15.90,75.56 16.13,75.53 16.13,75.53 16.13,75.53 24.02,75.63 31.92,75.72 37.79,75.82 43.67,75.92 49.52,75.91 55.38,75.90 61.17,75.77 66.97,75.64 72.48,75.38 77.99,75.13 82.37,74.60 86.76,74.07 87.92,71.86 89.09,69.65 89.20,64.87 89.32,60.09 89.44,55.27 89.56,50.44 89.68,45.62 89.80,40.80 89.82,35.99 89.84,31.18 89.73,26.43 89.62,21.67 89.37,17.17 89.12,12.67 88.56,9.06 87.99,5.46 85.50,4.26 83.00,3.06 77.14,2.91 71.29,2.77 65.39,2.61 59.49,2.45 53.60,2.30 47.71,2.14 41.83,2.09 35.96,2.03 30.15,2.11 24.34,2.18 18.81,2.38 13.29,2.59 8.89,3.08 4.49,3.57 3.33,5.79 2.18,8.01 2.08,12.84 1.99,17.68 1.88,22.57 1.78,27.45 1.68,32.34 1.57,37.22 1.57,42.09 1.57,46.96 1.70,51.77 1.82,56.58 2.08,61.14 2.34,65.70 2.89,69.35 3.45,72.99 5.83,74.17 8.22,75.35 13.68,75.44 19.13,75.53 23.51,75.63 27.89,75.72 28.05,75.74 28.20,75.76 28.34,75.82 28.49,75.87 28.61,75.96 28.74,76.05 28.84,76.16 28.95,76.28 29.02,76.41 29.09,76.55 29.13,76.70 29.16,76.85 29.16,77.00 29.16,77.16 29.12,77.31 29.09,77.46 29.02,77.59 28.94,77.73 28.84,77.84 28.74,77.96 28.61,78.05 28.49,78.13 28.34,78.19 28.20,78.24 28.04,78.26 Z" fill="#c6cbd1" stroke="#c6cbd1" stroke-width="2" pointer-events="none"/></g><g font-size="28" font-family="Caveat Brush" text-align="left" fill="#c6cbd1" transform-origin="top left" transform="translate(27.83, 19.72)"><text y="18.2">log</text></g></g><g transform="translate(468.28, 181.04) rotate(0, 25.82, 38.72)"><g id="fc469ae1-279f-4fd5-1d5e-6f61c8e43fe4_svg" class="tl-centered-g"><path d="M 16.96,76.57 Q 16.96,76.57 14.72,76.62 12.48,76.68 9.66,76.75 6.84,76.82 4.63,75.35 2.42,73.88 1.86,69.86 1.29,65.84 1.14,61.16 0.99,56.49 0.95,51.65 0.90,46.81 0.89,41.93 0.87,37.05 0.86,32.16 0.86,27.27 0.85,22.38 0.84,17.48 0.84,12.59 0.83,7.69 2.32,4.96 3.81,2.22 6.41,1.58 9.01,0.94 11.90,0.84 14.78,0.74 17.74,0.77 20.70,0.81 23.68,0.87 26.65,0.94 29.64,1.02 32.62,1.10 35.60,1.18 38.58,1.26 41.57,1.34 44.55,1.42 46.80,2.93 49.05,4.44 49.65,8.36 50.25,12.27 50.43,16.80 50.61,21.33 50.69,26.01 50.76,30.69 50.80,35.42 50.85,40.14 50.89,44.87 50.93,49.61 50.96,54.34 51.00,59.08 51.04,63.82 51.07,68.56 49.59,71.25 48.11,73.95 45.49,74.70 42.87,75.44 39.95,75.69 37.04,75.94 34.05,76.06 31.06,76.18 28.06,76.26 25.05,76.35 22.04,76.43 19.03,76.51 14.98,76.61" fill="#e3e5e7" pointer-events="none"/><path d="M 17.00,77.84 Q 17.00,77.84 14.76,77.99 12.51,78.14 9.61,78.28 6.71,78.42 3.99,76.65 1.27,74.87 0.55,70.45 -0.15,66.04 -0.21,61.29 -0.28,56.53 -0.23,51.68 -0.18,46.82 -0.19,41.94 -0.21,37.06 -0.31,32.17 -0.41,27.27 -0.51,22.38 -0.61,17.49 -0.70,12.54 -0.79,7.60 0.95,4.38 2.70,1.16 5.68,0.34 8.67,-0.47 11.70,-0.50 14.74,-0.53 17.72,-0.40 20.71,-0.28 23.70,-0.21 26.68,-0.14 29.67,-0.15 32.65,-0.17 35.64,-0.18 38.62,-0.19 41.68,-0.18 44.73,-0.18 47.47,1.62 50.20,3.43 50.95,7.74 51.70,12.05 51.80,16.66 51.89,21.28 51.87,25.98 51.85,30.68 51.90,35.40 51.94,40.13 52.07,44.86 52.20,49.60 52.33,54.33 52.46,59.07 52.58,63.86 52.70,68.65 50.98,71.81 49.26,74.98 46.26,75.92 43.26,76.85 40.20,77.03 37.15,77.21 34.13,77.24 31.11,77.27 28.09,77.36 25.08,77.44 22.07,77.62 19.06,77.79 15.02,77.99 10.98,78.18 10.74,78.15 10.51,78.12 10.29,78.01 10.08,77.91 9.92,77.74 9.75,77.57 9.64,77.36 9.54,77.15 9.51,76.91 9.47,76.68 9.52,76.44 9.56,76.21 9.68,76.01 9.80,75.80 9.98,75.64 10.15,75.48 10.37,75.39 10.59,75.30 10.82,75.28 11.06,75.26 11.29,75.32 11.52,75.37 11.72,75.50 11.92,75.63 12.07,75.82 12.21,76.00 12.30,76.22 12.38,76.44 12.38,76.68 12.39,76.92 12.32,77.14 12.25,77.37 12.11,77.56 11.97,77.76 11.78,77.89 11.59,78.03 11.36,78.10 11.13,78.17 10.90,78.16 10.66,78.16 10.44,78.07 10.22,77.99 10.03,77.84 9.85,77.69 9.72,77.49 9.59,77.30 9.54,77.07 9.48,76.84 9.50,76.60 9.52,76.36 9.61,76.15 9.71,75.93 9.86,75.75 10.02,75.58 10.23,75.46 10.44,75.34 10.67,75.30 10.90,75.25 10.90,75.25 10.90,75.25 14.95,75.24 18.99,75.23 22.01,75.25 25.02,75.26 28.02,75.17 31.02,75.08 33.97,74.87 36.93,74.66 39.70,74.35 42.47,74.03 44.72,73.48 46.96,72.92 48.20,70.69 49.45,68.47 49.49,63.78 49.54,59.09 49.59,54.36 49.65,49.62 49.70,44.88 49.76,40.15 49.71,35.43 49.67,30.71 49.50,26.04 49.34,21.38 49.07,16.93 48.81,12.49 48.35,8.97 47.90,5.45 46.14,4.24 44.37,3.03 41.46,2.88 38.54,2.72 35.56,2.55 32.58,2.38 29.61,2.21 26.63,2.04 23.66,1.97 20.69,1.90 17.76,1.96 14.83,2.02 12.09,2.19 9.35,2.37 7.13,2.82 4.91,3.27 3.68,5.53 2.45,7.79 2.38,12.64 2.31,17.48 2.22,22.38 2.13,27.27 2.05,32.16 1.97,37.05 1.98,41.93 2.00,46.81 2.13,51.63 2.27,56.45 2.50,61.04 2.74,65.63 3.16,69.26 3.58,72.89 5.28,74.06 6.97,75.22 9.71,75.22 12.44,75.22 14.69,75.25 16.93,75.29 17.09,75.30 17.24,75.32 17.38,75.37 17.53,75.42 17.66,75.50 17.79,75.59 17.89,75.70 18.00,75.81 18.07,75.95 18.15,76.08 18.19,76.23 18.23,76.38 18.23,76.53 18.24,76.69 18.20,76.84 18.17,76.99 18.10,77.13 18.04,77.26 17.94,77.38 17.84,77.50 17.71,77.59 17.59,77.68 17.44,77.74 17.30,77.80 17.15,77.82 Z" fill="#788492" stroke="#788492" stroke-width="2" pointer-events="none"/></g><g font-size="28" font-family="Caveat Brush" text-align="left" fill="#788492" transform-origin="top left" transform="translate(17.325, 19.72)"><text y="18.2">(</text></g></g><g transform="translate(533.6400000000001, 181.04) rotate(0, 75.16, 38.72)"><g id="698a18e6-406c-45aa-08ed-18b711181416_svg" class="tl-centered-g"><path d="M 0.93,24.11 Q 0.93,24.11 0.92,20.50 0.91,16.88 0.90,12.35 0.88,7.81 2.37,5.16 3.85,2.52 10.74,1.85 17.63,1.18 25.90,1.01 34.17,0.84 42.79,0.81 51.41,0.77 60.12,0.76 68.82,0.76 77.56,0.76 86.29,0.77 95.03,0.77 103.76,0.78 112.50,0.79 121.24,0.79 129.98,0.80 138.72,0.81 142.44,2.30 146.16,3.79 147.16,7.79 148.17,11.78 148.48,16.42 148.79,21.05 148.93,25.85 149.07,30.65 149.16,35.49 149.25,40.33 149.33,45.18 149.41,50.03 149.49,54.88 149.57,59.74 149.64,64.59 149.72,69.45 148.25,72.17 146.78,74.90 139.85,75.59 132.93,76.28 124.61,76.45 116.29,76.62 107.62,76.65 98.95,76.69 90.19,76.69 81.43,76.70 72.64,76.69 63.86,76.68 55.07,76.68 46.28,76.67 37.49,76.66 28.69,76.65 19.90,76.64 11.11,76.63 7.38,75.14 3.64,73.65 2.68,69.66 1.72,65.66 1.46,61.03 1.20,56.39 1.13,51.60 1.05,46.80 1.02,41.96 0.99,37.13 0.97,32.28 0.95,27.43 0.93,20.92" fill="#f1f2f3" pointer-events="none"/><path d="M -0.33,24.12 Q -0.33,24.12 -0.44,20.50 -0.54,16.89 -0.64,12.30 -0.73,7.71 1.11,4.53 2.96,1.35 10.23,0.52 17.49,-0.29 25.82,-0.38 34.14,-0.47 42.77,-0.43 51.40,-0.38 60.11,-0.31 68.82,-0.23 77.56,-0.31 86.29,-0.39 95.03,-0.46 103.76,-0.54 112.50,-0.61 121.24,-0.69 130.00,-0.76 138.76,-0.83 142.97,0.94 147.18,2.72 148.38,7.08 149.59,11.43 149.83,16.20 150.07,20.97 150.11,25.79 150.16,30.62 150.25,35.46 150.34,40.31 150.52,45.16 150.69,50.01 150.86,54.86 151.03,59.71 151.19,64.62 151.34,69.52 149.50,72.79 147.66,76.06 140.37,76.91 133.07,77.76 124.70,77.85 116.32,77.94 107.64,77.90 98.96,77.85 90.19,77.77 81.43,77.70 72.64,77.77 63.86,77.85 55.07,77.92 46.28,77.99 37.48,78.07 28.69,78.14 19.88,78.21 11.06,78.28 6.84,76.49 2.61,74.70 1.45,70.35 0.29,66.00 0.11,61.23 -0.06,56.46 -0.05,51.64 -0.03,46.82 -0.06,41.98 -0.10,37.13 -0.21,32.28 -0.32,27.44 -0.44,20.92 -0.55,14.41 -0.51,14.18 -0.48,13.94 -0.37,13.74 -0.26,13.53 -0.08,13.36 0.08,13.20 0.29,13.10 0.51,13.00 0.74,12.97 0.98,12.95 1.21,13.00 1.44,13.05 1.64,13.17 1.85,13.29 2.00,13.47 2.16,13.65 2.24,13.87 2.33,14.09 2.35,14.32 2.36,14.56 2.30,14.79 2.23,15.02 2.10,15.21 1.97,15.41 1.78,15.56 1.59,15.70 1.37,15.78 1.14,15.85 0.91,15.85 0.67,15.85 0.45,15.78 0.22,15.70 0.03,15.56 -0.15,15.42 -0.28,15.22 -0.41,15.03 -0.48,14.80 -0.54,14.57 -0.53,14.33 -0.52,14.10 -0.43,13.88 -0.34,13.66 -0.19,13.48 -0.04,13.29 0.15,13.17 0.36,13.05 0.59,13.00 0.82,12.95 1.05,12.97 1.29,13.00 1.51,13.09 1.72,13.19 1.89,13.36 2.07,13.52 2.18,13.73 2.29,13.94 2.33,14.17 2.37,14.40 2.37,14.40 2.37,14.40 2.30,20.91 2.23,27.42 2.15,32.27 2.08,37.12 2.11,41.95 2.14,46.78 2.31,51.55 2.48,56.32 2.81,60.82 3.14,65.32 3.91,68.96 4.67,72.60 7.91,73.80 11.15,74.99 19.92,75.08 28.70,75.16 37.49,75.25 46.28,75.34 55.07,75.43 63.86,75.52 72.64,75.61 81.43,75.70 90.19,75.61 98.95,75.53 107.61,75.41 116.27,75.29 124.52,75.05 132.78,74.80 139.34,74.27 145.89,73.74 146.99,71.55 148.09,69.37 148.10,64.56 148.10,59.76 148.12,54.91 148.13,50.05 148.14,45.20 148.16,40.35 148.07,35.52 147.97,30.68 147.75,25.91 147.52,21.14 147.13,16.64 146.75,12.13 145.94,8.49 145.13,4.85 141.90,3.65 138.67,2.45 129.96,2.36 121.24,2.28 112.50,2.19 103.76,2.10 95.02,2.02 86.29,1.93 77.56,1.84 68.83,1.76 60.12,1.85 51.41,1.93 42.80,2.05 34.20,2.17 25.99,2.41 17.78,2.66 11.26,3.17 4.75,3.68 3.63,5.80 2.50,7.91 2.44,12.39 2.38,16.88 2.29,20.49 2.21,24.11 2.19,24.26 2.18,24.41 2.12,24.56 2.07,24.70 1.98,24.83 1.89,24.96 1.78,25.06 1.66,25.16 1.53,25.23 1.39,25.31 1.24,25.34 1.09,25.38 0.94,25.38 0.78,25.38 0.63,25.34 0.48,25.31 0.35,25.24 0.21,25.17 0.10,25.06 -0.01,24.96 -0.10,24.84 -0.19,24.71 -0.24,24.56 -0.30,24.42 -0.32,24.27 Z" fill="#c6cbd1" stroke="#c6cbd1" stroke-width="2" pointer-events="none"/></g><g font-size="28" font-family="Caveat Brush" text-align="left" fill="#c6cbd1" transform-origin="top left" transform="translate(16.659999999999997, 19.72)"><text y="18.2">hello, world!</text></g></g><g transform="translate(698.52, 181.04) rotate(0, 25.82, 38.72)"><g id="e901866a-b8a6-432f-189f-b05c723d0ba1_svg" class="tl-centered-g"><path d="M 50.33,53.54 Q 50.33,53.54 50.36,57.11 50.38,60.68 50.42,65.17 50.45,69.65 48.97,72.28 47.49,74.92 44.93,75.59 42.36,76.27 39.52,76.45 36.68,76.63 33.77,76.68 30.86,76.73 27.93,76.75 25.00,76.76 22.06,76.77 19.13,76.79 16.19,76.79 13.26,76.80 10.32,76.81 7.39,76.82 5.15,75.33 2.91,73.84 2.35,69.85 1.79,65.86 1.65,61.24 1.51,56.61 1.49,51.82 1.46,47.04 1.46,42.21 1.46,37.38 1.47,32.54 1.48,27.70 1.49,22.85 1.50,18.01 1.51,13.17 1.52,8.32 3.01,5.60 4.50,2.87 7.04,2.21 9.57,1.54 12.37,1.41 15.17,1.27 18.03,1.26 20.90,1.26 23.78,1.29 26.66,1.32 29.55,1.36 32.44,1.40 35.32,1.44 38.21,1.48 41.10,1.52 43.99,1.57 46.22,3.07 48.44,4.57 49.04,8.52 49.63,12.48 49.81,17.06 49.99,21.64 50.06,26.38 50.14,31.12 50.18,35.90 50.23,40.68 50.27,45.47 50.30,50.26 50.35,56.70" fill="#e3e5e7" pointer-events="none"/><path d="M 51.61,53.53 Q 51.61,53.53 51.73,57.10 51.85,60.67 51.96,65.21 52.07,69.75 50.35,72.85 48.62,75.96 45.67,76.83 42.73,77.69 39.74,77.79 36.76,77.90 33.82,77.86 30.88,77.82 27.94,77.84 25.00,77.86 22.07,77.96 19.13,78.06 16.20,78.16 13.26,78.27 10.25,78.34 7.24,78.42 4.50,76.63 1.76,74.83 1.05,70.45 0.34,66.07 0.29,61.36 0.24,56.65 0.30,51.85 0.37,47.04 0.37,42.21 0.37,37.38 0.28,32.53 0.20,27.69 0.12,22.85 0.03,18.01 -0.03,13.11 -0.10,8.22 1.64,5.02 3.38,1.83 6.29,0.98 9.21,0.13 12.15,0.06 15.10,-0.00 18.00,0.08 20.90,0.17 23.78,0.20 26.67,0.23 29.56,0.17 32.45,0.12 35.34,0.07 38.23,0.02 41.20,-0.00 44.16,-0.03 46.88,1.76 49.59,3.56 50.34,7.91 51.08,12.26 51.17,16.92 51.27,21.59 51.25,26.34 51.23,31.10 51.27,35.88 51.32,40.67 51.45,45.46 51.58,50.25 51.73,56.68 51.87,63.12 51.83,63.35 51.79,63.59 51.69,63.80 51.58,64.01 51.41,64.17 51.23,64.34 51.02,64.44 50.81,64.54 50.57,64.56 50.34,64.59 50.10,64.54 49.87,64.49 49.67,64.37 49.46,64.25 49.31,64.07 49.15,63.89 49.07,63.67 48.98,63.46 48.96,63.22 48.95,62.98 49.01,62.75 49.07,62.52 49.20,62.33 49.33,62.13 49.52,61.99 49.71,61.84 49.93,61.76 50.16,61.69 50.39,61.68 50.63,61.68 50.85,61.76 51.08,61.83 51.27,61.97 51.46,62.11 51.59,62.31 51.73,62.50 51.79,62.73 51.86,62.96 51.85,63.20 51.84,63.43 51.75,63.65 51.66,63.88 51.51,64.06 51.36,64.24 51.16,64.36 50.96,64.49 50.72,64.54 50.49,64.59 50.26,64.57 50.02,64.54 49.81,64.45 49.59,64.35 49.42,64.19 49.24,64.02 49.13,63.82 49.02,63.61 48.98,63.37 48.94,63.14 48.94,63.14 48.94,63.14 48.98,56.71 49.03,50.27 49.08,45.48 49.13,40.69 49.09,35.91 49.04,31.13 48.88,26.41 48.71,21.69 48.45,17.19 48.18,12.69 47.74,9.13 47.29,5.57 45.55,4.37 43.82,3.17 41.01,3.06 38.19,2.95 35.31,2.81 32.42,2.68 29.53,2.55 26.65,2.41 23.77,2.38 20.90,2.35 18.06,2.45 15.23,2.55 12.58,2.75 9.93,2.96 7.78,3.44 5.63,3.92 4.39,6.17 3.14,8.42 3.05,13.22 2.96,18.01 2.86,22.85 2.76,27.70 2.66,32.54 2.56,37.38 2.55,42.20 2.55,47.03 2.67,51.80 2.79,56.57 3.01,61.12 3.24,65.66 3.65,69.25 4.07,72.85 5.80,74.03 7.54,75.21 10.40,75.27 13.26,75.34 16.19,75.42 19.13,75.51 22.06,75.59 24.99,75.67 27.91,75.65 30.84,75.64 33.72,75.49 36.60,75.35 39.30,75.10 41.99,74.85 44.18,74.36 46.36,73.87 47.60,71.71 48.83,69.55 48.88,65.12 48.92,60.70 48.99,57.12 49.05,53.55 49.07,53.40 49.09,53.24 49.14,53.10 49.19,52.95 49.28,52.83 49.37,52.70 49.48,52.60 49.60,52.49 49.73,52.42 49.87,52.35 50.02,52.31 50.17,52.27 50.32,52.27 50.48,52.27 50.63,52.31 50.78,52.34 50.91,52.41 51.05,52.48 51.17,52.58 51.28,52.69 51.37,52.81 51.46,52.94 51.51,53.08 51.57,53.23 51.59,53.38 Z" fill="#788492" stroke="#788492" stroke-width="2" pointer-events="none"/></g><g font-size="28" font-family="Caveat Brush" text-align="left" fill="#788492" transform-origin="top left" transform="translate(17.325, 19.72)"><text y="18.2">)</text></g></g><g transform="translate(83.90000000000009, 268.14) rotate(0, 25.82, 38.72)"><g id="6ecdc4ae-77a0-4ccf-09f1-2cebf8671638_svg" class="tl-centered-g"><path d="M 34.43,0.69 Q 34.43,0.69 36.67,0.71 38.91,0.73 41.72,0.75 44.53,0.78 46.74,2.28 48.95,3.77 49.50,7.75 50.06,11.74 50.19,16.35 50.32,20.97 50.35,25.74 50.38,30.52 50.38,35.34 50.38,40.16 50.37,44.99 50.36,49.81 50.35,54.65 50.34,59.48 50.33,64.31 50.32,69.14 48.83,71.86 47.34,74.59 44.75,75.32 42.16,76.05 39.29,76.28 36.43,76.50 33.49,76.60 30.55,76.70 27.59,76.76 24.64,76.82 21.68,76.88 18.72,76.93 15.75,76.98 12.79,77.04 9.83,77.09 6.87,77.14 4.62,75.66 2.37,74.19 1.78,70.15 1.18,66.12 1.00,61.43 0.82,56.74 0.75,51.89 0.68,47.04 0.64,42.14 0.59,37.25 0.56,32.34 0.52,27.43 0.49,22.52 0.45,17.61 0.42,12.70 0.38,7.79 1.86,5.05 3.34,2.31 5.96,1.63 8.58,0.95 11.49,0.79 14.40,0.64 17.38,0.62 20.36,0.60 23.36,0.62 26.36,0.63 29.37,0.65 32.37,0.68 36.41,0.71" fill="#e3e5e7" pointer-events="none"/><path d="M 34.44,-0.58 Q 34.44,-0.58 36.68,-0.65 38.92,-0.72 41.81,-0.77 44.70,-0.81 47.40,0.98 50.10,2.78 50.81,7.16 51.51,11.53 51.55,16.23 51.60,20.93 51.54,25.72 51.47,30.51 51.47,35.34 51.47,40.16 51.55,44.99 51.64,49.82 51.72,54.65 51.81,59.48 51.88,64.36 51.95,69.24 50.22,72.43 48.49,75.62 45.52,76.54 42.55,77.46 39.54,77.62 36.53,77.78 33.56,77.78 30.59,77.79 27.62,77.85 24.66,77.91 21.70,78.06 18.74,78.21 15.78,78.36 12.82,78.50 9.77,78.62 6.73,78.74 3.98,76.96 1.23,75.19 0.48,70.76 -0.26,66.33 -0.35,61.56 -0.45,56.79 -0.42,51.92 -0.40,47.05 -0.45,42.15 -0.49,37.25 -0.62,32.35 -0.75,27.44 -0.88,22.53 -1.00,17.62 -1.12,12.66 -1.23,7.71 0.49,4.49 2.22,1.27 5.22,0.40 8.22,-0.46 11.27,-0.54 14.33,-0.63 17.34,-0.55 20.35,-0.48 23.36,-0.47 26.37,-0.45 29.37,-0.52 32.38,-0.59 36.42,-0.65 40.45,-0.71 40.69,-0.67 40.92,-0.63 41.13,-0.52 41.34,-0.40 41.50,-0.23 41.66,-0.06 41.76,0.15 41.86,0.36 41.88,0.60 41.90,0.84 41.85,1.07 41.80,1.30 41.67,1.50 41.55,1.70 41.37,1.85 41.19,2.00 40.97,2.09 40.74,2.18 40.51,2.19 40.27,2.20 40.04,2.13 39.82,2.07 39.62,1.93 39.43,1.80 39.28,1.61 39.14,1.42 39.07,1.19 39.00,0.97 39.00,0.73 39.00,0.49 39.08,0.27 39.15,0.05 39.30,-0.13 39.44,-0.32 39.64,-0.45 39.84,-0.58 40.07,-0.64 40.30,-0.70 40.53,-0.69 40.77,-0.67 40.99,-0.58 41.21,-0.49 41.39,-0.34 41.57,-0.18 41.69,0.01 41.81,0.21 41.86,0.45 41.91,0.68 41.88,0.91 41.85,1.15 41.75,1.36 41.65,1.58 41.48,1.75 41.32,1.92 41.11,2.03 40.90,2.14 40.66,2.17 40.43,2.21 40.43,2.21 40.43,2.21 36.40,2.08 32.36,1.95 29.36,1.84 26.36,1.72 23.36,1.71 20.37,1.69 17.42,1.81 14.46,1.92 11.70,2.14 8.94,2.37 6.70,2.86 4.47,3.35 3.24,5.62 2.01,7.88 1.96,12.74 1.92,17.60 1.86,22.51 1.80,27.42 1.74,32.33 1.69,37.24 1.73,42.13 1.77,47.02 1.94,51.86 2.10,56.70 2.36,61.30 2.63,65.90 3.08,69.55 3.52,73.19 5.26,74.36 7.00,75.54 9.88,75.56 12.76,75.57 15.73,75.61 18.69,75.65 21.65,75.69 24.61,75.73 27.56,75.67 30.51,75.60 33.42,75.42 36.33,75.23 39.05,74.94 41.77,74.64 43.98,74.10 46.19,73.56 47.44,71.30 48.70,69.04 48.79,64.26 48.88,59.47 48.98,54.64 49.08,49.81 49.18,44.98 49.28,40.16 49.28,35.34 49.28,30.53 49.17,25.76 49.05,21.00 48.83,16.47 48.61,11.94 48.20,8.35 47.79,4.76 46.08,3.57 44.36,2.38 41.63,2.29 38.90,2.19 36.66,2.08 34.42,1.97 34.26,1.95 34.11,1.93 33.97,1.87 33.82,1.82 33.70,1.73 33.57,1.64 33.47,1.53 33.37,1.41 33.30,1.27 33.23,1.13 33.19,0.98 33.16,0.83 33.16,0.68 33.16,0.53 33.20,0.38 33.24,0.23 33.31,0.09 33.38,-0.03 33.49,-0.15 33.59,-0.26 33.72,-0.35 33.84,-0.44 33.99,-0.49 34.13,-0.54 34.29,-0.56 Z" fill="#788492" stroke="#788492" stroke-width="2" pointer-events="none"/></g><g font-size="28" font-family="Caveat Brush" text-align="left" fill="#788492" transform-origin="top left" transform="translate(17.325, 19.72)"><text y="18.2">}</text></g></g><g font-size="28" font-family="Caveat Brush" text-align="center" text-anchor="middle" fill="#788492" transform="translate(323.3000000000002, 16.40) rotate(0, 31.5, 33)"><text y="18.2" x="31.5">Left</text><text y="54.59" x="31.5">Paren</text></g><g font-size="28" font-family="Caveat Brush" text-align="center" text-anchor="middle" fill="#788492" transform="translate(395.85000000000014, 16) rotate(0, 31.5, 33)"><text y="18.2" x="31.5">Right</text><text y="54.59" x="31.5">Paren</text></g><g font-size="28" font-family="Caveat Brush" text-align="center" text-anchor="middle" fill="#788492" transform="translate(469.28, 18.66) rotate(0, 29, 33)"><text y="18.2" x="29">Left</text><text y="54.59" x="29">Curly</text></g><g font-size="28" font-family="Caveat Brush" text-align="center" text-anchor="middle" fill="#788492" transform="translate(297.58000000000015, 264.53) rotate(0, 21.5, 19)"><text y="18.2" x="21.5">Dot</text></g><g font-size="28" font-family="Caveat Brush" text-align="center" text-anchor="middle" fill="#788492" transform="translate(16, 285.34) rotate(0, 29.5, 33)"><text y="18.2" x="29.5">Right</text><text y="54.59" x="29.5">Curly</text></g></svg>