<svg xmlns="http://www.w3.org/2000/svg" viewBox="0 0 698.26 291.15" width="666.26" height="259.15" fill="transparent"><defs><style>@import url('https://fonts.googleapis.com/css2?family=Caveat+Brush&amp;family=Source+Code+Pro&amp;family=Source+Sans+Pro&amp;family=Crimson+Pro&amp;display=block');</style></defs><g transform="translate(16, 16) rotate(0, 65.38, 38.72)"><g id="076f08f8-1f7b-4e9f-12ab-400be2caee4c_svg" class="tl-centered-g"><path d="M 91.08,1.37 Q 91.08,1.37 97.44,1.34 103.81,1.32 111.80,1.30 119.79,1.27 123.31,2.75 126.84,4.24 127.74,8.22 128.65,12.21 128.88,16.84 129.12,21.46 129.18,26.25 129.24,31.04 129.26,35.87 129.28,40.70 129.29,45.54 129.30,50.38 129.31,55.22 129.31,60.07 129.32,64.91 129.33,69.76 127.84,72.48 126.35,75.21 119.59,75.85 112.84,76.49 104.74,76.60 96.64,76.71 88.20,76.68 79.76,76.66 71.23,76.60 62.70,76.54 54.15,76.47 45.60,76.40 37.05,76.33 28.49,76.26 19.93,76.18 11.38,76.11 7.70,74.60 4.03,73.10 3.10,69.18 2.17,65.26 1.94,60.72 1.71,56.19 1.65,51.50 1.60,46.81 1.59,42.08 1.59,37.35 1.59,32.61 1.59,27.87 1.60,23.13 1.61,18.39 1.61,13.64 1.62,8.90 3.11,6.20 4.61,3.50 11.35,2.79 18.10,2.08 26.18,1.88 34.27,1.68 42.70,1.60 51.13,1.53 59.64,1.49 68.16,1.45 76.69,1.42 85.23,1.39 96.70,1.35" fill="#fefefe" pointer-events="none"/><path d="M 91.07,0.09 Q 91.07,0.09 97.44,-0.02 103.80,-0.13 111.82,-0.25 119.83,-0.36 123.86,1.41 127.89,3.20 128.98,7.54 130.08,11.89 130.23,16.64 130.39,21.40 130.36,26.21 130.34,31.02 130.36,35.86 130.38,40.69 130.48,45.54 130.58,50.38 130.68,55.22 130.78,60.07 130.86,64.96 130.95,69.85 129.09,73.11 127.23,76.37 120.10,77.16 112.98,77.95 104.82,77.97 96.66,77.99 88.21,77.87 79.76,77.75 71.23,77.69 62.70,77.63 54.14,77.65 45.59,77.68 37.04,77.70 28.48,77.72 19.90,77.74 11.32,77.75 7.16,75.95 3.00,74.14 1.87,69.87 0.75,65.59 0.59,60.92 0.43,56.26 0.47,51.54 0.51,46.82 0.50,42.09 0.49,37.35 0.40,32.61 0.31,27.87 0.23,23.13 0.14,18.39 0.07,13.59 0.00,8.80 1.85,5.57 3.70,2.34 10.82,1.48 17.94,0.63 26.09,0.51 34.24,0.40 42.68,0.42 51.12,0.44 59.63,0.40 68.15,0.36 76.69,0.23 85.23,0.11 96.69,-0.01 108.16,-0.15 108.39,-0.11 108.63,-0.07 108.84,0.03 109.05,0.14 109.21,0.31 109.37,0.48 109.47,0.70 109.57,0.91 109.60,1.15 109.63,1.38 109.58,1.61 109.53,1.85 109.41,2.05 109.28,2.25 109.10,2.41 108.92,2.56 108.70,2.65 108.48,2.74 108.25,2.75 108.01,2.76 107.78,2.70 107.55,2.64 107.36,2.51 107.16,2.38 107.02,2.19 106.87,2.00 106.80,1.77 106.72,1.55 106.72,1.31 106.72,1.08 106.79,0.85 106.87,0.63 107.01,0.44 107.15,0.25 107.35,0.12 107.55,-0.01 107.77,-0.07 108.00,-0.14 108.24,-0.12 108.48,-0.11 108.70,-0.03 108.92,0.05 109.10,0.20 109.28,0.36 109.40,0.56 109.52,0.76 109.58,0.99 109.63,1.22 109.60,1.46 109.58,1.70 109.48,1.91 109.38,2.13 109.22,2.30 109.05,2.47 108.85,2.58 108.64,2.69 108.40,2.73 108.17,2.77 108.17,2.77 108.17,2.77 96.70,2.72 85.24,2.67 76.70,2.61 68.16,2.54 59.65,2.58 51.14,2.62 42.72,2.79 34.30,2.96 26.28,3.25 18.25,3.54 11.88,4.10 5.51,4.66 4.38,6.83 3.25,9.00 3.16,13.70 3.07,18.39 2.97,23.13 2.87,27.87 2.77,32.61 2.68,37.35 2.69,42.08 2.69,46.80 2.84,51.46 2.98,56.13 3.29,60.53 3.60,64.92 4.33,68.48 5.07,72.05 8.25,73.26 11.43,74.47 19.97,74.63 28.50,74.79 37.06,74.96 45.61,75.12 54.16,75.28 62.71,75.44 71.24,75.50 79.76,75.56 88.19,75.50 96.62,75.43 104.66,75.23 112.70,75.03 119.08,74.54 125.47,74.04 126.58,71.85 127.70,69.66 127.78,64.86 127.85,60.07 127.94,55.23 128.02,50.38 128.11,45.54 128.19,40.70 128.17,35.88 128.15,31.05 127.99,26.29 127.84,21.53 127.53,17.03 127.22,12.53 126.51,8.90 125.80,5.27 122.77,4.09 119.74,2.91 111.78,2.85 103.81,2.79 97.45,2.72 91.08,2.64 90.93,2.63 90.77,2.61 90.63,2.55 90.48,2.50 90.36,2.41 90.23,2.33 90.13,2.21 90.03,2.10 89.95,1.96 89.88,1.82 89.84,1.67 89.81,1.52 89.81,1.37 89.81,1.22 89.84,1.07 89.88,0.92 89.95,0.78 90.02,0.64 90.12,0.53 90.22,0.41 90.35,0.32 90.48,0.24 90.62,0.18 90.77,0.13 90.92,0.11 Z" fill="#1d1d1d" stroke="#1d1d1d" stroke-width="2" pointer-events="none"/></g><g font-size="28" font-family="Caveat Brush" text-align="left" fill="#1d1d1d" transform-origin="top left" transform="translate(22.385000000000005, 19.72)"><text y="18.2">function</text></g></g><g transform="translate(161.74, 16) rotate(0, 45.83, 38.72)"><g id="0fbbc122-c479-41ee-1ce5-bf7e782659ca_svg" class="tl-centered-g"><path d="M 1.55,24.58 Q 1.55,24.58 1.57,21.06 1.59,17.54 1.61,13.11 1.63,8.69 3.13,6.08 4.63,3.46 9.32,2.73 14.01,2.00 19.51,1.75 25.02,1.50 30.73,1.38 36.45,1.25 42.21,1.16 47.98,1.06 53.76,0.98 59.54,0.89 65.32,0.81 71.11,0.72 76.89,0.64 82.67,0.55 85.64,2.02 88.60,3.49 89.34,7.50 90.08,11.51 90.25,16.16 90.41,20.82 90.44,25.64 90.46,30.46 90.45,35.33 90.44,40.19 90.41,45.07 90.39,49.94 90.37,54.82 90.34,59.69 90.32,64.57 90.29,69.45 88.79,72.18 87.30,74.92 82.61,75.56 77.91,76.21 72.41,76.33 66.90,76.45 61.19,76.43 55.48,76.41 49.71,76.35 43.94,76.30 38.16,76.24 32.38,76.18 26.60,76.11 20.82,76.05 15.03,75.98 9.25,75.91 6.28,74.41 3.32,72.90 2.58,68.99 1.84,65.09 1.67,60.57 1.51,56.05 1.48,51.37 1.46,46.70 1.47,41.98 1.49,37.27 1.51,32.54 1.53,27.82 1.57,21.47" fill="#fefefe" pointer-events="none"/><path d="M 0.27,24.57 Q 0.27,24.57 0.20,21.05 0.12,17.53 0.07,13.05 0.01,8.58 1.83,5.46 3.64,2.33 8.71,1.44 13.78,0.55 19.37,0.39 24.96,0.22 30.69,0.19 36.42,0.16 42.19,0.06 47.96,-0.02 53.74,-0.20 59.52,-0.38 65.30,-0.56 71.08,-0.73 76.91,-0.90 82.73,-1.07 86.21,0.70 89.69,2.49 90.61,6.87 91.52,11.25 91.60,16.01 91.69,20.77 91.62,25.62 91.56,30.46 91.54,35.33 91.53,40.19 91.60,45.07 91.67,49.95 91.74,54.82 91.81,59.70 91.86,64.63 91.92,69.55 90.08,72.80 88.25,76.05 83.18,76.86 78.11,77.66 72.52,77.69 66.93,77.72 61.20,77.61 55.47,77.50 49.70,77.45 43.93,77.39 38.15,77.42 32.37,77.45 26.58,77.48 20.80,77.51 14.98,77.53 9.15,77.55 5.69,75.73 2.23,73.92 1.32,69.64 0.40,65.36 0.32,60.73 0.23,56.10 0.30,51.40 0.37,46.70 0.38,41.98 0.39,37.26 0.32,32.54 0.25,27.81 0.19,21.46 0.14,15.12 0.17,14.88 0.21,14.65 0.33,14.44 0.44,14.23 0.61,14.07 0.78,13.91 1.00,13.81 1.22,13.71 1.45,13.69 1.69,13.66 1.92,13.71 2.15,13.77 2.35,13.89 2.55,14.01 2.71,14.19 2.86,14.38 2.94,14.60 3.03,14.82 3.04,15.05 3.05,15.29 2.99,15.52 2.92,15.75 2.79,15.94 2.66,16.14 2.47,16.28 2.28,16.42 2.05,16.50 1.83,16.57 1.59,16.57 1.35,16.57 1.13,16.49 0.91,16.41 0.72,16.27 0.53,16.12 0.40,15.93 0.27,15.73 0.20,15.50 0.14,15.27 0.16,15.04 0.17,14.80 0.26,14.58 0.35,14.36 0.50,14.18 0.66,14.00 0.86,13.88 1.07,13.76 1.30,13.71 1.53,13.66 1.76,13.69 2.00,13.71 2.21,13.82 2.43,13.92 2.60,14.08 2.77,14.24 2.88,14.45 2.99,14.66 3.03,14.90 3.06,15.13 3.06,15.13 3.06,15.13 2.94,21.48 2.81,27.82 2.69,32.55 2.58,37.27 2.57,41.98 2.55,46.69 2.67,51.35 2.78,56.00 3.03,60.41 3.28,64.82 3.84,68.35 4.40,71.88 6.87,73.08 9.34,74.28 15.09,74.43 20.83,74.58 26.61,74.74 32.40,74.90 38.17,75.05 43.95,75.21 49.72,75.26 55.48,75.31 61.18,75.24 66.88,75.17 72.30,74.97 77.72,74.76 82.03,74.27 86.34,73.78 87.50,71.56 88.66,69.35 88.77,64.52 88.88,59.69 88.99,54.81 89.11,49.93 89.23,45.06 89.34,40.19 89.36,35.33 89.37,30.47 89.25,25.67 89.14,20.87 88.89,16.32 88.64,11.77 88.08,8.13 87.51,4.50 85.06,3.34 82.61,2.18 76.87,2.18 71.13,2.19 65.34,2.18 59.56,2.17 53.78,2.16 48.00,2.15 42.23,2.25 36.47,2.34 30.77,2.56 25.08,2.78 19.66,3.11 14.23,3.45 9.92,4.01 5.62,4.58 4.44,6.69 3.26,8.81 3.15,13.17 3.05,17.54 2.94,21.07 2.83,24.59 2.81,24.74 2.79,24.89 2.73,25.04 2.68,25.18 2.59,25.31 2.50,25.43 2.38,25.54 2.27,25.64 2.13,25.71 1.99,25.78 1.84,25.82 1.69,25.85 1.54,25.85 1.39,25.85 1.24,25.81 1.09,25.77 0.95,25.70 0.82,25.63 0.70,25.53 0.59,25.42 0.50,25.30 0.41,25.17 0.36,25.02 0.30,24.88 0.29,24.73 Z" fill="#1d1d1d" stroke="#1d1d1d" stroke-width="2" pointer-events="none"/></g><g font-size="28" font-family="Caveat Brush" text-align="left" fill="#1d1d1d" transform-origin="top left" transform="translate(19.83, 19.72)"><text y="18.2">hello</text></g></g><g transform="translate(270.18000000000006, 16) rotate(0, 25.82, 38.72)"><g id="a817d0e6-ce70-4d4f-1b17-b98f9407e2dc_svg" class="tl-centered-g"><path d="M 16.94,77.07 Q 16.94,77.07 14.71,77.09 12.48,77.10 9.67,77.12 6.87,77.14 4.66,75.65 2.46,74.17 1.87,70.13 1.27,66.09 1.09,61.41 0.91,56.72 0.84,51.87 0.76,47.02 0.71,42.12 0.66,37.23 0.62,32.32 0.57,27.42 0.53,22.51 0.49,17.60 0.45,12.69 0.41,7.78 1.89,5.04 3.37,2.30 6.03,1.67 8.69,1.04 11.65,0.95 14.61,0.86 17.65,0.90 20.69,0.95 23.75,1.03 26.81,1.11 29.87,1.20 32.94,1.29 36.00,1.38 39.06,1.47 42.13,1.56 45.19,1.65 47.47,3.17 49.74,4.68 50.30,8.64 50.86,12.60 50.98,17.19 51.10,21.77 51.12,26.51 51.13,31.26 51.11,36.04 51.09,40.83 51.07,45.62 51.05,50.41 51.02,55.21 51.00,60.01 50.97,64.81 50.94,69.60 49.45,72.32 47.95,75.03 45.34,75.74 42.72,76.44 39.82,76.64 36.92,76.83 33.95,76.89 30.97,76.96 27.98,76.99 24.99,77.02 21.99,77.04 19.00,77.06 14.97,77.09" fill="#fefefe" pointer-events="none"/><path d="M 16.95,78.35 Q 16.95,78.35 14.72,78.46 12.49,78.57 9.60,78.65 6.72,78.74 4.01,76.95 1.31,75.17 0.57,70.74 -0.16,66.31 -0.26,61.54 -0.36,56.77 -0.34,51.90 -0.32,47.03 -0.37,42.14 -0.42,37.24 -0.56,32.33 -0.69,27.43 -0.83,22.52 -0.96,17.61 -1.08,12.66 -1.21,7.70 0.53,4.47 2.28,1.24 5.32,0.43 8.36,-0.38 11.47,-0.39 14.57,-0.41 17.64,-0.27 20.71,-0.14 23.77,-0.06 26.84,0.02 29.90,0.01 32.97,0.01 36.04,0.01 39.11,0.01 42.24,0.03 45.37,0.05 48.13,1.87 50.89,3.69 51.60,8.04 52.31,12.40 52.34,17.07 52.38,21.74 52.30,26.50 52.22,31.26 52.20,36.04 52.19,40.83 52.26,45.63 52.33,50.42 52.39,55.22 52.46,60.02 52.52,64.86 52.57,69.71 50.83,72.89 49.09,76.07 46.09,76.96 43.10,77.86 40.05,77.98 37.00,78.11 34.00,78.08 31.00,78.05 28.00,78.08 25.00,78.11 22.00,78.22 19.00,78.34 14.98,78.46 10.96,78.58 10.72,78.54 10.49,78.50 10.28,78.39 10.07,78.28 9.90,78.11 9.74,77.94 9.64,77.73 9.54,77.51 9.51,77.28 9.48,77.04 9.53,76.81 9.58,76.58 9.70,76.37 9.83,76.17 10.00,76.02 10.18,75.86 10.40,75.77 10.62,75.68 10.86,75.67 11.10,75.66 11.32,75.72 11.55,75.78 11.75,75.91 11.95,76.04 12.09,76.23 12.24,76.42 12.31,76.64 12.39,76.87 12.39,77.10 12.39,77.34 12.32,77.56 12.25,77.79 12.10,77.98 11.96,78.17 11.77,78.30 11.57,78.44 11.34,78.50 11.11,78.57 10.88,78.56 10.64,78.54 10.42,78.46 10.20,78.37 10.02,78.22 9.84,78.07 9.71,77.86 9.59,77.66 9.54,77.43 9.49,77.20 9.51,76.96 9.53,76.73 9.63,76.51 9.73,76.30 9.89,76.12 10.05,75.95 10.26,75.84 10.47,75.73 10.70,75.69 10.94,75.65 10.94,75.65 10.94,75.65 14.96,75.71 18.99,75.78 21.98,75.85 24.98,75.92 27.96,75.89 30.95,75.86 33.89,75.71 36.83,75.55 39.59,75.29 42.34,75.03 44.58,74.51 46.82,73.99 48.07,71.74 49.32,69.50 49.43,64.75 49.53,60.00 49.65,55.20 49.77,50.41 49.89,45.62 50.00,40.82 50.02,36.04 50.03,31.26 49.93,26.53 49.83,21.81 49.62,17.31 49.41,12.81 48.99,9.24 48.58,5.67 46.80,4.47 45.01,3.26 42.02,3.10 39.02,2.93 35.96,2.75 32.90,2.56 29.84,2.38 26.78,2.20 23.73,2.12 20.68,2.04 17.66,2.09 14.65,2.13 11.84,2.30 9.02,2.46 6.74,2.91 4.46,3.36 3.25,5.61 2.04,7.87 2.00,12.73 1.96,17.59 1.90,22.50 1.85,27.41 1.80,32.31 1.75,37.22 1.80,42.11 1.85,47.00 2.02,51.84 2.19,56.67 2.46,61.28 2.72,65.88 3.17,69.52 3.61,73.17 5.32,74.35 7.02,75.54 9.74,75.59 12.47,75.64 14.70,75.72 16.94,75.80 17.09,75.81 17.24,75.83 17.39,75.89 17.53,75.94 17.66,76.03 17.79,76.11 17.89,76.23 17.99,76.34 18.06,76.48 18.14,76.61 18.17,76.76 18.21,76.91 18.21,77.07 18.21,77.22 18.18,77.37 18.14,77.52 18.07,77.66 18.00,77.79 17.90,77.91 17.80,78.03 17.67,78.11 17.55,78.20 17.40,78.26 17.26,78.31 17.10,78.33 Z" fill="#1d1d1d" stroke="#1d1d1d" stroke-width="2" pointer-events="none"/></g><g font-size="28" font-family="Caveat Brush" text-align="left" fill="#1d1d1d" transform-origin="top left" transform="translate(17.325, 19.72)"><text y="18.2">(</text></g></g><g transform="translate(335.5100000000002, 17.79) rotate(0, 25.82, 38.72)"><g id="95384676-1ef1-49eb-2d74-e0f127a39956_svg" class="tl-centered-g"><path d="M 34.54,1.01 Q 34.54,1.01 36.80,1.06 39.05,1.11 41.89,1.17 44.72,1.23 46.93,2.74 49.14,4.25 49.68,8.17 50.23,12.09 50.34,16.62 50.46,21.16 50.46,25.85 50.47,30.54 50.45,35.27 50.43,40.01 50.40,44.75 50.37,49.49 50.34,54.24 50.31,58.98 50.28,63.73 50.25,68.48 48.76,71.18 47.26,73.88 44.66,74.64 42.07,75.41 39.19,75.68 36.31,75.95 33.36,76.09 30.41,76.24 27.45,76.35 24.48,76.46 21.51,76.57 18.54,76.67 15.56,76.77 12.59,76.88 9.62,76.98 6.65,77.08 4.40,75.61 2.15,74.15 1.56,70.12 0.96,66.08 0.79,61.39 0.62,56.70 0.56,51.84 0.50,46.99 0.46,42.09 0.43,37.19 0.40,32.27 0.37,27.36 0.35,22.45 0.32,17.54 0.29,12.62 0.27,7.71 1.75,4.96 3.23,2.22 5.87,1.57 8.50,0.92 11.43,0.81 14.36,0.69 17.36,0.71 20.37,0.73 23.39,0.78 26.41,0.84 29.44,0.90 32.47,0.97 36.53,1.06" fill="#fefefe" pointer-events="none"/><path d="M 34.57,-0.26 Q 34.57,-0.26 36.83,-0.30 39.09,-0.34 41.99,-0.35 44.90,-0.36 47.60,1.44 50.30,3.26 50.99,7.57 51.68,11.89 51.71,16.51 51.73,21.12 51.65,25.83 51.56,30.54 51.54,35.28 51.52,40.01 51.59,44.76 51.65,49.50 51.72,54.25 51.78,58.99 51.83,63.79 51.88,68.58 50.15,71.74 48.42,74.90 45.45,75.86 42.47,76.81 39.45,77.02 36.43,77.22 33.45,77.27 30.47,77.33 27.49,77.44 24.52,77.55 21.55,77.75 18.58,77.95 15.61,78.14 12.64,78.34 9.59,78.51 6.53,78.68 3.77,76.91 1.00,75.15 0.26,70.72 -0.47,66.29 -0.56,61.52 -0.64,56.75 -0.61,51.87 -0.58,47.00 -0.62,42.10 -0.65,37.19 -0.78,32.28 -0.90,27.37 -1.02,22.46 -1.14,17.54 -1.24,12.58 -1.35,7.62 0.39,4.39 2.13,1.17 5.14,0.33 8.16,-0.49 11.23,-0.53 14.31,-0.58 17.34,-0.47 20.38,-0.35 23.40,-0.30 26.43,-0.24 29.46,-0.27 32.49,-0.30 36.56,-0.31 40.63,-0.31 40.86,-0.27 41.10,-0.22 41.30,-0.11 41.51,0.00 41.67,0.17 41.83,0.35 41.92,0.57 42.02,0.78 42.04,1.02 42.06,1.25 42.00,1.48 41.95,1.72 41.82,1.92 41.69,2.12 41.51,2.27 41.33,2.41 41.10,2.50 40.88,2.58 40.65,2.59 40.41,2.60 40.18,2.53 39.95,2.46 39.76,2.32 39.57,2.18 39.43,1.99 39.29,1.80 39.22,1.57 39.15,1.35 39.15,1.11 39.16,0.88 39.24,0.65 39.32,0.43 39.47,0.24 39.62,0.06 39.81,-0.06 40.01,-0.19 40.24,-0.25 40.47,-0.31 40.71,-0.29 40.94,-0.27 41.16,-0.18 41.38,-0.08 41.56,0.06 41.74,0.22 41.85,0.43 41.97,0.63 42.02,0.86 42.06,1.10 42.03,1.33 42.00,1.57 41.90,1.78 41.79,1.99 41.63,2.16 41.46,2.33 41.25,2.43 41.04,2.54 40.80,2.57 40.57,2.61 40.57,2.61 40.57,2.61 36.50,2.43 32.44,2.25 29.42,2.09 26.39,1.93 23.38,1.88 20.36,1.82 17.39,1.90 14.41,1.97 11.63,2.16 8.85,2.34 6.59,2.81 4.34,3.27 3.12,5.54 1.89,7.80 1.84,12.66 1.78,17.53 1.72,22.44 1.65,27.36 1.59,32.27 1.52,37.18 1.56,42.07 1.59,46.97 1.75,51.81 1.90,56.65 2.16,61.26 2.41,65.87 2.86,69.51 3.30,73.15 5.03,74.32 6.76,75.48 9.65,75.44 12.54,75.41 15.52,75.40 18.49,75.39 21.47,75.38 24.44,75.37 27.40,75.26 30.36,75.14 33.28,74.91 36.19,74.67 38.92,74.34 41.66,74.00 43.88,73.43 46.10,72.85 47.36,70.61 48.63,68.37 48.74,63.67 48.85,58.97 48.97,54.23 49.10,49.49 49.22,44.74 49.34,40.00 49.36,35.27 49.38,30.54 49.28,25.87 49.18,21.19 48.98,16.74 48.78,12.29 48.38,8.76 47.98,5.24 46.26,4.04 44.54,2.84 41.78,2.71 39.02,2.57 36.77,2.43 34.51,2.29 34.36,2.27 34.21,2.24 34.06,2.19 33.92,2.13 33.80,2.04 33.67,1.95 33.57,1.83 33.47,1.71 33.40,1.58 33.34,1.44 33.30,1.29 33.27,1.14 33.27,0.98 33.27,0.83 33.32,0.68 33.36,0.53 33.43,0.40 33.50,0.26 33.61,0.15 33.71,0.03 33.84,-0.04 33.97,-0.12 34.12,-0.18 34.26,-0.23 34.42,-0.24 Z" fill="#1d1d1d" stroke="#1d1d1d" stroke-width="2" pointer-events="none"/></g><g font-size="28" font-family="Caveat Brush" text-align="left" fill="#1d1d1d" transform-origin="top left" transform="translate(17.325, 19.72)"><text y="18.2">)</text></g></g><g transform="translate(401.2700000000002, 17.79) rotate(0, 25.82, 38.72)"><g id="2d9eb8bf-8269-4381-0f34-8cadaa40e803_svg" class="tl-centered-g"><path d="M 16.56,76.53 Q 16.56,76.53 14.30,76.50 12.04,76.47 9.20,76.44 6.36,76.40 4.15,74.90 1.93,73.40 1.40,69.42 0.87,65.43 0.77,60.82 0.66,56.20 0.67,51.42 0.68,46.64 0.71,41.82 0.75,37.00 0.79,32.16 0.83,27.33 0.87,22.50 0.92,17.67 0.96,12.83 1.00,8.00 2.50,5.27 4.01,2.55 6.61,1.90 9.22,1.25 12.11,1.12 15.00,1.00 17.96,1.01 20.92,1.02 23.90,1.06 26.88,1.11 29.87,1.16 32.85,1.22 35.84,1.27 38.82,1.33 41.81,1.39 44.80,1.44 47.05,2.95 49.30,4.45 49.88,8.42 50.46,12.39 50.61,16.99 50.76,21.60 50.80,26.36 50.85,31.12 50.86,35.92 50.88,40.72 50.88,45.53 50.89,50.35 50.90,55.16 50.91,59.98 50.91,64.79 50.92,69.61 49.43,72.33 47.94,75.05 45.30,75.71 42.66,76.38 39.72,76.52 36.79,76.66 33.78,76.67 30.77,76.67 27.74,76.65 24.71,76.62 21.67,76.59 18.64,76.55 14.57,76.50" fill="#fefefe" pointer-events="none"/><path d="M 16.55,77.81 Q 16.55,77.81 14.28,77.87 12.02,77.94 9.11,77.97 6.19,78.00 3.48,76.19 0.77,74.38 0.10,70.01 -0.57,65.63 -0.59,60.93 -0.60,56.23 -0.50,51.43 -0.41,46.64 -0.37,41.81 -0.34,36.99 -0.39,32.16 -0.44,27.32 -0.49,22.49 -0.54,17.65 -0.58,12.77 -0.61,7.89 1.14,4.69 2.89,1.50 5.88,0.66 8.87,-0.17 11.91,-0.22 14.94,-0.27 17.94,-0.17 20.93,-0.06 23.91,-0.02 26.90,0.02 29.89,-0.01 32.88,-0.05 35.86,-0.09 38.85,-0.13 41.91,-0.14 44.97,-0.15 47.71,1.64 50.45,3.45 51.18,7.82 51.91,12.18 51.97,16.87 52.04,21.55 51.99,26.33 51.94,31.11 51.95,35.91 51.97,40.72 52.07,45.53 52.17,50.35 52.27,55.16 52.37,59.98 52.46,64.84 52.54,69.71 50.80,72.90 49.05,76.10 46.03,76.95 43.01,77.80 39.93,77.87 36.85,77.93 33.81,77.85 30.77,77.77 27.73,77.74 24.70,77.71 21.66,77.77 18.63,77.83 14.55,77.87 10.47,77.92 10.24,77.87 10.01,77.83 9.80,77.72 9.59,77.61 9.43,77.43 9.27,77.26 9.17,77.04 9.08,76.83 9.05,76.59 9.03,76.35 9.08,76.12 9.14,75.89 9.26,75.69 9.39,75.49 9.57,75.34 9.75,75.19 9.97,75.10 10.19,75.02 10.43,75.01 10.67,75.00 10.89,75.06 11.12,75.13 11.32,75.27 11.51,75.40 11.65,75.59 11.79,75.78 11.87,76.01 11.94,76.23 11.94,76.47 11.93,76.71 11.85,76.93 11.78,77.15 11.63,77.34 11.48,77.53 11.29,77.66 11.09,77.79 10.86,77.85 10.63,77.91 10.39,77.89 10.16,77.88 9.94,77.79 9.72,77.70 9.54,77.54 9.36,77.39 9.24,77.18 9.12,76.98 9.08,76.74 9.03,76.51 9.06,76.28 9.08,76.04 9.19,75.83 9.29,75.61 9.45,75.44 9.62,75.27 9.83,75.17 10.04,75.06 10.27,75.02 10.51,74.99 10.51,74.99 10.51,74.99 14.58,75.13 18.65,75.27 21.69,75.40 24.72,75.53 27.74,75.55 30.76,75.58 33.75,75.48 36.73,75.38 39.52,75.17 42.31,74.95 44.57,74.47 46.83,73.99 48.06,71.75 49.29,69.51 49.37,64.75 49.44,59.98 49.53,55.16 49.61,50.35 49.70,45.54 49.78,40.73 49.77,35.93 49.75,31.13 49.62,26.38 49.48,21.64 49.24,17.12 49.01,12.60 48.58,9.03 48.15,5.45 46.39,4.25 44.62,3.05 41.71,2.92 38.80,2.79 35.81,2.64 32.83,2.50 29.85,2.35 26.87,2.20 23.89,2.16 20.92,2.11 17.99,2.19 15.05,2.28 12.31,2.47 9.57,2.67 7.34,3.14 5.12,3.60 3.87,5.85 2.63,8.10 2.50,12.89 2.38,17.68 2.24,22.51 2.11,27.34 1.97,32.17 1.84,37.00 1.80,41.82 1.77,46.64 1.86,51.40 1.94,56.17 2.13,60.70 2.32,65.24 2.71,68.83 3.10,72.42 4.81,73.61 6.53,74.80 9.29,74.90 12.06,75.01 14.32,75.13 16.58,75.25 16.73,75.27 16.88,75.29 17.03,75.35 17.17,75.40 17.30,75.49 17.42,75.58 17.52,75.70 17.62,75.81 17.69,75.95 17.76,76.09 17.80,76.24 17.83,76.39 17.83,76.54 17.83,76.70 17.79,76.85 17.75,77.00 17.68,77.13 17.61,77.27 17.50,77.38 17.40,77.49 17.27,77.58 17.14,77.67 17.00,77.72 16.85,77.77 16.70,77.79 Z" fill="#1d1d1d" stroke="#1d1d1d" stroke-width="2" pointer-events="none"/></g><g font-size="28" font-family="Caveat Brush" text-align="left" fill="#1d1d1d" transform-origin="top left" transform="translate(17.325, 19.72)"><text y="18.2">{</text></g></g><g transform="translate(84.40000000000009, 109.72) rotate(0, 65.38, 38.72)"><g id="6379d2df-ef5c-4d72-05c5-4dc00f80e45f_svg" class="tl-centered-g"><path d="M 0.59,24.29 Q 0.59,24.29 0.55,20.69 0.51,17.10 0.46,12.59 0.41,8.08 1.88,5.44 3.36,2.80 10.22,2.15 17.08,1.51 25.31,1.37 33.54,1.23 42.12,1.23 50.70,1.22 59.37,1.24 68.04,1.27 76.73,1.30 85.42,1.34 94.12,1.37 102.82,1.41 111.52,1.45 120.22,1.48 123.93,2.98 127.64,4.48 128.59,8.45 129.55,12.42 129.80,17.01 130.05,21.61 130.12,26.37 130.19,31.13 130.22,35.93 130.24,40.73 130.26,45.53 130.27,50.34 130.28,55.16 130.30,59.97 130.31,64.78 130.32,69.59 128.83,72.31 127.34,75.03 120.52,75.70 113.69,76.37 105.50,76.53 97.31,76.68 88.77,76.70 80.23,76.72 71.61,76.70 62.98,76.69 54.33,76.67 45.68,76.64 37.03,76.62 28.38,76.59 19.72,76.57 11.06,76.54 7.37,75.04 3.67,73.55 2.69,69.57 1.70,65.60 1.41,60.99 1.12,56.38 1.00,51.61 0.89,46.85 0.82,42.04 0.75,37.23 0.69,32.41 0.63,27.59 0.56,21.11" fill="#fefefe" pointer-events="none"/><path d="M -0.68,24.30 Q -0.68,24.30 -0.81,20.71 -0.95,17.12 -1.08,12.55 -1.21,7.99 0.63,4.81 2.48,1.63 9.71,0.84 16.94,0.05 25.23,0.00 33.52,-0.03 42.11,0.04 50.70,0.13 59.37,0.15 68.04,0.18 76.74,0.12 85.43,0.06 94.13,0.00 102.83,-0.05 111.55,-0.10 120.27,-0.15 124.47,1.64 128.67,3.43 129.82,7.75 130.97,12.08 131.15,16.81 131.32,21.54 131.30,26.33 131.28,31.11 131.31,35.92 131.34,40.72 131.44,45.53 131.55,50.34 131.66,55.15 131.76,59.96 131.85,64.83 131.94,69.69 130.09,72.94 128.23,76.19 121.03,77.01 113.83,77.83 105.58,77.90 97.33,77.96 88.78,77.88 80.23,77.81 71.61,77.80 62.98,77.78 54.33,77.85 45.68,77.92 37.03,77.99 28.37,78.06 19.69,78.12 11.01,78.18 6.83,76.40 2.64,74.61 1.46,70.28 0.28,65.94 0.06,61.20 -0.15,56.46 -0.17,51.67 -0.19,46.87 -0.26,42.06 -0.33,37.24 -0.49,32.42 -0.64,27.60 -0.81,21.13 -0.97,14.66 -0.94,14.42 -0.90,14.19 -0.79,13.98 -0.69,13.77 -0.52,13.60 -0.35,13.44 -0.13,13.34 0.07,13.23 0.31,13.21 0.54,13.18 0.77,13.23 1.01,13.27 1.21,13.39 1.42,13.51 1.57,13.69 1.73,13.87 1.82,14.09 1.91,14.31 1.92,14.55 1.94,14.78 1.88,15.01 1.82,15.24 1.69,15.44 1.55,15.63 1.37,15.78 1.18,15.93 0.96,16.00 0.73,16.08 0.50,16.08 0.26,16.09 0.03,16.01 -0.18,15.94 -0.37,15.80 -0.56,15.66 -0.70,15.46 -0.83,15.27 -0.90,15.04 -0.96,14.81 -0.95,14.58 -0.94,14.34 -0.86,14.12 -0.77,13.90 -0.62,13.72 -0.47,13.53 -0.27,13.41 -0.07,13.29 0.15,13.23 0.38,13.18 0.62,13.20 0.86,13.22 1.07,13.32 1.29,13.42 1.46,13.58 1.64,13.74 1.75,13.95 1.86,14.16 1.90,14.39 1.94,14.62 1.94,14.62 1.94,14.62 1.93,21.10 1.91,27.57 1.87,32.39 1.84,37.21 1.91,42.02 1.98,46.82 2.19,51.56 2.39,56.30 2.76,60.78 3.12,65.25 3.91,68.87 4.69,72.49 7.90,73.69 11.11,74.90 19.75,75.01 28.38,75.13 37.03,75.25 45.69,75.36 54.33,75.48 62.98,75.60 71.61,75.61 80.23,75.63 88.76,75.51 97.28,75.40 105.41,75.16 113.54,74.92 120.00,74.39 126.46,73.87 127.57,71.68 128.69,69.50 128.76,64.74 128.83,59.97 128.91,55.16 128.99,50.35 129.07,45.54 129.15,40.73 129.12,35.94 129.10,31.14 128.93,26.41 128.77,21.68 128.45,17.22 128.12,12.75 127.36,9.14 126.61,5.53 123.39,4.33 120.17,3.12 111.49,3.00 102.82,2.87 94.12,2.74 85.42,2.62 76.73,2.49 68.04,2.36 59.37,2.34 50.70,2.31 42.13,2.41 33.56,2.51 25.39,2.74 17.21,2.97 10.73,3.47 4.24,3.97 3.14,6.07 2.03,8.17 2.00,12.63 1.97,17.08 1.92,20.68 1.87,24.27 1.85,24.43 1.83,24.58 1.78,24.72 1.73,24.87 1.64,25.00 1.56,25.12 1.44,25.23 1.33,25.33 1.19,25.40 1.06,25.48 0.91,25.52 0.76,25.55 0.60,25.56 0.45,25.56 0.30,25.52 0.15,25.49 0.01,25.42 -0.11,25.35 -0.23,25.25 -0.35,25.15 -0.44,25.02 -0.53,24.89 -0.58,24.75 -0.64,24.61 -0.66,24.45 Z" fill="#1d1d1d" stroke="#1d1d1d" stroke-width="2" pointer-events="none"/></g><g font-size="28" font-family="Caveat Brush" text-align="left" fill="#1d1d1d" transform-origin="top left" transform="translate(27.885000000000005, 19.72)"><text y="18.2">console</text></g></g><g transform="translate(227.57000000000016, 109.72) rotate(0, 25.82, 38.72)"><g id="0b3943c6-b97a-4889-0f32-cbf2506b92f7_svg" class="tl-centered-g"><path d="M 50.51,53.82 Q 50.51,53.82 50.47,57.40 50.44,60.99 50.39,65.48 50.35,69.98 48.85,72.62 47.35,75.26 44.74,75.87 42.12,76.49 39.23,76.59 36.33,76.69 33.36,76.65 30.39,76.62 27.40,76.56 24.41,76.49 21.42,76.42 18.43,76.34 15.43,76.27 12.44,76.19 9.44,76.11 6.45,76.04 4.20,74.53 1.94,73.02 1.43,69.05 0.91,65.07 0.83,60.47 0.76,55.87 0.80,51.11 0.84,46.35 0.90,41.55 0.97,36.75 1.05,31.93 1.12,27.12 1.20,22.31 1.27,17.49 1.35,12.68 1.43,7.86 2.94,5.15 4.45,2.43 7.04,1.79 9.63,1.16 12.50,1.06 15.37,0.96 18.31,0.99 21.25,1.03 24.21,1.10 27.16,1.16 30.13,1.24 33.09,1.32 36.05,1.40 39.01,1.48 41.98,1.56 44.94,1.64 47.18,3.15 49.43,4.66 49.97,8.63 50.51,12.60 50.61,17.20 50.71,21.80 50.70,26.55 50.70,31.31 50.66,36.11 50.62,40.91 50.58,45.72 50.54,50.52 50.48,56.98" fill="#fefefe" pointer-events="none"/><path d="M 51.79,53.83 Q 51.79,53.83 51.84,57.41 51.90,61.00 51.94,65.55 51.97,70.10 50.21,73.21 48.45,76.33 45.45,77.12 42.45,77.91 39.41,77.94 36.37,77.96 33.37,77.84 30.38,77.72 27.38,77.65 24.39,77.58 21.39,77.60 18.39,77.62 15.40,77.64 12.40,77.65 9.34,77.65 6.27,77.64 3.53,75.82 0.78,73.99 0.12,69.63 -0.53,65.26 -0.52,60.58 -0.51,55.89 -0.38,51.12 -0.25,46.34 -0.18,41.54 -0.11,36.73 -0.13,31.92 -0.15,27.10 -0.16,22.29 -0.18,17.47 -0.18,12.61 -0.19,7.75 1.57,4.56 3.34,1.37 6.32,0.55 9.29,-0.25 12.31,-0.28 15.33,-0.31 18.29,-0.18 21.26,-0.06 24.23,0.00 27.19,0.07 30.15,0.06 33.12,0.04 36.09,0.03 39.05,0.02 42.09,0.03 45.12,0.03 47.86,1.86 50.59,3.68 51.27,8.04 51.96,12.41 51.97,17.09 51.99,21.77 51.89,26.54 51.79,31.31 51.75,36.11 51.72,40.92 51.77,45.73 51.82,50.54 51.85,56.99 51.88,63.45 51.84,63.69 51.80,63.92 51.68,64.13 51.57,64.34 51.40,64.50 51.22,64.66 51.01,64.76 50.79,64.85 50.56,64.88 50.32,64.90 50.09,64.85 49.86,64.79 49.66,64.67 49.46,64.55 49.30,64.36 49.15,64.18 49.07,63.96 48.98,63.74 48.97,63.50 48.96,63.27 49.03,63.04 49.09,62.81 49.23,62.62 49.36,62.42 49.55,62.28 49.74,62.14 49.97,62.07 50.19,61.99 50.43,61.99 50.67,62.00 50.89,62.07 51.11,62.15 51.30,62.30 51.49,62.44 51.62,62.64 51.75,62.84 51.81,63.07 51.87,63.29 51.86,63.53 51.84,63.77 51.75,63.99 51.66,64.21 51.51,64.39 51.35,64.56 51.15,64.68 50.94,64.80 50.71,64.85 50.48,64.90 50.24,64.87 50.01,64.85 49.80,64.74 49.58,64.64 49.41,64.48 49.24,64.31 49.13,64.10 49.02,63.89 48.99,63.66 48.95,63.42 48.95,63.43 48.95,63.43 49.10,56.97 49.26,50.51 49.39,45.71 49.53,40.90 49.57,36.10 49.60,31.31 49.52,26.57 49.43,21.82 49.25,17.31 49.06,12.80 48.66,9.22 48.27,5.65 46.51,4.45 44.76,3.25 41.87,3.09 38.97,2.94 36.01,2.77 33.05,2.60 30.10,2.43 27.14,2.26 24.19,2.19 21.24,2.12 18.33,2.18 15.42,2.24 12.70,2.41 9.97,2.58 7.76,3.04 5.55,3.49 4.30,5.73 3.05,7.98 2.90,12.75 2.74,17.52 2.57,22.33 2.40,27.14 2.23,31.95 2.06,36.76 2.00,41.56 1.93,46.36 1.98,51.10 2.04,55.85 2.20,60.37 2.36,64.88 2.73,68.46 3.11,72.04 4.87,73.24 6.63,74.43 9.55,74.58 12.48,74.73 15.47,74.90 18.46,75.07 21.45,75.23 24.44,75.40 27.42,75.46 30.40,75.53 33.34,75.47 36.28,75.41 39.04,75.24 41.79,75.06 44.02,74.63 46.25,74.19 47.49,72.03 48.73,69.87 48.85,65.42 48.97,60.97 49.10,57.39 49.23,53.80 49.25,53.65 49.27,53.50 49.32,53.35 49.38,53.21 49.47,53.08 49.56,52.96 49.67,52.86 49.79,52.76 49.93,52.69 50.06,52.62 50.21,52.58 50.36,52.54 50.52,52.55 50.67,52.55 50.82,52.59 50.97,52.62 51.11,52.70 51.24,52.77 51.36,52.87 51.47,52.98 51.56,53.10 51.64,53.23 51.70,53.38 51.75,53.52 51.77,53.67 Z" fill="#1d1d1d" stroke="#1d1d1d" stroke-width="2" pointer-events="none"/></g><g font-size="28" font-family="Caveat Brush" text-align="left" fill="#1d1d1d" transform-origin="top left" transform="translate(18.325, 19.72)"><text y="18.2">.</text></g></g><g transform="translate(295.5, 109.72) rotate(0, 45.83, 38.72)"><g id="172940d5-ee0e-4a19-305b-6bebf855ea45_svg" class="tl-centered-g"><path d="M 63.38,1.07 Q 63.38,1.07 67.76,1.06 72.15,1.06 77.65,1.05 83.15,1.05 86.05,2.54 88.94,4.03 89.67,8.00 90.40,11.97 90.57,16.58 90.75,21.19 90.78,25.96 90.82,30.73 90.81,35.55 90.81,40.36 90.80,45.18 90.79,50.00 90.78,54.83 90.77,59.65 90.75,64.48 90.74,69.30 89.25,72.02 87.75,74.74 83.03,75.43 78.30,76.12 72.75,76.28 67.20,76.45 61.44,76.48 55.68,76.52 49.86,76.52 44.05,76.52 38.22,76.51 32.39,76.50 26.56,76.49 20.73,76.48 14.90,76.47 9.07,76.46 6.09,74.97 3.11,73.47 2.32,69.51 1.53,65.55 1.30,60.95 1.07,56.36 0.99,51.61 0.90,46.85 0.85,42.06 0.79,37.26 0.75,32.46 0.71,27.65 0.67,22.85 0.63,18.04 0.59,13.23 0.55,8.42 2.03,5.71 3.51,2.99 8.27,2.29 13.03,1.60 18.63,1.41 24.23,1.23 30.04,1.18 35.86,1.13 41.72,1.11 47.59,1.09 53.47,1.08 59.35,1.08 67.25,1.07" fill="#fefefe" pointer-events="none"/><path d="M 63.38,-0.20 Q 63.38,-0.20 67.76,-0.30 72.15,-0.39 77.69,-0.48 83.24,-0.57 86.63,1.22 90.03,3.01 90.93,7.36 91.84,11.71 91.93,16.43 92.02,21.14 91.97,25.94 91.91,30.73 91.91,35.54 91.91,40.36 91.99,45.18 92.07,50.01 92.15,54.83 92.23,59.66 92.30,64.53 92.37,69.40 90.54,72.64 88.72,75.87 83.61,76.72 78.51,77.56 72.87,77.65 67.24,77.73 61.46,77.67 55.68,77.61 49.87,77.61 44.05,77.61 38.22,77.70 32.39,77.78 26.56,77.86 20.73,77.94 14.86,78.02 8.98,78.09 5.51,76.30 2.03,74.50 1.06,70.17 0.10,65.83 -0.04,61.13 -0.19,56.42 -0.19,51.65 -0.19,46.87 -0.24,42.07 -0.29,37.28 -0.42,32.47 -0.56,27.67 -0.69,22.86 -0.83,18.05 -0.94,13.19 -1.06,8.33 0.73,5.10 2.54,1.86 7.68,1.01 12.82,0.15 18.51,0.05 24.19,-0.04 30.02,-0.00 35.85,0.04 41.72,0.02 47.59,0.00 53.47,-0.09 59.35,-0.19 67.25,-0.30 75.15,-0.40 75.38,-0.36 75.62,-0.32 75.82,-0.21 76.03,-0.10 76.20,0.06 76.36,0.23 76.46,0.45 76.56,0.66 76.59,0.90 76.61,1.13 76.56,1.37 76.51,1.60 76.39,1.80 76.27,2.00 76.09,2.16 75.91,2.31 75.69,2.40 75.47,2.49 75.23,2.50 74.99,2.51 74.76,2.45 74.54,2.39 74.34,2.25 74.14,2.12 74.00,1.93 73.86,1.74 73.78,1.52 73.70,1.29 73.70,1.06 73.70,0.82 73.78,0.60 73.85,0.37 74.00,0.18 74.14,-0.00 74.34,-0.13 74.53,-0.26 74.76,-0.33 74.99,-0.39 75.23,-0.38 75.46,-0.36 75.68,-0.28 75.90,-0.19 76.08,-0.04 76.26,0.11 76.39,0.31 76.51,0.51 76.56,0.74 76.61,0.98 76.59,1.21 76.56,1.45 76.46,1.66 76.36,1.88 76.20,2.05 76.04,2.22 75.83,2.33 75.62,2.44 75.38,2.48 75.15,2.52 75.15,2.52 75.15,2.52 67.25,2.44 59.35,2.35 53.47,2.27 47.59,2.19 41.73,2.20 35.87,2.22 30.07,2.36 24.27,2.51 18.76,2.78 13.25,3.04 8.86,3.58 4.48,4.12 3.33,6.31 2.17,8.51 2.13,13.27 2.09,18.03 2.04,22.83 1.99,27.64 1.94,32.45 1.89,37.25 1.94,42.04 1.99,46.83 2.17,51.56 2.35,56.30 2.66,60.78 2.97,65.26 3.58,68.85 4.19,72.44 6.67,73.63 9.15,74.83 14.94,74.92 20.73,75.02 26.56,75.12 32.39,75.22 38.22,75.32 44.05,75.42 49.86,75.42 55.67,75.42 61.42,75.30 67.16,75.17 72.63,74.92 78.09,74.67 82.44,74.14 86.79,73.62 87.95,71.41 89.11,69.20 89.21,64.43 89.30,59.65 89.41,54.82 89.51,50.00 89.62,45.18 89.72,40.36 89.72,35.55 89.72,30.74 89.60,25.99 89.47,21.24 89.21,16.74 88.95,12.24 88.40,8.64 87.85,5.04 85.46,3.86 83.07,2.68 77.61,2.60 72.15,2.52 67.76,2.44 63.38,2.35 63.23,2.33 63.07,2.31 62.93,2.26 62.79,2.20 62.66,2.11 62.53,2.03 62.43,1.91 62.33,1.80 62.25,1.66 62.18,1.52 62.15,1.37 62.11,1.22 62.11,1.07 62.11,0.92 62.15,0.77 62.18,0.62 62.25,0.48 62.33,0.34 62.43,0.23 62.53,0.11 62.66,0.02 62.78,-0.05 62.93,-0.11 63.07,-0.16 63.22,-0.18 Z" fill="#1d1d1d" stroke="#1d1d1d" stroke-width="2" pointer-events="none"/></g><g font-size="28" font-family="Caveat Brush" text-align="left" fill="#1d1d1d" transform-origin="top left" transform="translate(27.83, 19.72)"><text y="18.2">log</text></g></g><g transform="translate(400.3800000000001, 110.62) rotate(0, 25.82, 38.72)"><g id="07c14a96-dd8f-4fe9-2fa0-e97a123a9d67_svg" class="tl-centered-g"><path d="M 0.85,24.29 Q 0.85,24.29 0.89,20.76 0.93,17.22 0.98,12.79 1.03,8.35 2.53,5.73 4.04,3.11 6.65,2.42 9.27,1.74 12.16,1.54 15.06,1.35 18.03,1.28 21.00,1.21 23.99,1.17 26.98,1.13 29.98,1.11 32.97,1.08 35.97,1.05 38.96,1.02 41.96,1.00 44.95,0.97 47.21,2.45 49.46,3.94 50.05,7.94 50.63,11.95 50.79,16.59 50.95,21.24 51.00,26.05 51.05,30.86 51.07,35.71 51.10,40.57 51.11,45.43 51.13,50.29 51.14,55.16 51.16,60.02 51.17,64.89 51.19,69.76 49.70,72.49 48.21,75.22 45.55,75.84 42.89,76.46 39.93,76.55 36.97,76.64 33.93,76.59 30.89,76.53 27.83,76.45 24.78,76.36 21.71,76.27 18.65,76.17 15.59,76.08 12.53,75.98 9.46,75.88 6.40,75.78 4.13,74.27 1.85,72.75 1.32,68.83 0.78,64.91 0.68,60.38 0.58,55.85 0.60,51.16 0.62,46.47 0.66,41.74 0.71,37.01 0.76,32.27 0.81,27.53 0.88,21.17" fill="#fefefe" pointer-events="none"/><path d="M -0.42,24.27 Q -0.42,24.27 -0.47,20.74 -0.53,17.21 -0.55,12.72 -0.58,8.23 1.16,5.15 2.91,2.06 5.90,1.19 8.90,0.32 11.94,0.20 14.98,0.07 17.98,0.09 20.98,0.12 23.97,0.08 26.97,0.04 29.96,-0.07 32.96,-0.19 35.95,-0.31 38.95,-0.43 42.02,-0.53 45.09,-0.62 47.85,1.15 50.61,2.94 51.35,7.34 52.08,11.74 52.15,16.47 52.23,21.20 52.19,26.02 52.14,30.85 52.17,35.70 52.19,40.56 52.30,45.42 52.41,50.29 52.52,55.15 52.62,60.02 52.72,64.93 52.81,69.85 51.06,73.06 49.30,76.28 46.26,77.09 43.22,77.89 40.11,77.90 37.00,77.91 33.94,77.77 30.87,77.63 27.81,77.54 24.75,77.46 21.68,77.45 18.61,77.45 15.55,77.45 12.48,77.44 9.35,77.42 6.21,77.39 3.46,75.57 0.70,73.74 0.01,69.43 -0.66,65.11 -0.67,60.49 -0.68,55.88 -0.57,51.17 -0.47,46.47 -0.42,41.73 -0.38,37.00 -0.42,32.26 -0.46,27.52 -0.48,21.15 -0.50,14.79 -0.46,14.55 -0.42,14.32 -0.30,14.11 -0.19,13.90 -0.02,13.74 0.15,13.58 0.36,13.49 0.58,13.39 0.82,13.37 1.05,13.34 1.28,13.40 1.51,13.45 1.71,13.57 1.92,13.70 2.07,13.88 2.22,14.06 2.30,14.28 2.39,14.51 2.40,14.74 2.41,14.98 2.34,15.21 2.28,15.43 2.14,15.63 2.01,15.82 1.82,15.96 1.63,16.11 1.40,16.18 1.18,16.25 0.94,16.25 0.70,16.25 0.48,16.17 0.25,16.09 0.07,15.94 -0.11,15.80 -0.24,15.60 -0.37,15.40 -0.43,15.17 -0.49,14.95 -0.48,14.71 -0.46,14.47 -0.37,14.25 -0.28,14.03 -0.13,13.86 0.02,13.68 0.22,13.56 0.43,13.44 0.66,13.39 0.89,13.34 1.13,13.37 1.36,13.40 1.58,13.50 1.79,13.60 1.96,13.77 2.13,13.93 2.24,14.14 2.35,14.35 2.38,14.59 2.42,14.82 2.42,14.82 2.42,14.82 2.25,21.18 2.09,27.55 1.94,32.28 1.80,37.02 1.75,41.75 1.71,46.47 1.79,51.15 1.86,55.82 2.05,60.27 2.23,64.72 2.62,68.24 3.01,71.77 4.80,72.97 6.58,74.18 9.58,74.35 12.57,74.52 15.63,74.71 18.69,74.90 21.75,75.08 24.81,75.27 27.86,75.36 30.91,75.44 33.92,75.40 36.93,75.36 39.75,75.20 42.56,75.04 44.84,74.60 47.12,74.16 48.34,71.91 49.56,69.66 49.63,64.85 49.69,60.03 49.77,55.16 49.85,50.30 49.93,45.43 50.00,40.57 49.98,35.72 49.96,30.87 49.82,26.08 49.67,21.28 49.43,16.72 49.18,12.16 48.75,8.55 48.31,4.93 46.56,3.75 44.81,2.58 41.89,2.53 38.98,2.49 35.98,2.42 32.98,2.36 29.99,2.29 27.00,2.23 24.01,2.26 21.03,2.30 18.09,2.46 15.15,2.62 12.39,2.89 9.63,3.15 7.40,3.66 5.17,4.16 3.91,6.32 2.65,8.47 2.52,12.86 2.39,17.24 2.26,20.77 2.12,24.30 2.10,24.46 2.08,24.61 2.03,24.75 1.97,24.90 1.88,25.02 1.79,25.15 1.68,25.25 1.56,25.35 1.42,25.42 1.29,25.49 1.14,25.52 0.99,25.56 0.83,25.56 0.68,25.56 0.53,25.52 0.38,25.48 0.24,25.41 0.11,25.33 -0.00,25.23 -0.11,25.13 -0.20,25.00 -0.28,24.87 -0.34,24.73 -0.39,24.58 -0.41,24.43 Z" fill="#1d1d1d" stroke="#1d1d1d" stroke-width="2" pointer-events="none"/></g><g font-size="28" font-family="Caveat Brush" text-align="left" fill="#1d1d1d" transform-origin="top left" transform="translate(17.325, 19.72)"><text y="18.2">(</text></g></g><g transform="translate(465.74, 110.62) rotate(0, 75.16, 38.72)"><g id="cf57c209-ef37-430d-32d0-77d4794492c0_svg" class="tl-centered-g"><path d="M 57.86,76.37 Q 57.86,76.37 51.32,76.38 44.78,76.38 36.57,76.39 28.36,76.40 19.72,76.41 11.09,76.41 7.40,74.93 3.70,73.44 2.77,69.47 1.83,65.50 1.60,60.89 1.36,56.29 1.31,51.53 1.25,46.76 1.24,41.96 1.23,37.15 1.24,32.33 1.24,27.52 1.24,22.70 1.25,17.88 1.26,13.06 1.26,8.24 2.75,5.52 4.24,2.80 11.14,2.13 18.03,1.46 26.30,1.31 34.57,1.16 43.19,1.15 51.81,1.14 60.52,1.15 69.23,1.17 77.96,1.20 86.69,1.23 95.43,1.26 104.17,1.29 112.91,1.32 121.65,1.35 130.39,1.38 139.13,1.41 142.85,2.91 146.57,4.41 147.54,8.35 148.52,12.29 148.80,16.85 149.08,21.41 149.18,26.13 149.28,30.85 149.33,35.61 149.39,40.38 149.43,45.15 149.48,49.92 149.52,54.69 149.56,59.47 149.60,64.24 149.64,69.02 148.16,71.73 146.68,74.43 139.76,75.13 132.84,75.83 124.53,76.01 116.23,76.19 107.57,76.25 98.91,76.30 90.16,76.32 81.41,76.34 72.64,76.35 63.86,76.36 52.08,76.37" fill="#fefefe" pointer-events="none"/><path d="M 57.86,77.53 Q 57.86,77.53 51.32,77.62 44.78,77.71 36.57,77.80 28.36,77.88 19.70,77.97 11.04,78.06 6.86,76.27 2.67,74.48 1.54,70.16 0.40,65.83 0.24,61.09 0.08,56.36 0.12,51.56 0.16,46.77 0.15,41.96 0.14,37.15 0.05,32.33 -0.03,27.52 -0.12,22.70 -0.21,17.88 -0.28,13.01 -0.35,8.14 1.50,4.89 3.36,1.64 10.62,0.81 17.88,-0.01 26.21,-0.08 34.54,-0.15 43.17,-0.08 51.80,-0.02 60.52,0.07 69.23,0.17 77.96,0.12 86.69,0.07 95.43,0.02 104.17,-0.03 112.91,-0.08 121.65,-0.13 130.42,-0.17 139.18,-0.22 143.38,1.56 147.59,3.35 148.77,7.64 149.94,11.94 150.15,16.64 150.35,21.33 150.36,26.08 150.37,30.83 150.43,35.60 150.48,40.36 150.62,45.14 150.76,49.91 150.89,54.68 151.02,59.46 151.14,64.28 151.26,69.11 149.41,72.35 147.57,75.59 140.28,76.45 132.99,77.31 124.62,77.41 116.26,77.52 107.59,77.49 98.92,77.46 90.16,77.40 81.41,77.34 72.64,77.43 63.87,77.52 52.08,77.62 40.30,77.71 40.09,77.68 39.88,77.64 39.69,77.54 39.50,77.44 39.35,77.29 39.20,77.13 39.11,76.94 39.02,76.74 39.00,76.53 38.97,76.32 39.02,76.11 39.07,75.90 39.18,75.71 39.29,75.53 39.45,75.39 39.61,75.25 39.81,75.17 40.01,75.09 40.23,75.08 40.44,75.07 40.65,75.13 40.85,75.18 41.03,75.30 41.21,75.42 41.34,75.59 41.47,75.76 41.54,75.97 41.61,76.17 41.61,76.39 41.61,76.60 41.54,76.80 41.47,77.01 41.34,77.18 41.21,77.35 41.03,77.47 40.86,77.59 40.65,77.65 40.44,77.70 40.23,77.69 40.01,77.68 39.82,77.60 39.62,77.52 39.45,77.38 39.29,77.24 39.18,77.06 39.07,76.88 39.02,76.67 38.98,76.46 39.00,76.25 39.02,76.03 39.11,75.84 39.20,75.64 39.35,75.49 39.50,75.33 39.68,75.23 39.87,75.13 40.09,75.10 40.30,75.06 40.30,75.06 40.30,75.06 52.08,75.13 63.86,75.20 72.64,75.27 81.41,75.34 90.15,75.24 98.90,75.14 107.55,75.00 116.20,74.87 124.44,74.61 132.69,74.35 139.24,73.81 145.79,73.27 146.90,71.10 148.01,68.93 148.05,64.21 148.09,59.48 148.15,54.71 148.20,49.93 148.25,45.16 148.30,40.39 148.24,35.63 148.19,30.88 147.99,26.18 147.80,21.49 147.45,17.06 147.10,12.64 146.32,9.05 145.54,5.47 142.31,4.26 139.08,3.05 130.36,2.95 121.64,2.84 112.90,2.73 104.16,2.61 95.43,2.50 86.69,2.39 77.96,2.28 69.22,2.17 60.52,2.24 51.81,2.30 43.20,2.39 34.59,2.49 26.38,2.72 18.17,2.94 11.65,3.45 5.13,3.97 4.01,6.15 2.89,8.34 2.80,13.11 2.71,17.88 2.62,22.70 2.52,27.52 2.42,32.33 2.33,37.15 2.34,41.95 2.34,46.75 2.49,51.49 2.64,56.23 2.95,60.70 3.26,65.17 4.00,68.78 4.74,72.39 7.93,73.58 11.13,74.77 19.74,74.84 28.36,74.91 36.57,74.98 44.77,75.06 51.32,75.13 57.86,75.21 58.00,75.22 58.14,75.24 58.27,75.29 58.40,75.34 58.51,75.42 58.63,75.50 58.72,75.60 58.82,75.71 58.88,75.83 58.95,75.96 58.98,76.09 59.01,76.23 59.01,76.37 59.01,76.51 58.98,76.64 58.95,76.78 58.88,76.91 58.82,77.03 58.72,77.13 58.63,77.24 58.52,77.32 58.40,77.40 58.27,77.45 58.14,77.50 58.00,77.52 Z" fill="#1d1d1d" stroke="#1d1d1d" stroke-width="2" pointer-events="none"/></g><g font-size="28" font-family="Caveat Brush" text-align="left" fill="#1d1d1d" transform-origin="top left" transform="translate(16.659999999999997, 19.72)"><text y="18.2">hello, world!</text></g></g><g transform="translate(630.6100000000001, 110.62) rotate(0, 25.82, 38.72)"><g id="73d6223b-2c01-462b-280c-60549fcd7d4c_svg" class="tl-centered-g"><path d="M 0.63,24.70 Q 0.63,24.70 0.59,21.12 0.55,17.53 0.50,13.04 0.46,8.54 1.93,5.90 3.41,3.27 6.02,2.60 8.64,1.94 11.54,1.78 14.44,1.62 17.42,1.58 20.40,1.55 23.39,1.55 26.39,1.55 29.39,1.56 32.39,1.57 35.39,1.58 38.39,1.59 41.39,1.60 44.40,1.61 46.65,3.10 48.91,4.60 49.50,8.56 50.09,12.52 50.25,17.10 50.42,21.69 50.48,26.44 50.53,31.19 50.56,35.98 50.59,40.77 50.62,45.57 50.64,50.37 50.66,55.18 50.68,59.98 50.70,64.79 50.72,69.59 49.24,72.31 47.75,75.02 45.16,75.71 42.57,76.40 39.69,76.57 36.82,76.74 33.87,76.78 30.93,76.82 27.96,76.82 25.00,76.83 22.03,76.82 19.06,76.82 16.09,76.82 13.12,76.81 10.15,76.81 7.18,76.80 4.93,75.31 2.68,73.82 2.07,69.85 1.46,65.89 1.27,61.30 1.07,56.70 0.98,51.95 0.90,47.19 0.83,42.40 0.77,37.60 0.72,32.80 0.67,27.99 0.60,21.54" fill="#fefefe" pointer-events="none"/><path d="M -0.64,24.71 Q -0.64,24.71 -0.77,21.13 -0.90,17.55 -1.03,13.00 -1.16,8.45 0.56,5.33 2.29,2.21 5.29,1.37 8.28,0.52 11.33,0.43 14.37,0.34 17.38,0.40 20.39,0.46 23.39,0.46 26.39,0.46 29.39,0.37 32.39,0.29 35.40,0.21 38.40,0.12 41.47,0.06 44.55,0.00 47.30,1.80 50.06,3.59 50.80,7.95 51.54,12.30 51.62,16.97 51.70,21.65 51.66,26.41 51.63,31.18 51.66,35.97 51.69,40.77 51.80,45.57 51.92,50.37 52.03,55.17 52.14,59.98 52.25,64.83 52.35,69.68 50.61,72.87 48.88,76.06 45.91,76.94 42.94,77.81 39.92,77.91 36.90,78.01 33.92,77.96 30.94,77.91 27.97,77.92 25.00,77.92 22.03,78.01 19.06,78.10 16.09,78.19 13.12,78.28 10.07,78.34 7.02,78.40 4.28,76.61 1.54,74.83 0.77,70.47 0.01,66.11 -0.09,61.43 -0.20,56.76 -0.19,51.99 -0.19,47.21 -0.25,42.42 -0.31,37.62 -0.46,32.81 -0.60,28.00 -0.77,21.55 -0.93,15.10 -0.89,14.86 -0.86,14.63 -0.75,14.42 -0.64,14.21 -0.47,14.04 -0.30,13.88 -0.08,13.78 0.12,13.67 0.35,13.65 0.59,13.62 0.82,13.67 1.05,13.72 1.26,13.84 1.46,13.96 1.62,14.13 1.77,14.31 1.86,14.53 1.95,14.75 1.97,14.99 1.98,15.22 1.92,15.45 1.86,15.68 1.73,15.88 1.60,16.08 1.41,16.22 1.23,16.37 1.00,16.45 0.78,16.52 0.54,16.53 0.30,16.53 0.08,16.46 -0.14,16.38 -0.33,16.24 -0.52,16.10 -0.65,15.91 -0.79,15.71 -0.85,15.48 -0.92,15.26 -0.91,15.02 -0.90,14.78 -0.81,14.56 -0.73,14.34 -0.58,14.16 -0.42,13.98 -0.22,13.85 -0.02,13.73 0.20,13.67 0.43,13.62 0.67,13.64 0.90,13.67 1.12,13.76 1.33,13.86 1.51,14.02 1.68,14.18 1.80,14.39 1.91,14.60 1.95,14.83 1.99,15.07 1.99,15.07 1.99,15.07 1.97,21.52 1.94,27.98 1.91,32.78 1.87,37.59 1.93,42.38 1.99,47.17 2.17,51.91 2.35,56.65 2.63,61.16 2.91,65.67 3.37,69.24 3.83,72.81 5.58,74.00 7.33,75.20 10.23,75.27 13.12,75.35 16.09,75.45 19.06,75.54 22.03,75.64 25.00,75.73 27.95,75.73 30.91,75.72 33.83,75.59 36.74,75.46 39.47,75.22 42.20,74.98 44.41,74.48 46.62,73.98 47.86,71.74 49.10,69.50 49.16,64.74 49.22,59.99 49.29,55.18 49.36,50.38 49.43,45.58 49.50,40.78 49.47,35.99 49.44,31.21 49.29,26.47 49.14,21.74 48.89,17.23 48.64,12.73 48.20,9.16 47.76,5.60 46.00,4.41 44.24,3.21 41.31,3.13 38.39,3.05 35.39,2.95 32.39,2.85 29.39,2.74 26.39,2.64 23.40,2.64 20.41,2.64 17.46,2.77 14.51,2.89 11.75,3.13 8.99,3.36 6.76,3.84 4.53,4.32 3.30,6.48 2.08,8.63 2.05,13.08 2.02,17.52 1.96,21.10 1.91,24.69 1.89,24.84 1.87,24.99 1.82,25.14 1.77,25.28 1.68,25.41 1.60,25.54 1.48,25.64 1.37,25.74 1.23,25.82 1.10,25.89 0.95,25.93 0.80,25.97 0.64,25.97 0.49,25.97 0.34,25.94 0.19,25.90 0.05,25.83 -0.08,25.76 -0.19,25.66 -0.31,25.56 -0.40,25.43 -0.49,25.31 -0.54,25.16 -0.60,25.02 -0.62,24.87 Z" fill="#1d1d1d" stroke="#1d1d1d" stroke-width="2" pointer-events="none"/></g><g font-size="28" font-family="Caveat Brush" text-align="left" fill="#1d1d1d" transform-origin="top left" transform="translate(17.325, 19.72)"><text y="18.2">)</text></g></g><g transform="translate(16, 197.72) rotate(0, 25.82, 38.72)"><g id="6ad5dc15-0cb6-4c46-24b3-8e4777fee5b1_svg" class="tl-centered-g"><path d="M 34.76,0.98 Q 34.76,0.98 36.99,0.93 39.21,0.88 42.01,0.82 44.81,0.77 47.01,2.24 49.21,3.72 49.77,7.66 50.32,11.60 50.45,16.17 50.58,20.74 50.61,25.47 50.63,30.20 50.63,34.97 50.63,39.75 50.62,44.53 50.61,49.31 50.60,54.09 50.59,58.88 50.57,63.67 50.56,68.45 49.07,71.16 47.58,73.87 45.01,74.57 42.45,75.26 39.61,75.44 36.77,75.62 33.86,75.67 30.95,75.72 28.02,75.73 25.10,75.75 22.17,75.76 19.24,75.76 16.30,75.77 13.37,75.77 10.44,75.78 7.51,75.78 5.27,74.29 3.03,72.80 2.43,68.90 1.82,65.00 1.63,60.49 1.44,55.97 1.36,51.30 1.28,46.62 1.22,41.91 1.17,37.20 1.12,32.47 1.07,27.75 1.02,23.02 0.98,18.30 0.93,13.57 0.88,8.84 2.36,6.15 3.84,3.45 6.44,2.72 9.05,1.98 11.94,1.75 14.83,1.52 17.80,1.41 20.76,1.30 23.75,1.23 26.73,1.15 29.72,1.09 32.71,1.02 36.73,0.94" fill="#fefefe" pointer-events="none"/><path d="M 34.73,-0.29 Q 34.73,-0.29 36.96,-0.43 39.18,-0.57 42.06,-0.70 44.94,-0.82 47.66,0.95 50.37,2.73 51.07,7.06 51.77,11.40 51.82,16.05 51.86,20.70 51.79,25.45 51.73,30.20 51.72,34.97 51.72,39.75 51.80,44.53 51.89,49.31 51.97,54.10 52.05,58.88 52.12,63.72 52.19,68.55 50.45,71.73 48.71,74.91 45.77,75.79 42.82,76.67 39.84,76.79 36.85,76.90 33.91,76.85 30.97,76.81 28.04,76.83 25.10,76.84 22.17,76.94 19.24,77.04 16.31,77.14 13.37,77.24 10.36,77.31 7.36,77.39 4.62,75.60 1.88,73.81 1.13,69.52 0.37,65.23 0.27,60.62 0.17,56.02 0.18,51.33 0.19,46.64 0.13,41.93 0.07,37.21 -0.06,32.49 -0.20,27.76 -0.34,23.04 -0.48,18.31 -0.61,13.53 -0.73,8.76 0.97,5.59 2.69,2.42 5.67,1.50 8.66,0.57 11.69,0.41 14.73,0.24 17.73,0.23 20.73,0.21 23.72,0.14 26.71,0.06 29.70,-0.09 32.68,-0.25 36.70,-0.42 40.71,-0.60 40.94,-0.57 41.18,-0.54 41.39,-0.43 41.60,-0.32 41.77,-0.15 41.93,0.00 42.04,0.22 42.14,0.43 42.17,0.66 42.20,0.90 42.16,1.13 42.11,1.36 41.99,1.57 41.88,1.78 41.70,1.93 41.52,2.09 41.30,2.18 41.08,2.27 40.85,2.29 40.61,2.31 40.38,2.25 40.15,2.19 39.95,2.06 39.76,1.94 39.61,1.75 39.46,1.56 39.38,1.34 39.30,1.12 39.29,0.88 39.29,0.65 39.36,0.42 39.43,0.19 39.57,0.00 39.71,-0.18 39.90,-0.32 40.10,-0.45 40.32,-0.52 40.55,-0.59 40.79,-0.58 41.02,-0.57 41.25,-0.49 41.47,-0.41 41.65,-0.26 41.84,-0.11 41.96,0.08 42.09,0.28 42.14,0.51 42.20,0.74 42.18,0.98 42.16,1.21 42.06,1.43 41.97,1.65 41.81,1.82 41.65,2.00 41.44,2.11 41.24,2.23 41.00,2.27 40.77,2.32 40.77,2.32 40.77,2.32 36.76,2.31 32.74,2.30 29.75,2.27 26.76,2.25 23.78,2.32 20.80,2.40 17.87,2.59 14.94,2.79 12.19,3.09 9.44,3.40 7.21,3.94 4.99,4.48 3.75,6.71 2.51,8.93 2.47,13.61 2.44,18.28 2.39,23.01 2.35,27.74 2.30,32.46 2.26,37.18 2.32,41.89 2.37,46.60 2.55,51.26 2.72,55.92 2.99,60.35 3.27,64.78 3.72,68.29 4.18,71.80 5.92,72.99 7.66,74.18 10.51,74.24 13.37,74.31 16.30,74.40 19.23,74.49 22.16,74.57 25.09,74.66 28.01,74.64 30.93,74.63 33.81,74.49 36.69,74.34 39.38,74.10 42.07,73.85 44.26,73.34 46.44,72.83 47.69,70.59 48.94,68.35 49.03,63.61 49.12,58.88 49.23,54.09 49.33,49.31 49.43,44.53 49.54,39.74 49.54,34.98 49.54,30.21 49.42,25.49 49.31,20.78 49.09,16.29 48.87,11.80 48.46,8.25 48.06,4.71 46.36,3.54 44.67,2.37 41.96,2.36 39.25,2.35 37.02,2.30 34.79,2.26 34.63,2.24 34.48,2.23 34.33,2.17 34.19,2.12 34.06,2.04 33.93,1.95 33.83,1.84 33.72,1.73 33.65,1.59 33.57,1.46 33.53,1.31 33.49,1.16 33.49,1.00 33.49,0.85 33.52,0.70 33.55,0.55 33.62,0.41 33.69,0.27 33.79,0.16 33.89,0.04 34.02,-0.04 34.14,-0.13 34.28,-0.19 34.43,-0.25 34.58,-0.27 Z" fill="#1d1d1d" stroke="#1d1d1d" stroke-width="2" pointer-events="none"/></g><g font-size="28" font-family="Caveat Brush" text-align="left" fill="#1d1d1d" transform-origin="top left" transform="translate(17.325, 19.72)"><text y="18.2">}</text></g></g></svg>